<svg width="100%" height="100%" viewBox="0 0 14 16" fill="none" xmlns="http://www.w3.org/2000/svg">
<g clip-path="url(#clip0_1_26183)">
<g clip-path="url(#clip1_1_26183)">
<g clip-path="url(#clip2_1_26183)">
<path fill-rule="evenodd" clip-rule="evenodd" d="M0.4575 3.37766C0.00244141 4.27083 0.00244141 5.44015 0.00244141 7.77878V8.3355C0.00244141 10.6741 0.00244141 11.8435 0.4575 12.7366C0.857893 13.5224 1.4967 14.1612 2.28245 14.5614C3.17562 15.0166 4.34493 15.0166 6.68354 15.0166H7.24031C9.57896 15.0166 10.7483 15.0166 11.6414 14.5614C12.4272 14.1612 13.066 13.5224 13.4663 12.7366C13.9214 11.8435 13.9214 10.6741 13.9214 8.3355V7.77878C13.9214 5.44015 13.9214 4.27083 13.4663 3.37766C13.066 2.59192 12.4272 1.9531 11.6414 1.55271C10.7483 1.09766 9.57896 1.09766 7.24031 1.09766H6.68354C4.34493 1.09766 3.17562 1.09766 2.28245 1.55271C1.4967 1.9531 0.857893 2.59192 0.4575 3.37766ZM9.43302 6.17161L6.44745 9.16422L4.70672 7.43397C4.6444 7.36116 4.56756 7.30192 4.48129 7.26026C4.39489 7.21845 4.30084 7.19502 4.20501 7.19121C4.10919 7.1875 4.01361 7.20368 3.92428 7.23871C3.83495 7.27363 3.75391 7.32676 3.68611 7.39456C3.61819 7.46237 3.56518 7.54353 3.53013 7.63289C3.49522 7.72209 3.47903 7.81766 3.48273 7.9136C3.48642 8.00943 3.50988 8.10349 3.55167 8.18977C3.59347 8.27615 3.6526 8.35288 3.72549 8.41531L5.95326 10.6396C6.01825 10.7041 6.09534 10.755 6.18021 10.7898C6.26492 10.8244 6.3558 10.842 6.44745 10.8415C6.62993 10.8407 6.80489 10.7682 6.93449 10.6396L10.4142 7.15984C10.4795 7.09522 10.5312 7.01813 10.5667 6.93341C10.6019 6.84854 10.6202 6.75767 10.6202 6.6658C10.6202 6.57388 10.6019 6.48291 10.5667 6.39804C10.5491 6.35612 10.5276 6.31614 10.5025 6.27851C10.4767 6.24014 10.4472 6.20434 10.4142 6.17161C10.2839 6.04201 10.1075 5.96925 9.92366 5.96925C9.7761 5.96925 9.63334 6.01612 9.51533 6.10167C9.48631 6.12265 9.45875 6.14598 9.43302 6.17161Z" fill="url(#paint0_linear_1_26183)"/>
</g>
</g>
</g>
<defs>
<linearGradient id="paint0_linear_1_26183" x1="0.00244141" y1="8.05715" x2="13.9214" y2="8.05715" gradientUnits="userSpaceOnUse">
<stop stop-color="#588CE4"/>
<stop offset="1" stop-color="#36D1DC"/>
</linearGradient>
<clipPath id="clip0_1_26183">
<rect width="14" height="15" fill="white" transform="translate(0 0.75)"/>
</clipPath>
<clipPath id="clip1_1_26183">
<rect width="14.098" height="14.6149" fill="white" transform="translate(0 0.75)"/>
</clipPath>
<clipPath id="clip2_1_26183">
<rect width="14.0929" height="14.6149" fill="white" transform="translate(0.00244141 0.75)"/>
</clipPath>
</defs>
</svg>
