<svg width="579" height="117" viewBox="0 0 579 117" fill="none" xmlns="http://www.w3.org/2000/svg">
<g clip-path="url(#clip0_1_8822)">
<path d="M35.6595 49.2206L58.1365 26.7292L80.6227 49.239L93.6939 36.1449L58.1365 0.541016L22.5791 36.1357L35.6595 49.2206Z" fill="white"/>
<path d="M0.262207 58.4688L13.3378 45.3794L26.4134 58.4687L13.3378 71.5581L0.262207 58.4688Z" fill="white"/>
<path d="M35.6598 67.7142L58.1368 90.2148L80.623 67.7051L93.7034 80.7809L93.6942 80.79L58.1368 116.394L22.5794 80.8083L22.5612 80.79L35.6598 67.7142Z" fill="white"/>
<path d="M89.8376 58.4727L102.913 45.3834L115.989 58.4727L102.913 71.562L89.8376 58.4727Z" fill="white"/>
<path d="M71.4008 58.462L58.1377 45.1758L48.3297 54.9941L47.1962 56.1196L44.8745 58.4437L44.8562 58.462L44.8745 58.4895L58.1377 71.7574L71.4008 58.4712L71.41 58.462H71.4008Z" fill="white"/>
<path d="M136.39 28.6133H164.836C171.893 28.6133 177.231 30.4433 180.851 34.1035C182.215 35.4555 183.29 37.0708 184.011 38.8514C184.732 40.6319 185.084 42.5406 185.046 44.4616V44.6355C185.071 46.2092 184.852 47.7772 184.397 49.2838C183.992 50.5808 183.405 51.8133 182.652 52.9439C181.95 54.0101 181.1 54.9713 180.129 55.7988C179.18 56.6166 178.14 57.3228 177.03 57.9034C180.231 59.0194 183.109 60.9046 185.412 63.3936C187.447 65.7117 188.465 68.9143 188.465 73.0014V73.1753C188.523 75.7278 187.968 78.257 186.847 80.5504C185.761 82.6635 184.169 84.4743 182.213 85.821C180.001 87.3051 177.539 88.3747 174.946 88.9779C171.865 89.7093 168.706 90.0626 165.54 90.0301H136.39V28.6133ZM161.984 53.4472C164.445 53.5663 166.895 53.0362 169.087 51.91C169.942 51.4101 170.64 50.6806 171.102 49.8041C171.564 48.9276 171.771 47.9391 171.701 46.9505V46.7766C171.746 45.8658 171.561 44.9582 171.164 44.1377C170.766 43.3173 170.168 42.6105 169.425 42.0825C167.908 41.0028 165.717 40.4629 162.853 40.4629H149.544V53.4472H161.984ZM165.577 78.1988C168.029 78.3363 170.469 77.7747 172.615 76.5792C173.451 76.0415 174.128 75.2894 174.575 74.401C175.021 73.5127 175.222 72.5207 175.156 71.5282V71.3544C175.189 70.411 174.991 69.474 174.578 68.6254C174.165 67.7767 173.551 67.0423 172.789 66.4864C171.217 65.2664 168.675 64.6563 165.165 64.6563H149.544V78.1988H165.577Z" fill="white"/>
<path d="M205.412 28.6133H218.913V90.0484H205.412V28.6133Z" fill="white"/>
<path d="M239.342 28.6133H251.792L280.567 66.4224V28.6133H293.894V90.0484H282.404L252.688 50.9949V90.0484H239.342V28.6133Z" fill="white"/>
<path d="M334.771 28.1738H347.202L373.5 90.0482H359.405L353.792 76.2678H327.842L322.23 90.0482H308.464L334.771 28.1738ZM348.975 64.3358L340.803 44.4065L332.668 64.3358H348.975Z" fill="white"/>
<path d="M388.098 28.6133H400.548L429.305 66.4224V28.6133H442.632V90.0484H431.142L401.426 50.9949V90.0484H388.098V28.6133Z" fill="white"/>
<path d="M491.224 91.1283C486.921 91.1651 482.655 90.331 478.683 88.676C474.943 87.1301 471.55 84.8505 468.704 81.9715C465.857 79.0925 463.616 75.6724 462.111 71.9126C460.522 67.9799 459.718 63.7741 459.743 59.5323V59.3584C459.672 50.9971 462.886 42.9427 468.692 36.931C471.548 33.9944 474.968 31.6663 478.747 30.0866C482.856 28.3824 487.269 27.5325 491.717 27.5885C494.348 27.5689 496.975 27.8048 499.56 28.2931C501.772 28.7119 503.935 29.3589 506.013 30.2238C507.9 31.0187 509.693 32.019 511.361 33.2068C512.988 34.3653 514.517 35.6569 515.931 37.0683L507.348 46.9872C505.155 44.9617 502.694 43.2468 500.035 41.8905C497.423 40.6402 494.557 40.0138 491.662 40.0604C489.253 40.0347 486.866 40.5223 484.66 41.491C482.454 42.4597 480.478 43.8872 478.865 45.6787C477.266 47.4656 476.014 49.5354 475.173 51.7819C474.292 54.156 473.849 56.6704 473.866 59.2028V59.3767C473.857 61.9055 474.3 64.4155 475.173 66.7885C476.003 69.043 477.243 71.1246 478.829 72.9283C480.429 74.7421 482.4 76.1905 484.607 77.1756C486.815 78.1607 489.209 78.6595 491.626 78.6381C494.704 78.7352 497.758 78.0721 500.52 76.7074C503.149 75.2731 505.58 73.5013 507.75 71.4368L516.342 80.1296C514.825 81.778 513.184 83.3075 511.434 84.7048C509.714 86.0659 507.847 87.2292 505.867 88.1727C503.758 89.1667 501.535 89.9011 499.249 90.3596C496.607 90.8899 493.918 91.1474 491.224 91.1283Z" fill="white"/>
<path d="M532.275 28.6133H578.463V40.6368H545.557V53.0995H574.533V65.123H545.602V78.0249H578.92V90.0484H532.303L532.275 28.6133Z" fill="white"/>
</g>
<defs>
<clipPath id="clip0_1_8822">
<rect width="578.644" height="115.852" fill="white" transform="translate(0.267578 0.541016)"/>
</clipPath>
</defs>
</svg>
