<svg width="461" height="97" viewBox="0 0 461 97" fill="none" xmlns="http://www.w3.org/2000/svg">
<g clip-path="url(#clip0_1_8818)">
<path d="M95.5301 59.945C89.1194 85.664 63.0765 101.309 37.359 94.898C11.655 88.487 -3.99359 62.441 2.42003 36.728C8.82766 11.009 34.8691 -4.64053 60.5776 1.77047C86.2921 8.18147 101.941 34.2305 95.5301 59.945Z" fill="white"/>
<path d="M70.1367 41.497C71.0921 35.11 66.2294 31.6765 59.5803 29.386L61.7371 20.734L56.471 19.4215L54.3711 27.8455C52.9684 27.5009 51.5624 27.1699 50.1533 26.8525L52.2682 18.373L47.0035 17.0605L44.8466 25.7095C43.7007 25.4485 42.5758 25.1905 41.4838 24.919L41.4898 24.892L34.2273 23.0785L32.8263 28.7035C32.8263 28.7035 36.7336 29.599 36.6511 29.6545C38.784 30.187 39.1695 31.5985 39.105 32.7175L36.6481 42.574C36.7951 42.6115 36.9856 42.667 37.1956 42.7495L36.6391 42.6115L33.1953 56.4191C32.9343 57.0671 32.2729 58.0391 30.7805 57.6701C30.8345 57.7466 26.9542 56.7146 26.9542 56.7146L24.3398 62.7446L31.1929 64.4546C32.4679 64.7726 33.7173 65.1071 34.9472 65.4221L32.7678 74.1731L38.028 75.4856L40.1849 66.8261C41.6218 67.2176 43.0167 67.576 44.3817 67.9165L42.2308 76.5341L47.4955 77.8466L49.6764 69.1121C58.6563 70.8116 65.4089 70.1261 68.2513 62.0051C70.5416 55.465 68.1373 51.6926 63.4125 49.2311C66.8533 48.4361 69.4452 46.1726 70.1367 41.497ZM58.1029 58.3691C56.4755 64.9091 45.4646 61.375 41.8948 60.487L44.7866 48.8935C48.3564 49.786 59.8038 51.5501 58.1029 58.3691ZM59.7318 41.404C58.2469 47.3515 49.0824 44.3291 46.1096 43.5881L48.7314 33.073C51.7042 33.814 61.2782 35.1985 59.7318 41.404Z" fill="url(#paint0_linear_1_8818)"/>
<path d="M141.637 29.3772C145.529 29.3772 148.892 30.0747 151.716 31.4442C154.557 32.8272 156.9 34.6902 158.779 37.0332C160.633 39.3882 162.013 42.1407 162.904 45.2952C163.789 48.4602 164.233 51.8592 164.233 55.4982C164.233 61.0932 163.208 66.3732 161.14 71.3532C159.07 76.3407 156.265 80.6682 152.695 84.3582C149.129 88.0437 144.917 90.9477 140.06 93.0942C135.211 95.2422 129.939 96.3162 124.278 96.3162C123.546 96.3162 122.259 96.2952 120.441 96.2577C118.623 96.2202 116.534 96.0327 114.194 95.7177C111.679 95.3585 109.184 94.8688 106.72 94.2507C104.141 93.628 101.636 92.7329 99.2461 91.5807L120.263 3.26366L139.087 0.347656L131.562 31.6872C133.127 30.9798 134.751 30.4116 136.415 29.9892C138.124 29.5738 139.878 29.3683 141.637 29.3772ZM125.847 81.3822C128.682 81.3822 131.352 80.6847 133.863 79.3167C136.386 77.9369 138.601 76.0553 140.371 73.7877C142.22 71.4233 143.675 68.7757 144.68 65.9472C145.734 63.0234 146.269 59.938 146.261 56.8302C146.261 52.9422 145.611 49.9152 144.317 47.7207C143.023 45.5382 140.627 44.4402 137.147 44.4402C136.007 44.4402 134.541 44.6577 132.72 45.0462C130.893 45.4587 129.258 46.3152 127.792 47.6037L119.778 80.8857C120.261 80.9712 120.689 81.0522 121.053 81.1287C121.41 81.2112 121.803 81.2697 122.198 81.3102C122.613 81.3567 123.089 81.3807 123.663 81.3807L125.847 81.3822ZM183.754 94.6272H165.775L180.958 30.7317H199.061L183.754 94.6272ZM192.503 22.9467C190.05 22.967 187.659 22.1783 185.7 20.7027C183.664 19.2147 182.655 16.9242 182.655 13.8372C182.655 12.1392 183 10.5462 183.685 9.04316C184.348 7.58719 185.276 6.268 186.424 5.15366C187.574 4.05584 188.91 3.17064 190.369 2.53916C191.887 1.89017 193.523 1.56035 195.174 1.57016C197.682 1.57016 199.944 2.31716 201.972 3.81416C203.991 5.31866 205.006 7.60916 205.006 10.6797C205.016 12.337 204.663 13.9765 203.971 15.4827C203.315 16.94 202.389 18.2598 201.242 19.3722C200.094 20.4714 198.758 21.3545 197.297 21.9792C195.794 22.6362 194.201 22.9467 192.503 22.9467ZM214.817 14.8122L233.649 11.8947L229.024 30.7287H249.192L245.551 45.5457H225.504L220.165 67.8957C219.673 69.7572 219.394 71.4972 219.316 73.1157C219.226 74.7402 219.433 76.1352 219.919 77.3097C220.401 78.4872 221.268 79.3947 222.528 80.0352C223.784 80.6877 225.579 81.0162 227.934 81.0162C229.873 81.0162 231.765 80.8317 233.589 80.4657C235.463 80.0942 237.307 79.5879 239.108 78.9507L240.452 92.8032C237.872 93.7375 235.235 94.5066 232.557 95.1057C229.717 95.7597 226.356 96.0732 222.471 96.0732C216.886 96.0732 212.555 95.2437 209.47 93.5937C206.389 91.9317 204.211 89.6577 202.908 86.7807C201.623 83.9157 201.048 80.6112 201.209 76.8867C201.374 73.1547 201.938 69.2307 202.908 65.1012L214.817 14.8122ZM248.402 69.1137C248.402 63.6087 249.293 58.4202 251.072 53.5602C252.849 48.6972 255.409 44.4447 258.73 40.7967C262.041 37.1667 266.074 34.2882 270.823 32.1762C275.544 30.0762 280.836 29.0172 286.665 29.0172C290.315 29.0172 293.575 29.3622 296.444 30.0537C299.324 30.7512 301.928 31.6527 304.284 32.7837L298.085 46.8837C296.433 46.2195 294.75 45.6318 293.044 45.1227C291.304 44.5872 289.181 44.3292 286.669 44.3292C280.666 44.3292 275.924 46.3992 272.393 50.5212C268.874 54.6477 267.103 60.2022 267.103 67.1712C267.103 71.3007 267.995 74.6382 269.783 77.1927C271.562 79.7472 274.848 81.0192 279.62 81.0192C281.973 81.0192 284.247 80.7732 286.423 80.2932C288.616 79.8072 290.552 79.1952 292.258 78.4722L293.602 92.9262C291.142 93.8698 288.627 94.6632 286.071 95.3022C283.311 95.9772 280.031 96.3252 276.225 96.3252C271.204 96.3252 266.95 95.5917 263.473 94.1427C259.993 92.6742 257.118 90.7227 254.851 88.2507C252.575 85.7727 250.941 82.8777 249.93 79.5582C248.919 76.2387 248.402 72.7482 248.402 69.1137ZM328.272 96.3207C323.981 96.3207 320.252 95.6667 317.09 94.3722C313.938 93.0792 311.328 91.2612 309.261 88.9062C307.191 86.5632 305.644 83.7867 304.584 80.5872C303.524 77.3892 303.014 73.8477 303.014 69.9672C303.014 65.1012 303.794 60.2352 305.375 55.3797C306.948 50.5197 309.28 46.1487 312.364 42.2652C315.428 38.3757 319.208 35.1957 323.654 32.7162C328.098 30.2532 333.208 29.0142 338.952 29.0142C343.165 29.0142 346.871 29.6697 350.078 30.9642C353.268 32.2557 355.896 34.0872 357.973 36.4302C360.028 38.7852 361.591 41.5497 362.638 44.7552C363.697 47.9457 364.219 51.4962 364.219 55.3797C364.219 60.2307 363.448 65.0997 361.92 69.9657C360.388 74.8107 358.116 79.1907 355.116 83.0817C352.122 86.9667 348.38 90.1437 343.882 92.6127C339.393 95.0832 334.183 96.3207 328.272 96.3207ZM337.257 44.3307C334.591 44.3307 332.235 45.1032 330.218 46.6317C328.193 48.1782 326.493 50.1237 325.122 52.4667C323.736 54.8217 322.711 57.3897 322.016 60.1812C321.326 62.9787 320.989 65.6262 320.989 68.1357C320.989 72.1902 321.644 75.3507 322.928 77.6217C324.23 79.8807 326.573 81.0192 329.975 81.0192C332.649 81.0192 334.995 80.2497 337.023 78.7062C339.036 77.1717 340.739 75.2262 342.119 72.8757C343.496 70.5357 344.533 67.9587 345.227 65.1612C345.907 62.3727 346.253 59.7132 346.253 57.2052C346.253 53.1612 345.602 49.9962 344.303 47.7267C343.01 45.4662 340.657 44.3307 337.257 44.3307ZM383.812 94.6272H365.819L381.003 30.7317H399.113L383.812 94.6272ZM392.548 22.9467C390.097 22.9674 387.708 22.1786 385.752 20.7027C383.724 19.2147 382.707 16.9242 382.707 13.8372C382.707 12.1392 383.058 10.5462 383.742 9.04316C384.4 7.58546 385.328 6.26567 386.478 5.15366C387.629 4.05545 388.966 3.17023 390.427 2.53916C391.94 1.89005 393.57 1.56017 395.216 1.57016C397.732 1.57016 400.001 2.31716 402.024 3.81416C404.048 5.31866 405.068 7.60916 405.068 10.6797C405.068 12.3837 404.705 13.9827 404.025 15.4827C403.346 16.9827 402.432 18.2742 401.301 19.3722C400.152 20.4688 398.816 21.3516 397.357 21.9792C395.849 22.6362 394.256 22.9467 392.548 22.9467ZM412.071 33.6372C413.436 33.2382 414.96 32.7582 416.615 32.2362C418.458 31.6649 420.326 31.1823 422.215 30.7902C424.268 30.3402 426.585 29.9727 429.134 29.6892C431.681 29.3997 434.586 29.2587 437.811 29.2587C447.293 29.2587 453.83 32.0202 457.439 37.5267C461.044 43.0332 461.668 50.5677 459.328 60.1212L451.058 94.6212H432.96L440.977 60.8457C441.465 58.7382 441.847 56.6982 442.132 54.7062C442.42 52.7322 442.402 50.9907 442.069 49.4862C441.775 48.0438 440.981 46.7514 439.828 45.8367C438.642 44.9082 436.849 44.4417 434.419 44.4417C432.013 44.4512 429.614 44.6984 427.256 45.1797L415.471 94.6167H397.367L412.071 33.6372Z" fill="white"/>
</g>
<defs>
<linearGradient id="paint0_linear_1_8818" x1="24.3398" y1="47.4536" x2="70.2567" y2="47.4536" gradientUnits="userSpaceOnUse">
<stop stop-color="#588CE4"/>
<stop offset="1" stop-color="#36D1DC"/>
</linearGradient>
<clipPath id="clip0_1_8818">
<rect width="459.743" height="96" fill="white" transform="translate(0.976562 0.335938)"/>
</clipPath>
</defs>
</svg>
