<svg width="105" height="61" viewBox="0 0 105 61" fill="none" xmlns="http://www.w3.org/2000/svg">
<path fill-rule="evenodd" clip-rule="evenodd" d="M10.0129 45.6739C1.85636 37.5173 1.85636 24.2795 10.0129 16.1252C18.1695 7.96867 31.4073 7.96867 39.5616 16.1252C47.718 24.2818 47.718 37.5196 39.5616 45.6739C31.405 53.8305 18.1672 53.8305 10.0129 45.6739ZM38.8393 44.9492C46.5958 37.1929 46.5958 24.6039 38.8393 16.8475C31.0829 9.09115 18.4938 9.09115 10.7375 16.8475C2.98118 24.6039 2.98118 37.1929 10.7375 44.9492C18.4938 52.7056 31.0829 52.7056 38.8393 44.9492Z" fill="white"/>
<path fill-rule="evenodd" clip-rule="evenodd" d="M9.82218 36.4152C9.75088 35.6746 10.2132 35.0052 10.8941 34.789C10.8941 33.9862 10.8941 33.1834 10.8941 32.3806C10.3214 32.1966 9.88198 31.686 9.82218 31.0488C9.75088 30.3082 10.2132 29.6387 10.8941 29.4226C10.8941 28.6198 10.8941 27.817 10.8941 27.0142C10.3214 26.8301 9.88198 26.3196 9.82218 25.6824C9.74167 24.829 10.3673 24.0699 11.2207 23.9894C12.0741 23.9089 12.8332 24.5345 12.9137 25.3879C12.9435 25.6961 12.8792 25.9906 12.748 26.2459C13.8437 27.3393 14.9394 28.4327 16.035 29.5261C16.2076 29.4363 16.3985 29.3765 16.6009 29.3581C16.9091 29.3282 17.2036 29.3904 17.4589 29.5238C18.55 28.432 19.6411 27.34 20.7321 26.2482C20.6447 26.078 20.5872 25.8871 20.5665 25.6847C20.486 24.8313 21.1116 24.0722 21.965 23.9917C22.8184 23.9112 23.5775 24.5368 23.658 25.3902C23.7293 26.1309 23.267 26.8003 22.5861 27.0166C22.5861 27.8193 22.5861 28.6221 22.5861 29.4248C23.1588 29.6066 23.5982 30.1195 23.658 30.7566C23.7293 31.4973 23.267 32.1667 22.5861 32.3829C22.5861 33.1857 22.5861 33.9885 22.5861 34.7913C23.1611 34.9753 23.5982 35.4859 23.6603 36.1231C23.7408 36.9764 23.1152 37.7355 22.2618 37.816C21.4084 37.8965 20.6493 37.2709 20.5688 36.4175C20.4975 35.6768 20.9598 35.0075 21.6407 34.7913C21.6407 33.9885 21.6407 33.1857 21.6407 32.3829C21.068 32.1989 20.6286 31.6883 20.5688 31.0511C20.4975 30.3104 20.9598 29.6411 21.6407 29.4248C21.6407 28.6221 21.6407 27.8193 21.6407 27.0166C21.5579 26.9889 21.4797 26.9567 21.4038 26.9176C20.3127 28.0095 19.2216 29.1013 18.1306 30.1931C18.218 30.3633 18.2755 30.5519 18.2962 30.7566C18.3767 31.61 17.751 32.3691 16.8976 32.4496C16.0442 32.5324 15.2852 31.9045 15.2047 31.0511C15.1748 30.7452 15.2369 30.4507 15.368 30.1954C15.3688 30.1954 15.3696 30.1954 15.3703 30.1954C14.2739 29.1028 13.1774 28.0102 12.081 26.9176C12.0051 26.9567 11.9246 26.9912 11.8418 27.0166C11.8418 27.8193 11.8418 28.6221 11.8418 29.4248C12.4168 29.6089 12.8539 30.1195 12.916 30.7566C12.985 31.4973 12.5249 32.1667 11.8418 32.3829C11.8418 33.1857 11.8418 33.9885 11.8418 34.7913C12.4168 34.9753 12.8539 35.4859 12.916 36.1231C12.9965 36.9764 12.3708 37.7355 11.5174 37.816C10.664 37.8965 9.90498 37.2709 9.82447 36.4175C9.8237 36.4167 9.82295 36.416 9.82218 36.4152ZM25.9283 36.4152C25.857 35.6746 26.3216 35.0075 27.0048 34.7913C27.0048 33.9862 27.0048 33.1811 27.0048 32.376C26.4298 32.1943 25.9904 31.6836 25.9283 31.0464C25.8593 30.3058 26.3216 29.6364 27.0048 29.4226C27.0048 28.6175 27.0048 27.8124 27.0048 27.0073C26.4298 26.8256 25.9904 26.315 25.9283 25.6778C25.8478 24.8267 26.4711 24.0699 27.3222 23.9894C28.0606 23.9204 28.7254 24.3781 28.9416 25.0567C29.7528 25.0567 30.564 25.0567 31.3752 25.0567C31.5592 24.4862 32.0676 24.0492 32.7024 23.9894C33.4408 23.9204 34.1056 24.3781 34.3241 25.0567C35.1292 25.0567 35.9343 25.0567 36.7393 25.0567C36.9233 24.4862 37.4317 24.0492 38.0666 23.9894C38.9177 23.9089 39.6721 24.5323 39.7526 25.3834C39.8332 26.2345 39.2098 26.9912 38.3587 27.0717C37.6226 27.143 36.9556 26.683 36.7393 26.0044C35.9335 26.0044 35.1276 26.0044 34.3218 26.0044C34.1378 26.5749 33.6294 27.0119 32.9946 27.0717C32.2585 27.143 31.5914 26.683 31.3752 26.0044C30.564 26.0044 29.7528 26.0044 28.9416 26.0044C28.7921 26.4713 28.4263 26.8463 27.9502 27.0027C27.9502 27.8116 27.9502 28.6205 27.9502 29.4294C28.4148 29.5812 28.7898 29.9515 28.9416 30.4277C29.7528 30.4277 30.564 30.4277 31.3752 30.4277C31.5592 29.8572 32.0676 29.4202 32.7024 29.3604C33.5535 29.2799 34.308 29.9033 34.3908 30.7544C34.4713 31.6054 33.848 32.3599 32.9969 32.4428C32.2608 32.5118 31.5938 32.0539 31.3775 31.3754C30.5663 31.3754 29.7551 31.3754 28.9439 31.3754C28.7944 31.8423 28.4286 32.2173 27.9525 32.3715C27.9525 33.1804 27.9525 33.9892 27.9525 34.7981C28.5183 34.9844 28.9508 35.4905 29.0106 36.1208C29.0911 36.9719 28.4678 37.7263 27.6167 37.8091C26.7656 37.8896 26.0111 37.2663 25.9283 36.4152Z" fill="white"/>
<path d="M54.3008 36.1919C54.3008 32.7848 54.3008 29.3778 54.3008 25.9707C54.693 25.9707 55.0852 25.9707 55.4774 25.9707C56.7278 27.83 57.9782 29.6893 59.2286 31.5486C60.4789 29.6893 61.7293 27.83 62.9796 25.9707C63.3718 25.9707 63.7639 25.9707 64.1561 25.9707C64.1561 29.3778 64.1561 32.7848 64.1561 36.1919C63.7689 36.1919 63.3816 36.1919 62.9943 36.1919C62.9943 33.4322 62.9943 30.6725 62.9943 27.9127C61.744 29.7379 60.4937 31.5632 59.2434 33.3884C59.2237 33.3884 59.2041 33.3884 59.1844 33.3884C57.9341 31.568 56.6838 29.7477 55.4335 27.9273C55.4335 30.6822 55.4335 33.437 55.4335 36.1919C55.0559 36.1919 54.6784 36.1919 54.3008 36.1919Z" fill="white"/>
<path d="M67.0713 36.1919C67.0713 32.7848 67.0713 29.3778 67.0713 25.9707C69.5376 25.9707 72.004 25.9707 74.4703 25.9707C74.4703 26.326 74.4703 26.6814 74.4703 27.0367C72.3912 27.0367 70.3122 27.0367 68.2331 27.0367C68.2331 28.2535 68.2331 29.4703 68.2331 30.6871C70.0915 30.6871 71.9499 30.6871 73.8083 30.6871C73.8083 31.0375 73.8083 31.388 73.8083 31.7384C71.9499 31.7384 70.0915 31.7384 68.2331 31.7384C68.2331 33.2229 68.2331 34.7074 68.2331 36.1919C67.8458 36.1919 67.4586 36.1919 67.0713 36.1919Z" fill="white"/>
<path d="M76.7246 36.1919C76.7246 32.7848 76.7246 29.3778 76.7246 25.9707C78.0092 25.9707 79.2938 25.9707 80.5784 25.9707C81.7553 25.9707 82.6917 26.2628 83.3882 26.8469C84.0844 27.4309 84.4325 28.2291 84.4325 29.2415C84.4325 30.3026 84.0452 31.1251 83.2703 31.7092C82.5055 32.2933 81.5446 32.5853 80.3874 32.5853C79.5538 32.5853 78.7202 32.5853 77.8865 32.5853C77.8865 33.7875 77.8865 34.9897 77.8865 36.1919C77.4992 36.1919 77.1119 36.1919 76.7246 36.1919ZM77.8865 31.5339C78.7348 31.5339 79.5831 31.5339 80.4313 31.5339C81.2846 31.5339 81.9661 31.3296 82.476 30.9207C82.996 30.5021 83.2556 29.9473 83.2556 29.2561C83.2556 28.5455 83.0057 28.0004 82.5055 27.6207C82.0154 27.2314 81.3433 27.0367 80.4903 27.0367C79.6224 27.0367 78.7545 27.0367 77.8865 27.0367C77.8865 28.5358 77.8865 30.0349 77.8865 31.5339Z" fill="white"/>
<path d="M88.4808 36.3519C87.7059 36.3519 87.0392 36.1426 86.4801 35.724C85.9213 35.3054 85.6418 34.7213 85.6418 33.9718C85.6418 33.1833 85.936 32.5749 86.5243 32.1466C87.1126 31.7183 87.9023 31.5041 88.8926 31.5041C89.6772 31.5041 90.4517 31.6112 91.2166 31.8254C91.2166 31.7475 91.2166 31.6696 91.2166 31.5918C91.2166 30.9298 91.0206 30.4236 90.6283 30.0732C90.236 29.7227 89.6819 29.5475 88.9663 29.5475C88.2209 29.5475 87.451 29.7276 86.6566 30.0877C86.5438 29.7811 86.4311 29.4745 86.3183 29.1678C87.2597 28.7395 88.1817 28.5254 89.0839 28.5254C90.1627 28.5254 90.9815 28.8028 91.5403 29.3577C92.07 29.8833 92.3346 30.6231 92.3346 31.5771C92.3346 33.1151 92.3346 34.6532 92.3346 36.1912C91.962 36.1912 91.5893 36.1912 91.2166 36.1912C91.2166 35.8165 91.2166 35.4417 91.2166 35.0669C90.5402 35.9236 89.6279 36.3519 88.4808 36.3519ZM88.7013 35.4466C89.4075 35.4466 90.0055 35.2567 90.496 34.8771C90.9861 34.4974 91.2313 34.0108 91.2313 33.4169C91.2313 33.1833 91.2313 32.9496 91.2313 32.716C90.4863 32.5019 89.7459 32.3948 89.0101 32.3948C88.314 32.3948 87.7695 32.536 87.3776 32.8183C86.9853 33.0909 86.7889 33.4656 86.7889 33.9426C86.7889 34.4001 86.9706 34.7652 87.3334 35.0377C87.7059 35.3103 88.1619 35.4466 88.7013 35.4466Z" fill="white"/>
<path d="M95.6235 38.5718C95.0744 38.5718 94.535 38.4452 94.0053 38.1921C94.1329 37.8952 94.2604 37.5983 94.3879 37.3014C94.7508 37.4864 95.1477 37.5789 95.5792 37.5789C95.9223 37.5789 96.2118 37.4718 96.447 37.2576C96.6825 37.0532 96.913 36.6882 97.1384 36.1625C95.9862 33.6559 94.8339 31.1492 93.6816 28.6426C94.0984 28.6426 94.5152 28.6426 94.932 28.6426C95.8538 30.7404 96.7758 32.8382 97.6977 34.936C98.5115 32.8382 99.3253 30.7404 100.139 28.6426C100.541 28.6426 100.943 28.6426 101.345 28.6426C100.281 31.2417 99.2175 33.8408 98.1536 36.4399C97.8299 37.209 97.4718 37.7541 97.0795 38.0753C96.6876 38.4063 96.2021 38.5718 95.6235 38.5718Z" fill="white"/>
</svg>
