<svg width="139" height="80" viewBox="0 0 139 80" fill="none" xmlns="http://www.w3.org/2000/svg">
<g clip-path="url(#clip0_1_9074)">
<path fill-rule="evenodd" clip-rule="evenodd" d="M13.2685 60.524C2.45997 49.7154 2.45997 32.1736 13.2685 21.3681C24.0771 10.5596 41.6189 10.5596 52.4244 21.3681C63.2328 32.1767 63.2328 49.7185 52.4244 60.524C41.6158 71.3326 24.074 71.3326 13.2685 60.524ZM51.4673 59.5638C61.7456 49.2856 61.7456 32.6034 51.4673 22.3252C41.1891 12.047 24.5068 12.047 14.2287 22.3252C3.9505 32.6034 3.9505 49.2856 14.2287 59.5638C24.5068 69.842 41.1891 69.842 51.4673 59.5638Z" fill="white"/>
<path fill-rule="evenodd" clip-rule="evenodd" d="M13.0155 48.2564C12.921 47.2749 13.5336 46.3879 14.4359 46.1014C14.4359 45.0376 14.4359 43.9737 14.4359 42.91C13.6769 42.6661 13.0947 41.9895 13.0155 41.1451C12.921 40.1637 13.5336 39.2766 14.4359 38.9902C14.4359 37.9264 14.4359 36.8625 14.4359 35.7987C13.6769 35.5549 13.0947 34.8783 13.0155 34.0339C12.9088 32.9031 13.7378 31.8972 14.8687 31.7905C15.9995 31.6838 17.0054 32.5129 17.1121 33.6437C17.1517 34.0522 17.0664 34.4423 16.8926 34.7807C18.3445 36.2295 19.7964 37.6785 21.2483 39.1273C21.477 39.0084 21.7299 38.9292 21.9982 38.9048C22.4066 38.8652 22.7968 38.9475 23.1351 39.1243C24.5809 37.6775 26.0268 36.2305 27.4726 34.7837C27.3568 34.5581 27.2806 34.3052 27.2531 34.037C27.1464 32.9061 27.9755 31.9002 29.1064 31.7935C30.2372 31.6869 31.2431 32.5159 31.3498 33.6468C31.4443 34.6282 30.8316 35.5154 29.9293 35.8019C29.9293 36.8657 29.9293 37.9294 29.9293 38.9932C30.6883 39.234 31.2705 39.9137 31.3498 40.758C31.4443 41.7395 30.8316 42.6265 29.9293 42.913C29.9293 43.9768 29.9293 45.0406 29.9293 46.1044C30.6913 46.3483 31.2705 47.0249 31.3528 47.8692C31.4595 49.0001 30.6304 50.0059 29.4996 50.1126C28.3687 50.2193 27.3629 49.3902 27.2562 48.2594C27.1617 47.2779 27.7743 46.3909 28.6766 46.1044C28.6766 45.0406 28.6766 43.9768 28.6766 42.913C27.9176 42.6691 27.3354 41.9925 27.2562 41.1482C27.1617 40.1667 27.7743 39.2797 28.6766 38.9932C28.6766 37.9294 28.6766 36.8657 28.6766 35.8019C28.5669 35.7653 28.4632 35.7226 28.3626 35.6708C26.9168 37.1176 25.471 38.5644 24.0252 40.0112C24.141 40.2368 24.2173 40.4867 24.2446 40.758C24.3513 41.8888 23.5222 42.8948 22.3914 43.0014C21.2605 43.1111 20.2547 42.279 20.148 41.1482C20.1084 40.7428 20.1907 40.3526 20.3644 40.0143C20.3654 40.0143 20.3665 40.0143 20.3675 40.0143C18.9146 38.5664 17.4616 37.1186 16.0087 35.6708C15.9081 35.7226 15.8014 35.7683 15.6917 35.8019C15.6917 36.8657 15.6917 37.9294 15.6917 38.9932C16.4537 39.2371 17.0329 39.9137 17.1152 40.758C17.2066 41.7395 16.597 42.6265 15.6917 42.913C15.6917 43.9768 15.6917 45.0406 15.6917 46.1044C16.4537 46.3483 17.0329 47.0249 17.1152 47.8692C17.2219 49.0001 16.3927 50.0059 15.2619 50.1126C14.131 50.2193 13.1252 49.3902 13.0185 48.2594C13.0175 48.2584 13.0165 48.2574 13.0155 48.2564ZM34.3582 48.2564C34.2638 47.2749 34.8794 46.3909 35.7847 46.1044C35.7847 45.0376 35.7847 43.9707 35.7847 42.9039C35.0227 42.6631 34.4405 41.9863 34.3582 41.142C34.2668 40.1605 34.8794 39.2736 35.7847 38.9902C35.7847 37.9233 35.7847 36.8565 35.7847 35.7897C35.0227 35.5488 34.4405 34.8722 34.3582 34.0279C34.2516 32.9001 35.0776 31.8972 36.2054 31.7905C37.1838 31.6991 38.0647 32.3056 38.3512 33.2048C39.4262 33.2048 40.5011 33.2048 41.5761 33.2048C41.82 32.4489 42.4936 31.8698 43.3348 31.7905C44.3133 31.6991 45.1942 32.3056 45.4838 33.2048C46.5506 33.2048 47.6174 33.2048 48.6843 33.2048C48.9281 32.4489 49.6018 31.8698 50.443 31.7905C51.5708 31.6838 52.5706 32.5099 52.6773 33.6377C52.784 34.7655 51.9579 35.7682 50.8301 35.8749C49.8547 35.9694 48.9708 35.3598 48.6843 34.4606C47.6164 34.4606 46.5486 34.4606 45.4807 34.4606C45.2369 35.2166 44.5632 35.7957 43.7219 35.8749C42.7466 35.9694 41.8626 35.3598 41.5761 34.4606C40.5011 34.4606 39.4262 34.4606 38.3512 34.4606C38.1531 35.0794 37.6684 35.5762 37.0375 35.7835C37.0375 36.8554 37.0375 37.9273 37.0375 38.9992C37.6532 39.2004 38.15 39.6911 38.3512 40.3221C39.4262 40.3221 40.5011 40.3221 41.5761 40.3221C41.82 39.5661 42.4936 38.9871 43.3348 38.9078C44.4626 38.8011 45.4624 39.6272 45.5721 40.755C45.6788 41.8827 44.8528 42.8826 43.725 42.9923C42.7497 43.0838 41.8657 42.4771 41.5792 41.5779C40.5042 41.5779 39.4293 41.5779 38.3543 41.5779C38.1562 42.1967 37.6715 42.6936 37.0405 42.8979C37.0405 43.9698 37.0405 45.0416 37.0405 46.1135C37.7904 46.3604 38.3634 47.031 38.4427 47.8662C38.5493 48.994 37.7233 49.9937 36.5955 50.1034C35.4677 50.2101 34.468 49.3842 34.3582 48.2564Z" fill="white"/>
<path d="M71.9551 47.9585C71.9551 43.4437 71.9551 38.9289 71.9551 34.4141C72.4748 34.4141 72.9945 34.4141 73.5142 34.4141C75.1712 36.8779 76.8282 39.3417 78.4851 41.8055C80.142 39.3417 81.7988 36.8779 83.4556 34.4141C83.9753 34.4141 84.495 34.4141 85.0147 34.4141C85.0147 38.9289 85.0147 43.4437 85.0147 47.9585C84.5015 47.9585 83.9884 47.9585 83.4752 47.9585C83.4752 44.3015 83.4752 40.6445 83.4752 36.9875C81.8183 39.4062 80.1615 41.8248 78.5047 44.2435C78.4786 44.2435 78.4526 44.2435 78.4266 44.2435C76.7697 41.8313 75.1129 39.419 73.4561 37.0068C73.4561 40.6574 73.4561 44.308 73.4561 47.9585C72.9558 47.9585 72.4554 47.9585 71.9551 47.9585Z" fill="white"/>
<path d="M88.8782 47.9565C88.8782 43.4417 88.8782 38.9269 88.8782 34.4121C92.1464 34.4121 95.4146 34.4121 98.6828 34.4121C98.6828 34.8829 98.6828 35.3538 98.6828 35.8247C95.9278 35.8247 93.1728 35.8247 90.4178 35.8247C90.4178 37.4371 90.4178 39.0496 90.4178 40.662C92.8804 40.662 95.343 40.662 97.8056 40.662C97.8056 41.1264 97.8056 41.5907 97.8056 42.0551C95.343 42.0551 92.8804 42.0551 90.4178 42.0551C90.4178 44.0223 90.4178 45.9894 90.4178 47.9565C89.9046 47.9565 89.3914 47.9565 88.8782 47.9565Z" fill="white"/>
<path d="M101.67 47.9565C101.67 43.4417 101.67 38.9269 101.67 34.4121C103.372 34.4121 105.074 34.4121 106.777 34.4121C108.336 34.4121 109.577 34.7991 110.5 35.5731C111.423 36.3471 111.884 37.4048 111.884 38.7464C111.884 40.1524 111.371 41.2424 110.344 42.0164C109.33 42.7903 108.057 43.1774 106.524 43.1774C105.419 43.1774 104.314 43.1774 103.21 43.1774C103.21 44.7705 103.21 46.3635 103.21 47.9565C102.696 47.9565 102.183 47.9565 101.67 47.9565ZM103.21 41.7842C104.334 41.7842 105.458 41.7842 106.582 41.7842C107.713 41.7842 108.616 41.5133 109.291 40.9716C109.98 40.4168 110.324 39.6816 110.324 38.7657C110.324 37.824 109.993 37.1017 109.33 36.5986C108.681 36.0827 107.79 35.8247 106.66 35.8247C105.51 35.8247 104.36 35.8247 103.21 35.8247C103.21 37.8112 103.21 39.7977 103.21 41.7842Z" fill="white"/>
<path d="M117.248 48.17C116.222 48.17 115.338 47.8927 114.597 47.338C113.857 46.7833 113.486 46.0093 113.486 45.016C113.486 43.9711 113.876 43.165 114.656 42.5974C115.435 42.0299 116.482 41.746 117.794 41.746C118.834 41.746 119.86 41.8879 120.874 42.1718C120.874 42.0686 120.874 41.9654 120.874 41.8622C120.874 40.985 120.614 40.3142 120.094 39.8498C119.574 39.3855 118.84 39.1532 117.892 39.1532C116.904 39.1532 115.884 39.3919 114.831 39.8691C114.682 39.4628 114.532 39.0565 114.383 38.6502C115.63 38.0826 116.852 37.7988 118.048 37.7988C119.477 37.7988 120.562 38.1664 121.303 38.9017C122.005 39.5983 122.355 40.5786 122.355 41.8428C122.355 43.8809 122.355 45.919 122.355 47.9571C121.861 47.9571 121.368 47.9571 120.874 47.9571C120.874 47.4605 120.874 46.9638 120.874 46.4672C119.977 47.6024 118.769 48.17 117.248 48.17ZM117.541 46.9703C118.476 46.9703 119.269 46.7187 119.919 46.2157C120.568 45.7126 120.893 45.0677 120.893 44.2808C120.893 43.9712 120.893 43.6616 120.893 43.352C119.906 43.0682 118.925 42.9263 117.95 42.9263C117.027 42.9263 116.306 43.1134 115.787 43.4875C115.267 43.8487 115.006 44.3453 115.006 44.9774C115.006 45.5837 115.247 46.0674 115.728 46.4286C116.222 46.7898 116.826 46.9703 117.541 46.9703Z" fill="white"/>
<path d="M126.714 51.1106C125.986 51.1106 125.271 50.9429 124.57 50.6075C124.739 50.2141 124.908 49.8207 125.077 49.4273C125.557 49.6723 126.083 49.7949 126.655 49.7949C127.11 49.7949 127.493 49.653 127.805 49.3692C128.117 49.0983 128.423 48.6146 128.721 47.918C127.194 44.5964 125.668 41.2747 124.141 37.9531C124.693 37.9531 125.245 37.9531 125.797 37.9531C127.019 40.733 128.241 43.5129 129.462 46.2927C130.541 43.5129 131.619 40.733 132.698 37.9531C133.231 37.9531 133.763 37.9531 134.296 37.9531C132.886 41.3973 131.476 44.8415 130.067 48.2857C129.638 49.3047 129.163 50.0271 128.643 50.4528C128.124 50.8913 127.481 51.1106 126.714 51.1106Z" fill="white"/>
</g>
<defs>
<clipPath id="clip0_1_9074">
<rect width="138.77" height="80" fill="white"/>
</clipPath>
</defs>
</svg>
