<svg width="99" height="57" viewBox="0 0 99 57" fill="none" xmlns="http://www.w3.org/2000/svg">
<g clip-path="url(#clip0_1_4415)">
<g clip-path="url(#clip1_1_4415)">
<path fill-rule="evenodd" clip-rule="evenodd" d="M9.43546 43.0404C1.74938 35.3543 1.74938 22.8801 9.43546 15.1962C17.1215 7.51012 29.5957 7.51012 37.2796 15.1962C44.9656 22.8823 44.9656 35.3564 37.2796 43.0404C29.5935 50.7265 17.1194 50.7265 9.43546 43.0404ZM36.599 42.3575C43.9081 35.0486 43.9081 23.1857 36.599 15.8768C29.2901 8.56786 17.4272 8.56786 10.1182 15.8768C2.80931 23.1857 2.80931 35.0486 10.1182 42.3575C17.4272 49.6665 29.2901 49.6665 36.599 42.3575Z" fill="white"/>
<path fill-rule="evenodd" clip-rule="evenodd" d="M9.2556 34.3152C9.18841 33.6173 9.62409 32.9866 10.2657 32.7828C10.2657 32.0263 10.2657 31.2698 10.2657 30.5134C9.72598 30.34 9.31196 29.8588 9.2556 29.2584C9.18841 28.5605 9.62409 27.9297 10.2657 27.7259C10.2657 26.9695 10.2657 26.213 10.2657 25.4565C9.72598 25.2831 9.31196 24.8019 9.2556 24.2015C9.17974 23.3974 9.76929 22.6821 10.5734 22.6062C11.3776 22.5303 12.0929 23.1199 12.1688 23.924C12.1969 24.2145 12.1362 24.4919 12.0127 24.7325C13.0452 25.7628 14.0776 26.7932 15.1101 27.8235C15.2727 27.7389 15.4526 27.6826 15.6433 27.6652C15.9338 27.6371 16.2112 27.6956 16.4518 27.8213C17.4799 26.7925 18.5081 25.7635 19.5362 24.7347C19.4539 24.5743 19.3997 24.3944 19.3802 24.2037C19.3043 23.3995 19.8939 22.6842 20.698 22.6084C21.5022 22.5325 22.2175 23.122 22.2933 23.9262C22.3605 24.6241 21.9248 25.255 21.2832 25.4587C21.2832 26.2152 21.2832 26.9716 21.2832 27.7281C21.823 27.8993 22.237 28.3827 22.2933 28.9831C22.3605 29.681 21.9248 30.3118 21.2832 30.5155C21.2832 31.272 21.2832 32.0285 21.2832 32.785C21.8251 32.9584 22.237 33.4395 22.2955 34.0399C22.3714 34.8441 21.7818 35.5594 20.9776 35.6352C20.1735 35.7111 19.4582 35.1216 19.3823 34.3174C19.3151 33.6194 19.7508 32.9887 20.3924 32.785C20.3924 32.0285 20.3924 31.272 20.3924 30.5155C19.8527 30.3421 19.4387 29.8609 19.3823 29.2605C19.3151 28.5626 19.7508 27.9318 20.3924 27.7281C20.3924 26.9716 20.3924 26.2152 20.3924 25.4587C20.3144 25.4327 20.2407 25.4024 20.1691 25.3655C19.141 26.3944 18.1129 27.4232 17.0847 28.452C17.1671 28.6124 17.2213 28.7902 17.2408 28.9831C17.3167 29.7872 16.7271 30.5025 15.9229 30.5784C15.1188 30.6564 14.4035 30.0647 14.3276 29.2605C14.2995 28.9723 14.358 28.6948 14.4815 28.4542C14.4822 28.4542 14.483 28.4542 14.4837 28.4542C13.4505 27.4246 12.4173 26.3951 11.3841 25.3655C11.3126 25.4024 11.2367 25.4349 11.1587 25.4587C11.1587 26.2152 11.1587 26.9716 11.1587 27.7281C11.7006 27.9015 12.1124 28.3827 12.171 28.9831C12.236 29.681 11.8025 30.3118 11.1587 30.5155C11.1587 31.272 11.1587 32.0285 11.1587 32.785C11.7006 32.9584 12.1124 33.4395 12.171 34.0399C12.2468 34.8441 11.6572 35.5594 10.8531 35.6352C10.0489 35.7111 9.33362 35.1216 9.25776 34.3174C9.25703 34.3167 9.25633 34.316 9.2556 34.3152ZM24.4327 34.3152C24.3655 33.6173 24.8033 32.9887 25.4471 32.785C25.4471 32.0263 25.4471 31.2677 25.4471 30.5091C24.9052 30.3378 24.4912 29.8566 24.4327 29.2561C24.3677 28.5582 24.8033 27.9275 25.4471 27.7259C25.4471 26.9673 25.4471 26.2087 25.4471 25.45C24.9052 25.2788 24.4912 24.7976 24.4327 24.1972C24.3568 23.3952 24.9442 22.6821 25.7462 22.6062C26.442 22.5412 27.0684 22.9725 27.2721 23.6119C28.0366 23.6119 28.801 23.6119 29.5654 23.6119C29.7388 23.0744 30.2178 22.6626 30.8161 22.6062C31.5119 22.5412 32.1383 22.9725 32.3442 23.6119C33.1028 23.6119 33.8615 23.6119 34.6201 23.6119C34.7935 23.0744 35.2725 22.6626 35.8708 22.6062C36.6728 22.5303 37.3837 23.1178 37.4596 23.9197C37.5355 24.7217 36.948 25.4348 36.146 25.5107C35.4524 25.5779 34.8239 25.1444 34.6201 24.505C33.8607 24.505 33.1014 24.505 32.342 24.505C32.1686 25.0425 31.6896 25.4543 31.0913 25.5107C30.3977 25.5779 29.7691 25.1444 29.5654 24.505C28.801 24.505 28.0366 24.505 27.2721 24.505C27.1313 24.945 26.7866 25.2983 26.3379 25.4457C26.3379 26.2079 26.3379 26.9702 26.3379 27.7324C26.7758 27.8755 27.1291 28.2244 27.2721 28.6731C28.0366 28.6731 28.801 28.6731 29.5654 28.6731C29.7388 28.1355 30.2178 27.7238 30.8161 27.6674C31.618 27.5915 32.329 28.1789 32.407 28.9809C32.4829 29.7829 31.8955 30.4939 31.0935 30.5719C30.3999 30.637 29.7713 30.2055 29.5676 29.5661C28.8032 29.5661 28.0388 29.5661 27.2743 29.5661C27.1334 30.0061 26.7888 30.3595 26.3401 30.5048C26.3401 31.267 26.3401 32.0292 26.3401 32.7914C26.8733 32.967 27.2808 33.4439 27.3372 34.0378C27.413 34.8398 26.8257 35.5507 26.0237 35.6287C25.2217 35.7046 24.5107 35.1172 24.4327 34.3152Z" fill="white"/>
<path d="M51.1687 34.1023C51.1687 30.8918 51.1687 27.6812 51.1687 24.4707C51.5383 24.4707 51.9078 24.4707 52.2774 24.4707C53.4557 26.2227 54.634 27.9748 55.8123 29.7269C56.9905 27.9748 58.1687 26.2227 59.3469 24.4707C59.7164 24.4707 60.086 24.4707 60.4556 24.4707C60.4556 27.6812 60.4556 30.8918 60.4556 34.1023C60.0906 34.1023 59.7257 34.1023 59.3608 34.1023C59.3608 31.5018 59.3608 28.9012 59.3608 26.3007C58.1826 28.0206 57.0044 29.7406 55.8262 31.4605C55.8077 31.4605 55.7892 31.4605 55.7707 31.4605C54.5925 29.7452 53.4143 28.0298 52.2361 26.3144C52.2361 28.9104 52.2361 31.5064 52.2361 34.1023C51.8803 34.1023 51.5245 34.1023 51.1687 34.1023Z" fill="white"/>
<path d="M63.2026 34.1023C63.2026 30.8918 63.2026 27.6812 63.2026 24.4707C65.5267 24.4707 67.8508 24.4707 70.1748 24.4707C70.1748 24.8055 70.1748 25.1404 70.1748 25.4752C68.2157 25.4752 66.2566 25.4752 64.2974 25.4752C64.2974 26.6218 64.2974 27.7684 64.2974 28.9151C66.0486 28.9151 67.7998 28.9151 69.551 28.9151C69.551 29.2453 69.551 29.5755 69.551 29.9057C67.7998 29.9057 66.0486 29.9057 64.2974 29.9057C64.2974 31.3046 64.2974 32.7034 64.2974 34.1023C63.9325 34.1023 63.5676 34.1023 63.2026 34.1023Z" fill="white"/>
<path d="M72.2991 34.1023C72.2991 30.8918 72.2991 27.6812 72.2991 24.4707C73.5096 24.4707 74.7201 24.4707 75.9305 24.4707C77.0396 24.4707 77.922 24.7459 78.5783 25.2963C79.2343 25.8467 79.5624 26.5989 79.5624 27.5529C79.5624 28.5527 79.1974 29.3278 78.4672 29.8782C77.7465 30.4286 76.841 30.7038 75.7506 30.7038C74.965 30.7038 74.1795 30.7038 73.394 30.7038C73.394 31.8366 73.394 32.9694 73.394 34.1023C73.029 34.1023 72.664 34.1023 72.2991 34.1023ZM73.394 29.713C74.1933 29.713 74.9926 29.713 75.792 29.713C76.5961 29.713 77.2382 29.5205 77.7187 29.1352C78.2087 28.7407 78.4533 28.2179 78.4533 27.5666C78.4533 26.897 78.2178 26.3833 77.7465 26.0256C77.2846 25.6587 76.6513 25.4752 75.8476 25.4752C75.0297 25.4752 74.2118 25.4752 73.394 25.4752C73.394 26.8878 73.394 28.3004 73.394 29.713Z" fill="white"/>
<path d="M83.3771 34.254C82.6469 34.254 82.0187 34.0567 81.4918 33.6623C80.9652 33.2679 80.7019 32.7174 80.7019 32.0111C80.7019 31.2681 80.9791 30.6948 81.5335 30.2912C82.0878 29.8876 82.8319 29.6858 83.7651 29.6858C84.5045 29.6858 85.2343 29.7867 85.9551 29.9885C85.9551 29.9152 85.9551 29.8418 85.9551 29.7684C85.9551 29.1446 85.7704 28.6676 85.4007 28.3374C85.031 28.0072 84.5089 27.842 83.8346 27.842C83.1322 27.842 82.4067 28.0117 81.6581 28.3511C81.5519 28.0622 81.4456 27.7733 81.3393 27.4843C82.2264 27.0807 83.0952 26.8789 83.9454 26.8789C84.9619 26.8789 85.7335 27.1403 86.2601 27.6632C86.7592 28.1585 87.0086 28.8556 87.0086 29.7546C87.0086 31.2039 87.0086 32.6532 87.0086 34.1026C86.6575 34.1026 86.3062 34.1026 85.9551 34.1026C85.9551 33.7494 85.9551 33.3962 85.9551 33.0431C85.3177 33.8503 84.4581 34.254 83.3771 34.254ZM83.5849 33.4009C84.2504 33.4009 84.8139 33.2219 85.2761 32.8642C85.7379 32.5065 85.969 32.0479 85.969 31.4883C85.969 31.2681 85.969 31.048 85.969 30.8278C85.2669 30.626 84.5692 30.5251 83.8759 30.5251C83.2199 30.5251 82.7069 30.6582 82.3375 30.9242C81.9678 31.181 81.7828 31.5342 81.7828 31.9837C81.7828 32.4148 81.954 32.7588 82.2959 33.0156C82.6469 33.2725 83.0766 33.4009 83.5849 33.4009Z" fill="white"/>
<path d="M90.1077 36.3467C89.5903 36.3467 89.082 36.2274 88.5828 35.9889C88.703 35.7091 88.8232 35.4294 88.9434 35.1496C89.2853 35.3239 89.6594 35.411 90.066 35.411C90.3892 35.411 90.662 35.3101 90.8837 35.1083C91.1056 34.9157 91.3228 34.5717 91.5352 34.0764C90.4494 31.7144 89.3636 29.3523 88.2778 26.9902C88.6706 26.9902 89.0633 26.9902 89.456 26.9902C90.3247 28.967 91.1935 30.9438 92.0622 32.9206C92.8291 30.9438 93.596 28.967 94.3629 26.9902C94.7418 26.9902 95.1206 26.9902 95.4994 26.9902C94.4969 29.4394 93.4943 31.8886 92.4918 34.3378C92.1868 35.0625 91.8494 35.5762 91.4797 35.8789C91.1104 36.1907 90.6529 36.3467 90.1077 36.3467Z" fill="white"/>
</g>
</g>
<defs>
<clipPath id="clip0_1_4415">
<rect width="98.6809" height="56.8889" fill="white"/>
</clipPath>
<clipPath id="clip1_1_4415">
<rect width="98.6809" height="56.8889" fill="white"/>
</clipPath>
</defs>
</svg>
