<svg width="297" height="172" viewBox="0 0 297 172" fill="none" xmlns="http://www.w3.org/2000/svg">
<g clip-path="url(#clip0_1_8901)">
<g clip-path="url(#clip1_1_8901)">
<path fill-rule="evenodd" clip-rule="evenodd" d="M28.3059 129.518C5.24764 106.459 5.24764 69.0368 28.3059 45.9851C51.3641 22.9268 88.7866 22.9268 111.838 45.9851C134.896 69.0433 134.896 106.466 111.838 129.518C88.7801 152.576 51.3576 152.576 28.3059 129.518ZM109.797 127.469C131.724 105.542 131.724 69.9537 109.797 48.0269C87.8698 26.1001 52.281 26.1001 30.3543 48.0269C8.42744 69.9537 8.42744 105.542 30.3543 127.469C52.281 149.396 87.8698 149.396 109.797 127.469Z" fill="white"/>
<path fill-rule="evenodd" clip-rule="evenodd" d="M27.7664 103.346C27.5649 101.252 28.8719 99.3601 30.7967 98.7488C30.7967 96.4794 30.7967 94.2099 30.7967 91.9405C29.1776 91.4203 27.9355 89.9768 27.7664 88.1755C27.5649 86.0817 28.8719 84.1894 30.7967 83.5782C30.7967 81.3088 30.7967 79.0393 30.7967 76.7699C29.1776 76.2496 27.9355 74.8062 27.7664 73.0049C27.5388 70.5925 29.3075 68.4466 31.72 68.219C34.1325 67.9914 36.2783 69.7601 36.5059 72.1725C36.5904 73.0438 36.4084 73.8762 36.0377 74.598C39.1351 77.6889 42.2325 80.7799 45.3299 83.8708C45.8176 83.6172 46.3573 83.4481 46.9295 83.3961C47.8009 83.3116 48.6333 83.4872 49.355 83.8644C52.4394 80.7778 55.5239 77.691 58.6084 74.6045C58.3612 74.1232 58.1987 73.5836 58.1402 73.0114C57.9126 70.5989 59.6812 68.4531 62.0937 68.2255C64.5062 67.9979 66.652 69.7665 66.8796 72.179C67.0812 74.2728 65.7742 76.1653 63.8493 76.7766C63.8493 79.0459 63.8493 81.3153 63.8493 83.5847C65.4685 84.0984 66.7106 85.5485 66.8796 87.3496C67.0812 89.4435 65.7742 91.3357 63.8493 91.9469C63.8493 94.2163 63.8493 96.4859 63.8493 98.7553C65.475 99.2755 66.7105 100.719 66.8861 102.52C67.1137 104.933 65.345 107.079 62.9326 107.306C60.5201 107.534 58.3742 105.765 58.1466 103.353C57.945 101.259 59.2521 99.3665 61.1769 98.7553C61.1769 96.4859 61.1769 94.2163 61.1769 91.9469C59.5578 91.4267 58.3157 89.9832 58.1466 88.182C57.945 86.0882 59.2521 84.1959 61.1769 83.5847C61.1769 81.3153 61.1769 79.0459 61.1769 76.7766C60.9428 76.6985 60.7217 76.6075 60.5071 76.4969C57.4227 79.5834 54.3383 82.6699 51.2539 85.7565C51.5009 86.2376 51.6636 86.7709 51.7221 87.3496C51.9497 89.7621 50.1809 91.908 47.7684 92.1355C45.3559 92.3696 43.2101 90.5945 42.9825 88.182C42.898 87.3172 43.0736 86.4847 43.4442 85.763C43.4464 85.763 43.4486 85.763 43.4508 85.763C40.3512 82.6742 37.2516 79.5856 34.152 76.4969C33.9374 76.6075 33.7099 76.705 33.4757 76.7766C33.4757 79.0459 33.4757 81.3153 33.4757 83.5847C35.1014 84.1049 36.3369 85.5485 36.5125 87.3496C36.7076 89.4435 35.407 91.3357 33.4757 91.9469C33.4757 94.2163 33.4757 96.4859 33.4757 98.7553C35.1014 99.2755 36.3369 100.719 36.5125 102.52C36.7401 104.933 34.9713 107.079 32.5588 107.306C30.1464 107.534 28.0005 105.765 27.7729 103.353C27.7707 103.35 27.7686 103.348 27.7664 103.346ZM73.2977 103.346C73.0962 101.252 74.4096 99.3665 76.3408 98.7553C76.3408 96.4794 76.3408 94.2034 76.3408 91.9275C74.7152 91.4138 73.4733 89.9701 73.2977 88.1688C73.1027 86.075 74.4096 84.1829 76.3408 83.5782C76.3408 81.3023 76.3408 79.0264 76.3408 76.7505C74.7152 76.2367 73.4733 74.7933 73.2977 72.992C73.0701 70.5861 74.8323 68.4466 77.2382 68.219C79.3255 68.0239 81.2048 69.3178 81.8161 71.2361C84.1093 71.2361 86.4026 71.2361 88.6958 71.2361C89.2161 69.6235 90.6531 68.3881 92.4478 68.219C94.5352 68.0239 96.4145 69.3178 97.0322 71.2361C99.3081 71.2361 101.584 71.2361 103.86 71.2361C104.38 69.6235 105.817 68.3881 107.612 68.219C110.018 67.9914 112.151 69.7537 112.378 72.1596C112.606 74.5656 110.844 76.7048 108.438 76.9324C106.357 77.134 104.471 75.8335 103.86 73.9153C101.582 73.9153 99.3037 73.9153 97.0256 73.9153C96.5055 75.5279 95.0684 76.7634 93.2736 76.9324C91.1929 77.134 89.307 75.8335 88.6958 73.9153C86.4026 73.9153 84.1093 73.9153 81.8161 73.9153C81.3934 75.2353 80.3595 76.2951 79.0135 76.7373C79.0135 79.0241 79.0135 81.3108 79.0135 83.5976C80.327 84.0268 81.3869 85.0736 81.8161 86.4197C84.1093 86.4197 86.4026 86.4197 88.6958 86.4197C89.2161 84.807 90.6531 83.5717 92.4478 83.4025C94.8538 83.175 96.9867 84.9372 97.2207 87.3431C97.4483 89.749 95.6862 91.8821 93.2802 92.1162C91.1994 92.3112 89.3136 91.017 88.7024 89.0988C86.4091 89.0988 84.1159 89.0988 81.8227 89.0988C81.4 90.4188 80.366 91.479 79.0199 91.9146C79.0199 94.2014 79.0199 96.4879 79.0199 98.7746C80.6196 99.3013 81.8421 100.732 82.0111 102.514C82.2388 104.92 80.4766 107.052 78.0706 107.287C75.6647 107.514 73.5318 105.752 73.2977 103.346Z" fill="white"/>
<path d="M153.504 102.709C153.504 93.0777 153.504 83.446 153.504 73.8145C154.612 73.8145 155.721 73.8145 156.83 73.8145C160.365 79.0706 163.9 84.3268 167.434 89.5829C170.969 84.3268 174.504 79.0706 178.038 73.8145C179.147 73.8145 180.256 73.8145 181.364 73.8145C181.364 83.446 181.364 93.0777 181.364 102.709C180.269 102.709 179.175 102.709 178.08 102.709C178.08 94.9077 178.08 87.1061 178.08 79.3045C174.545 84.4643 171.011 89.624 167.476 94.7838C167.421 94.7838 167.365 94.7838 167.31 94.7838C163.775 89.6378 160.24 84.4917 156.706 79.3457C156.706 87.1335 156.706 94.9214 156.706 102.709C155.638 102.709 154.571 102.709 153.504 102.709Z" fill="white"/>
<path d="M189.606 102.709C189.606 93.0777 189.606 83.446 189.606 73.8145C196.578 73.8145 203.551 73.8145 210.523 73.8145C210.523 74.8189 210.523 75.8234 210.523 76.8279C204.645 76.8279 198.768 76.8279 192.891 76.8279C192.891 80.2677 192.891 83.7077 192.891 87.1475C198.144 87.1475 203.398 87.1475 208.651 87.1475C208.651 88.1382 208.651 89.1288 208.651 90.1195C203.398 90.1195 198.144 90.1195 192.891 90.1195C192.891 94.3161 192.891 98.5126 192.891 102.709C191.796 102.709 190.701 102.709 189.606 102.709Z" fill="white"/>
<path d="M216.896 102.709C216.896 93.0777 216.896 83.446 216.896 73.8145C220.527 73.8145 224.158 73.8145 227.79 73.8145C231.117 73.8145 233.764 74.6401 235.733 76.2913C237.701 77.9424 238.685 80.199 238.685 83.061C238.685 86.0605 237.591 88.3858 235.4 90.0368C233.238 91.688 230.521 92.5137 227.25 92.5137C224.893 92.5137 222.537 92.5137 220.18 92.5137C220.18 95.9123 220.18 99.3107 220.18 102.709C219.085 102.709 217.99 102.709 216.896 102.709ZM220.18 89.5415C222.578 89.5415 224.976 89.5415 227.374 89.5415C229.787 89.5415 231.713 88.9637 233.154 87.8079C234.624 86.6246 235.358 85.056 235.358 83.1022C235.358 81.0932 234.652 79.5523 233.238 78.479C231.852 77.3783 229.952 76.8279 227.541 76.8279C225.087 76.8279 222.634 76.8279 220.18 76.8279C220.18 81.0657 220.18 85.3036 220.18 89.5415Z" fill="white"/>
<path d="M250.13 103.164C247.939 103.164 246.055 102.573 244.474 101.389C242.894 100.206 242.104 98.5547 242.104 96.4358C242.104 94.2067 242.936 92.4869 244.599 91.2761C246.262 90.0652 248.494 89.4596 251.294 89.4596C253.512 89.4596 255.702 89.7625 257.864 90.368C257.864 90.1478 257.864 89.9277 257.864 89.7076C257.864 87.8363 257.31 86.4052 256.201 85.4145C255.092 84.4239 253.525 83.9284 251.502 83.9284C249.395 83.9284 247.219 84.4375 244.973 85.4557C244.654 84.5889 244.335 83.7221 244.016 82.8553C246.678 81.6444 249.284 81.0391 251.835 81.0391C254.884 81.0391 257.199 81.8233 258.779 83.3918C260.276 84.8779 261.024 86.9692 261.024 89.6661C261.024 94.0141 261.024 98.3621 261.024 102.71C259.971 102.71 258.917 102.71 257.864 102.71C257.864 101.651 257.864 100.591 257.864 99.5316C255.952 101.953 253.373 103.164 250.13 103.164ZM250.753 100.605C252.75 100.605 254.44 100.068 255.827 98.995C257.212 97.9217 257.905 96.546 257.905 94.8672C257.905 94.2068 257.905 93.5462 257.905 92.8858C255.799 92.2804 253.706 91.9777 251.626 91.9777C249.658 91.9777 248.119 92.3768 247.011 93.1749C245.902 93.9454 245.347 95.0049 245.347 96.3534C245.347 97.6467 245.861 98.6786 246.886 99.4492C247.939 100.22 249.228 100.605 250.753 100.605Z" fill="white"/>
<path d="M270.323 109.438C268.771 109.438 267.246 109.081 265.749 108.365C266.109 107.526 266.47 106.687 266.83 105.847C267.856 106.37 268.978 106.632 270.198 106.632C271.168 106.632 271.986 106.329 272.651 105.723C273.317 105.146 273.969 104.114 274.606 102.628C271.349 95.5415 268.091 88.4553 264.834 81.3691C266.012 81.3691 267.19 81.3691 268.368 81.3691C270.974 87.2995 273.581 93.23 276.187 99.1603C278.488 93.23 280.788 87.2995 283.089 81.3691C284.225 81.3691 285.362 81.3691 286.499 81.3691C283.491 88.7167 280.483 96.0644 277.476 103.412C276.561 105.586 275.548 107.127 274.439 108.035C273.331 108.971 271.959 109.438 270.323 109.438Z" fill="white"/>
</g>
</g>
<defs>
<clipPath id="clip0_1_8901">
<rect width="296.043" height="170.667" fill="white" transform="translate(0 0.400391)"/>
</clipPath>
<clipPath id="clip1_1_8901">
<rect width="296.043" height="170.667" fill="white" transform="translate(-0.00012207 0.400391)"/>
</clipPath>
</defs>
</svg>
