<svg width="45" height="99" viewBox="0 0 45 99" fill="none" xmlns="http://www.w3.org/2000/svg">
<path fill-rule="evenodd" clip-rule="evenodd" d="M29.999 8.33449C29.9821 6.84633 30.4085 5.38852 31.2225 4.14305C32.0366 2.89927 33.2028 1.92344 34.573 1.34368C35.9432 0.763926 37.4549 0.603813 38.9144 0.885265C40.3756 1.16672 41.7205 1.87627 42.7772 2.92287C43.8339 3.96946 44.5552 5.30762 44.8485 6.76544C45.1434 8.22494 44.9968 9.73666 44.4305 11.1119C43.8626 12.4871 42.8986 13.6619 41.6615 14.4877C40.4245 15.3135 38.9683 15.7533 37.4819 15.75C35.5066 15.755 33.6106 14.9764 32.2084 13.5877C30.8062 12.1973 30.0124 10.308 29.999 8.33449Z" fill="#DCE9F8"/>
<path fill-rule="evenodd" clip-rule="evenodd" d="M29.999 35.8345C29.9821 34.3463 30.4085 32.8885 31.2225 31.643C32.0366 30.3993 33.2028 29.4234 34.573 28.8437C35.9432 28.2639 37.4549 28.1038 38.9144 28.3853C40.3756 28.6667 41.7205 29.3763 42.7772 30.4229C43.8339 31.4695 44.5552 32.8076 44.8485 34.2654C45.1434 35.7249 44.9968 37.2367 44.4305 38.6119C43.8626 39.9871 42.8986 41.1619 41.6615 41.9877C40.4245 42.8135 38.9683 43.2533 37.4819 43.25C35.5066 43.255 33.6106 42.4764 32.2084 41.0877C30.8062 39.6973 30.0124 37.808 29.999 35.8345Z" fill="#DCE9F8"/>
<path fill-rule="evenodd" clip-rule="evenodd" d="M29.999 63.3345C29.9821 61.8463 30.4085 60.3885 31.2225 59.143C32.0366 57.8993 33.2028 56.9234 34.573 56.3437C35.9432 55.7639 37.4549 55.6038 38.9144 55.8853C40.3756 56.1667 41.7205 56.8763 42.7772 57.9229C43.8339 58.9695 44.5552 60.3076 44.8485 61.7654C45.1434 63.2249 44.9968 64.7367 44.4305 66.1119C43.8626 67.4871 42.8986 68.6619 41.6615 69.4877C40.4245 70.3135 38.9683 70.7533 37.4819 70.75C35.5066 70.755 33.6106 69.9764 32.2084 68.5877C30.8062 67.1973 30.0124 65.308 29.999 63.3345Z" fill="#DCE9F8"/>
<path fill-rule="evenodd" clip-rule="evenodd" d="M29.999 90.8345C29.9821 89.3463 30.4085 87.8885 31.2225 86.643C32.0366 85.3993 33.2028 84.4234 34.573 83.8437C35.9432 83.2639 37.4549 83.1038 38.9144 83.3853C40.3756 83.6667 41.7205 84.3763 42.7772 85.4229C43.8339 86.4695 44.5552 87.8076 44.8485 89.2654C45.1434 90.7249 44.9968 92.2367 44.4305 93.6119C43.8626 94.9871 42.8986 96.1619 41.6615 96.9877C40.4245 97.8135 38.9683 98.2533 37.4819 98.25C35.5066 98.255 33.6106 97.4764 32.2084 96.0877C30.8062 94.6973 30.0124 92.808 29.999 90.8345Z" fill="#DCE9F8"/>
<path fill-rule="evenodd" clip-rule="evenodd" d="M0.000418358 8.33449C-0.0164348 6.84633 0.409978 5.38852 1.224 4.14305C2.03802 2.89927 3.20428 1.92344 4.57446 1.34368C5.94465 0.763926 7.45638 0.603813 8.91588 0.885265C10.3771 1.16672 11.722 1.87627 12.7787 2.92287C13.8354 3.96946 14.5567 5.30762 14.85 6.76544C15.1449 8.22494 14.9983 9.73666 14.432 11.1119C13.8641 12.4871 12.9 13.6619 11.663 14.4877C10.426 15.3135 8.9698 15.7533 7.48333 15.75C5.50811 15.755 3.61211 14.9764 2.20991 13.5877C0.807704 12.1973 0.0139003 10.308 0.000418358 8.33449Z" fill="#DCE9F8"/>
<path fill-rule="evenodd" clip-rule="evenodd" d="M0.000418358 35.8345C-0.0164348 34.3463 0.409978 32.8885 1.224 31.643C2.03802 30.3993 3.20428 29.4234 4.57446 28.8437C5.94465 28.2639 7.45638 28.1038 8.91588 28.3853C10.3771 28.6667 11.722 29.3763 12.7787 30.4229C13.8354 31.4695 14.5567 32.8076 14.85 34.2654C15.1449 35.7249 14.9983 37.2367 14.432 38.6119C13.8641 39.9871 12.9 41.1619 11.663 41.9877C10.426 42.8135 8.9698 43.2533 7.48333 43.25C5.50811 43.255 3.61211 42.4764 2.20991 41.0877C0.807704 39.6973 0.0139003 37.808 0.000418358 35.8345Z" fill="#DCE9F8"/>
<path fill-rule="evenodd" clip-rule="evenodd" d="M0.000418358 63.3345C-0.0164348 61.8463 0.409978 60.3885 1.224 59.143C2.03802 57.8993 3.20428 56.9234 4.57446 56.3437C5.94465 55.7639 7.45638 55.6038 8.91588 55.8853C10.3771 56.1667 11.722 56.8763 12.7787 57.9229C13.8354 58.9695 14.5567 60.3076 14.85 61.7654C15.1449 63.2249 14.9983 64.7367 14.432 66.1119C13.8641 67.4871 12.9 68.6619 11.663 69.4877C10.426 70.3135 8.9698 70.7533 7.48333 70.75C5.50811 70.755 3.61211 69.9764 2.20991 68.5877C0.807704 67.1973 0.0139003 65.308 0.000418358 63.3345Z" fill="#DCE9F8"/>
<path fill-rule="evenodd" clip-rule="evenodd" d="M0.000418358 90.8345C-0.0164348 89.3463 0.409978 87.8885 1.224 86.643C2.03802 85.3993 3.20428 84.4234 4.57446 83.8437C5.94465 83.2639 7.45638 83.1038 8.91588 83.3853C10.3771 83.6667 11.722 84.3763 12.7787 85.4229C13.8354 86.4695 14.5567 87.8076 14.85 89.2654C15.1449 90.7249 14.9983 92.2367 14.432 93.6119C13.8641 94.9871 12.9 96.1619 11.663 96.9877C10.426 97.8135 8.9698 98.2533 7.48333 98.25C5.50811 98.255 3.61211 97.4764 2.20991 96.0877C0.807704 94.6973 0.0139003 92.808 0.000418358 90.8345Z" fill="#DCE9F8"/>
</svg>
