<svg width="105" height="98" viewBox="0 0 105 98" fill="none" xmlns="http://www.w3.org/2000/svg">
<path fill-rule="evenodd" clip-rule="evenodd" d="M89.996 7.58449C89.9792 6.09633 90.4056 4.63852 91.2196 3.39305C92.0336 2.14927 93.1999 1.17344 94.5701 0.593682C95.9403 0.0139257 97.452 -0.146187 98.9115 0.135265C100.373 0.416717 101.718 1.12627 102.774 2.17287C103.831 3.21946 104.552 4.55762 104.846 6.01544C105.14 7.47494 104.994 8.98666 104.428 10.3619C103.86 11.7371 102.896 12.9119 101.659 13.7377C100.422 14.5635 98.9654 15.0033 97.4789 15C95.5037 15.005 93.6077 14.2264 92.2055 12.8377C90.8033 11.4473 90.0095 9.55802 89.996 7.58449Z" fill="#DCE9F8"/>
<path fill-rule="evenodd" clip-rule="evenodd" d="M89.996 35.0845C89.9792 33.5963 90.4056 32.1385 91.2196 30.893C92.0336 29.6493 93.1999 28.6734 94.5701 28.0937C95.9403 27.5139 97.452 27.3538 98.9115 27.6353C100.373 27.9167 101.718 28.6263 102.774 29.6729C103.831 30.7195 104.552 32.0576 104.846 33.5154C105.14 34.9749 104.994 36.4867 104.428 37.8619C103.86 39.2371 102.896 40.4119 101.659 41.2377C100.422 42.0635 98.9654 42.5033 97.4789 42.5C95.5037 42.505 93.6077 41.7264 92.2055 40.3377C90.8033 38.9473 90.0095 37.058 89.996 35.0845Z" fill="#DCE9F8"/>
<path fill-rule="evenodd" clip-rule="evenodd" d="M89.996 62.5845C89.9792 61.0963 90.4056 59.6385 91.2196 58.393C92.0336 57.1493 93.1999 56.1734 94.5701 55.5937C95.9403 55.0139 97.452 54.8538 98.9115 55.1353C100.373 55.4167 101.718 56.1263 102.774 57.1729C103.831 58.2195 104.552 59.5576 104.846 61.0154C105.14 62.4749 104.994 63.9867 104.428 65.3619C103.86 66.7371 102.896 67.9119 101.659 68.7377C100.422 69.5635 98.9654 70.0033 97.4789 70C95.5037 70.005 93.6077 69.2264 92.2055 67.8377C90.8033 66.4473 90.0095 64.558 89.996 62.5845Z" fill="#DCE9F8"/>
<path fill-rule="evenodd" clip-rule="evenodd" d="M89.996 90.0845C89.9792 88.5963 90.4056 87.1385 91.2196 85.893C92.0336 84.6493 93.1999 83.6734 94.5701 83.0937C95.9403 82.5139 97.452 82.3538 98.9115 82.6353C100.373 82.9167 101.718 83.6263 102.774 84.6729C103.831 85.7195 104.552 87.0576 104.846 88.5154C105.14 89.9749 104.994 91.4867 104.428 92.8619C103.86 94.2371 102.896 95.4119 101.659 96.2377C100.422 97.0635 98.9654 97.5033 97.4789 97.5C95.5037 97.505 93.6077 96.7264 92.2055 95.3377C90.8033 93.9473 90.0095 92.058 89.996 90.0845Z" fill="#DCE9F8"/>
<path fill-rule="evenodd" clip-rule="evenodd" d="M59.998 7.58449C59.9811 6.09633 60.4075 4.63852 61.2216 3.39305C62.0356 2.14927 63.2018 1.17344 64.572 0.593682C65.9422 0.0139257 67.4539 -0.146187 68.9134 0.135265C70.3746 0.416717 71.7195 1.12627 72.7762 2.17287C73.8329 3.21946 74.5543 4.55762 74.8475 6.01544C75.1424 7.47494 74.9958 8.98666 74.4296 10.3619C73.8616 11.7371 72.8976 12.9119 71.6605 13.7377C70.4235 14.5635 68.9674 15.0033 67.4809 15C65.5057 15.005 63.6097 14.2264 62.2075 12.8377C60.8053 11.4473 60.0115 9.55802 59.998 7.58449Z" fill="#DCE9F8"/>
<path fill-rule="evenodd" clip-rule="evenodd" d="M59.998 35.0845C59.9811 33.5963 60.4075 32.1385 61.2216 30.893C62.0356 29.6493 63.2018 28.6734 64.572 28.0937C65.9422 27.5139 67.4539 27.3538 68.9134 27.6353C70.3746 27.9167 71.7195 28.6263 72.7762 29.6729C73.8329 30.7195 74.5543 32.0576 74.8475 33.5154C75.1424 34.9749 74.9958 36.4867 74.4296 37.8619C73.8616 39.2371 72.8976 40.4119 71.6605 41.2377C70.4235 42.0635 68.9674 42.5033 67.4809 42.5C65.5057 42.505 63.6097 41.7264 62.2075 40.3377C60.8053 38.9473 60.0115 37.058 59.998 35.0845Z" fill="#DCE9F8"/>
<path fill-rule="evenodd" clip-rule="evenodd" d="M59.998 62.5845C59.9811 61.0963 60.4075 59.6385 61.2216 58.393C62.0356 57.1493 63.2018 56.1734 64.572 55.5937C65.9422 55.0139 67.4539 54.8538 68.9134 55.1353C70.3746 55.4167 71.7195 56.1263 72.7762 57.1729C73.8329 58.2195 74.5543 59.5576 74.8475 61.0154C75.1424 62.4749 74.9958 63.9867 74.4296 65.3619C73.8616 66.7371 72.8976 67.9119 71.6605 68.7377C70.4235 69.5635 68.9674 70.0033 67.4809 70C65.5057 70.005 63.6097 69.2264 62.2075 67.8377C60.8053 66.4473 60.0115 64.558 59.998 62.5845Z" fill="#DCE9F8"/>
<path fill-rule="evenodd" clip-rule="evenodd" d="M59.998 90.0845C59.9811 88.5963 60.4075 87.1385 61.2216 85.893C62.0356 84.6493 63.2018 83.6734 64.572 83.0937C65.9422 82.5139 67.4539 82.3538 68.9134 82.6353C70.3746 82.9167 71.7195 83.6263 72.7762 84.6729C73.8329 85.7195 74.5543 87.0576 74.8475 88.5154C75.1424 89.9749 74.9958 91.4867 74.4296 92.8619C73.8616 94.2371 72.8976 95.4119 71.6605 96.2377C70.4235 97.0635 68.9674 97.5033 67.4809 97.5C65.5057 97.505 63.6097 96.7264 62.2075 95.3377C60.8053 93.9473 60.0115 92.058 59.998 90.0845Z" fill="#DCE9F8"/>
<path fill-rule="evenodd" clip-rule="evenodd" d="M29.999 7.58449C29.9821 6.09633 30.4085 4.63852 31.2225 3.39305C32.0366 2.14927 33.2028 1.17344 34.573 0.593682C35.9432 0.0139257 37.4549 -0.146187 38.9144 0.135265C40.3756 0.416717 41.7205 1.12627 42.7772 2.17287C43.8339 3.21946 44.5552 4.55762 44.8485 6.01544C45.1434 7.47494 44.9968 8.98666 44.4305 10.3619C43.8626 11.7371 42.8986 12.9119 41.6615 13.7377C40.4245 14.5635 38.9683 15.0033 37.4819 15C35.5066 15.005 33.6106 14.2264 32.2084 12.8377C30.8062 11.4473 30.0124 9.55802 29.999 7.58449Z" fill="#DCE9F8"/>
<path fill-rule="evenodd" clip-rule="evenodd" d="M29.999 35.0845C29.9821 33.5963 30.4085 32.1385 31.2225 30.893C32.0366 29.6493 33.2028 28.6734 34.573 28.0937C35.9432 27.5139 37.4549 27.3538 38.9144 27.6353C40.3756 27.9167 41.7205 28.6263 42.7772 29.6729C43.8339 30.7195 44.5552 32.0576 44.8485 33.5154C45.1434 34.9749 44.9968 36.4867 44.4305 37.8619C43.8626 39.2371 42.8986 40.4119 41.6615 41.2377C40.4245 42.0635 38.9683 42.5033 37.4819 42.5C35.5066 42.505 33.6106 41.7264 32.2084 40.3377C30.8062 38.9473 30.0124 37.058 29.999 35.0845Z" fill="#DCE9F8"/>
<path fill-rule="evenodd" clip-rule="evenodd" d="M29.999 62.5845C29.9821 61.0963 30.4085 59.6385 31.2225 58.393C32.0366 57.1493 33.2028 56.1734 34.573 55.5937C35.9432 55.0139 37.4549 54.8538 38.9144 55.1353C40.3756 55.4167 41.7205 56.1263 42.7772 57.1729C43.8339 58.2195 44.5552 59.5576 44.8485 61.0154C45.1434 62.4749 44.9968 63.9867 44.4305 65.3619C43.8626 66.7371 42.8986 67.9119 41.6615 68.7377C40.4245 69.5635 38.9683 70.0033 37.4819 70C35.5066 70.005 33.6106 69.2264 32.2084 67.8377C30.8062 66.4473 30.0124 64.558 29.999 62.5845Z" fill="#DCE9F8"/>
<path fill-rule="evenodd" clip-rule="evenodd" d="M29.999 90.0845C29.9821 88.5963 30.4085 87.1385 31.2225 85.893C32.0366 84.6493 33.2028 83.6734 34.573 83.0937C35.9432 82.5139 37.4549 82.3538 38.9144 82.6353C40.3756 82.9167 41.7205 83.6263 42.7772 84.6729C43.8339 85.7195 44.5552 87.0576 44.8485 88.5154C45.1434 89.9749 44.9968 91.4867 44.4305 92.8619C43.8626 94.2371 42.8986 95.4119 41.6615 96.2377C40.4245 97.0635 38.9683 97.5033 37.4819 97.5C35.5066 97.505 33.6106 96.7264 32.2084 95.3377C30.8062 93.9473 30.0124 92.058 29.999 90.0845Z" fill="#DCE9F8"/>
<path fill-rule="evenodd" clip-rule="evenodd" d="M0.000906639 7.58449C-0.0159466 6.09633 0.410466 4.63852 1.22449 3.39305C2.0385 2.14927 3.20477 1.17344 4.57495 0.593682C5.94513 0.0139257 7.45686 -0.146187 8.91637 0.135265C10.3776 0.416717 11.7224 1.12627 12.7792 2.17287C13.8359 3.21946 14.5572 4.55762 14.8504 6.01544C15.1454 7.47494 14.9988 8.98666 14.4325 10.3619C13.8645 11.7371 12.9005 12.9119 11.6635 13.7377C10.4264 14.5635 8.97029 15.0033 7.48382 15C5.5086 15.005 3.6126 14.2264 2.2104 12.8377C0.808193 11.4473 0.0143886 9.55802 0.000906639 7.58449Z" fill="#DCE9F8"/>
<path fill-rule="evenodd" clip-rule="evenodd" d="M0.000906639 35.0845C-0.0159466 33.5963 0.410466 32.1385 1.22449 30.893C2.0385 29.6493 3.20477 28.6734 4.57495 28.0937C5.94513 27.5139 7.45686 27.3538 8.91637 27.6353C10.3776 27.9167 11.7224 28.6263 12.7792 29.6729C13.8359 30.7195 14.5572 32.0576 14.8504 33.5154C15.1454 34.9749 14.9988 36.4867 14.4325 37.8619C13.8645 39.2371 12.9005 40.4119 11.6635 41.2377C10.4264 42.0635 8.97029 42.5033 7.48382 42.5C5.5086 42.505 3.6126 41.7264 2.2104 40.3377C0.808193 38.9473 0.0143886 37.058 0.000906639 35.0845Z" fill="#DCE9F8"/>
<path fill-rule="evenodd" clip-rule="evenodd" d="M0.000906639 62.5845C-0.0159466 61.0963 0.410466 59.6385 1.22449 58.393C2.0385 57.1493 3.20477 56.1734 4.57495 55.5937C5.94513 55.0139 7.45686 54.8538 8.91637 55.1353C10.3776 55.4167 11.7224 56.1263 12.7792 57.1729C13.8359 58.2195 14.5572 59.5576 14.8504 61.0154C15.1454 62.4749 14.9988 63.9867 14.4325 65.3619C13.8645 66.7371 12.9005 67.9119 11.6635 68.7377C10.4264 69.5635 8.97029 70.0033 7.48382 70C5.5086 70.005 3.6126 69.2264 2.2104 67.8377C0.808193 66.4473 0.0143886 64.558 0.000906639 62.5845Z" fill="#DCE9F8"/>
<path fill-rule="evenodd" clip-rule="evenodd" d="M0.000906639 90.0845C-0.0159466 88.5963 0.410466 87.1385 1.22449 85.893C2.0385 84.6493 3.20477 83.6734 4.57495 83.0937C5.94513 82.5139 7.45686 82.3538 8.91637 82.6353C10.3776 82.9167 11.7224 83.6263 12.7792 84.6729C13.8359 85.7195 14.5572 87.0576 14.8504 88.5154C15.1454 89.9749 14.9988 91.4867 14.4325 92.8619C13.8645 94.2371 12.9005 95.4119 11.6635 96.2377C10.4264 97.0635 8.97029 97.5033 7.48382 97.5C5.5086 97.505 3.6126 96.7264 2.2104 95.3377C0.808193 93.9473 0.0143886 92.058 0.000906639 90.0845Z" fill="#DCE9F8"/>
</svg>
