<svg width="95" height="150" viewBox="0 0 95 150" fill="none" xmlns="http://www.w3.org/2000/svg">
<g clip-path="url(#clip0_2047_2)">
<path fill-rule="evenodd" clip-rule="evenodd" d="M6.92544 68.2192C5.5667 68.2346 4.23566 67.8452 3.09851 67.102C1.9629 66.3588 1.07193 65.2939 0.542596 64.0429C0.0132586 62.7919 -0.132929 61.4116 0.124046 60.0791C0.38102 58.7449 1.02887 57.517 1.98444 56.5522C2.94002 55.5874 4.1618 54.9288 5.49284 54.6611C6.82542 54.3918 8.20566 54.5256 9.4613 55.0426C10.7169 55.5612 11.7895 56.4414 12.5435 57.5709C13.2975 58.7003 13.6991 60.0298 13.696 61.387C13.7006 63.1905 12.9897 64.9216 11.7218 66.2018C10.4523 67.4821 8.72734 68.2069 6.92544 68.2192Z" fill="#DCE9F8"/>
<path fill-rule="evenodd" clip-rule="evenodd" d="M32.0338 68.2192C30.6751 68.2346 29.3441 67.8452 28.2069 67.102C27.0713 66.3588 26.1803 65.2939 25.651 64.0429C25.1217 62.7919 24.9755 61.4116 25.2324 60.0791C25.4894 58.7449 26.1373 57.517 27.0928 56.5522C28.0484 55.5874 29.2702 54.9288 30.6012 54.6611C31.9338 54.3918 33.3141 54.5256 34.5697 55.0426C35.8253 55.5612 36.8979 56.4414 37.6519 57.5709C38.4059 58.7003 38.8075 60.0298 38.8044 61.387C38.809 63.1905 38.0981 64.9216 36.8302 66.2018C35.5607 67.4821 33.8357 68.2069 32.0338 68.2192Z" fill="#DCE9F8"/>
<path fill-rule="evenodd" clip-rule="evenodd" d="M57.1422 68.2192C55.7835 68.2346 54.4525 67.8452 53.3153 67.102C52.1797 66.3588 51.2887 65.2939 50.7594 64.0429C50.2301 62.7919 50.0839 61.4116 50.3408 60.0791C50.5978 58.7449 51.2457 57.517 52.2012 56.5522C53.1568 55.5874 54.3786 54.9288 55.7096 54.6611C57.0422 54.3918 58.4225 54.5256 59.6781 55.0426C60.9337 55.5612 62.0063 56.4414 62.7603 57.5709C63.5143 58.7003 63.9159 60.0298 63.9128 61.387C63.9174 63.1905 63.2065 64.9216 61.9386 66.2018C60.6691 67.4821 58.9441 68.2069 57.1422 68.2192Z" fill="#DCE9F8"/>
<path fill-rule="evenodd" clip-rule="evenodd" d="M82.2506 68.2192C80.8919 68.2346 79.5609 67.8452 78.4237 67.102C77.2881 66.3588 76.3971 65.2939 75.8678 64.0429C75.3385 62.7919 75.1923 61.4116 75.4492 60.0791C75.7062 58.7449 76.3541 57.517 77.3096 56.5522C78.2652 55.5874 79.487 54.9288 80.818 54.6611C82.1506 54.3918 83.5309 54.5256 84.7865 55.0426C86.0421 55.5612 87.1147 56.4414 87.8687 57.5709C88.6227 58.7003 89.0243 60.0298 89.0212 61.387C89.0258 63.1905 88.3149 64.9216 87.047 66.2018C85.7775 67.4821 84.0525 68.2069 82.2506 68.2192Z" fill="#DCE9F8"/>
<path fill-rule="evenodd" clip-rule="evenodd" d="M6.92544 95.6098C5.5667 95.6252 4.23566 95.2359 3.09851 94.4926C1.9629 93.7494 1.07193 92.6846 0.542596 91.4335C0.0132586 90.1825 -0.132929 88.8023 0.124046 87.4697C0.38102 86.1356 1.02887 84.9076 1.98444 83.9428C2.94002 82.978 4.1618 82.3194 5.49284 82.0517C6.82542 81.7824 8.20566 81.9162 9.4613 82.4333C10.7169 82.9518 11.7895 83.832 12.5435 84.9615C13.2975 86.0909 13.6991 87.4205 13.696 88.7776C13.7006 90.5811 12.9897 92.3122 11.7218 93.5925C10.4523 94.8727 8.72734 95.5975 6.92544 95.6098Z" fill="#DCE9F8"/>
<path fill-rule="evenodd" clip-rule="evenodd" d="M32.0338 95.6098C30.6751 95.6252 29.3441 95.2359 28.2069 94.4926C27.0713 93.7494 26.1803 92.6846 25.651 91.4335C25.1217 90.1825 24.9755 88.8023 25.2324 87.4697C25.4894 86.1356 26.1373 84.9076 27.0928 83.9428C28.0484 82.978 29.2702 82.3194 30.6012 82.0517C31.9338 81.7824 33.3141 81.9162 34.5697 82.4333C35.8253 82.9518 36.8979 83.832 37.6519 84.9615C38.4059 86.0909 38.8075 87.4205 38.8044 88.7776C38.809 90.5811 38.0981 92.3122 36.8302 93.5925C35.5607 94.8727 33.8357 95.5975 32.0338 95.6098Z" fill="#DCE9F8"/>
<path fill-rule="evenodd" clip-rule="evenodd" d="M57.1422 95.6098C55.7835 95.6252 54.4525 95.2359 53.3153 94.4926C52.1797 93.7494 51.2887 92.6846 50.7594 91.4335C50.2301 90.1825 50.0839 88.8023 50.3408 87.4697C50.5978 86.1356 51.2457 84.9076 52.2012 83.9428C53.1568 82.978 54.3786 82.3194 55.7096 82.0517C57.0422 81.7824 58.4225 81.9162 59.6781 82.4333C60.9337 82.9518 62.0063 83.832 62.7603 84.9615C63.5143 86.0909 63.9159 87.4205 63.9128 88.7776C63.9174 90.5811 63.2065 92.3122 61.9386 93.5925C60.6691 94.8727 58.9441 95.5975 57.1422 95.6098Z" fill="#DCE9F8"/>
<path fill-rule="evenodd" clip-rule="evenodd" d="M82.2506 95.6098C80.8919 95.6252 79.5609 95.2359 78.4237 94.4926C77.2881 93.7494 76.3971 92.6846 75.8678 91.4335C75.3385 90.1825 75.1923 88.8023 75.4492 87.4697C75.7062 86.1356 76.3541 84.9076 77.3096 83.9428C78.2652 82.978 79.487 82.3194 80.818 82.0517C82.1506 81.7824 83.5309 81.9162 84.7865 82.4333C86.0421 82.9518 87.1147 83.832 87.8687 84.9615C88.6227 86.0909 89.0243 87.4205 89.0212 88.7776C89.0258 90.5811 88.3149 92.3122 87.047 93.5925C85.7775 94.8727 84.0525 95.5975 82.2506 95.6098Z" fill="#DCE9F8"/>
<path fill-rule="evenodd" clip-rule="evenodd" d="M6.92544 122.998C5.5667 123.014 4.23566 122.625 3.09851 121.881C1.9629 121.138 1.07193 120.073 0.542596 118.822C0.0132586 117.571 -0.132929 116.191 0.124046 114.858C0.38102 113.524 1.02887 112.296 1.98444 111.332C2.94002 110.367 4.1618 109.708 5.49284 109.44C6.82542 109.171 8.20566 109.305 9.4613 109.822C10.7169 110.341 11.7895 111.221 12.5435 112.35C13.2975 113.48 13.6991 114.809 13.696 116.166C13.7006 117.97 12.9897 119.701 11.7218 120.981C10.4523 122.261 8.72734 122.986 6.92544 122.998Z" fill="#DCE9F8"/>
<path fill-rule="evenodd" clip-rule="evenodd" d="M32.0338 122.998C30.6751 123.014 29.3441 122.625 28.2069 121.881C27.0713 121.138 26.1803 120.073 25.651 118.822C25.1217 117.571 24.9755 116.191 25.2324 114.858C25.4894 113.524 26.1373 112.296 27.0928 111.332C28.0484 110.367 29.2702 109.708 30.6012 109.44C31.9338 109.171 33.3141 109.305 34.5697 109.822C35.8253 110.341 36.8979 111.221 37.6519 112.35C38.4059 113.48 38.8075 114.809 38.8044 116.166C38.809 117.97 38.0981 119.701 36.8302 120.981C35.5607 122.261 33.8357 122.986 32.0338 122.998Z" fill="#DCE9F8"/>
<path fill-rule="evenodd" clip-rule="evenodd" d="M57.1422 122.998C55.7835 123.014 54.4525 122.625 53.3153 121.881C52.1797 121.138 51.2887 120.073 50.7594 118.822C50.2301 117.571 50.0839 116.191 50.3408 114.858C50.5978 113.524 51.2457 112.296 52.2012 111.332C53.1568 110.367 54.3786 109.708 55.7096 109.44C57.0422 109.171 58.4225 109.305 59.6781 109.822C60.9337 110.341 62.0063 111.221 62.7603 112.35C63.5143 113.48 63.9159 114.809 63.9128 116.166C63.9174 117.97 63.2065 119.701 61.9386 120.981C60.6691 122.261 58.9441 122.986 57.1422 122.998Z" fill="#DCE9F8"/>
<path fill-rule="evenodd" clip-rule="evenodd" d="M82.2506 122.998C80.8919 123.014 79.5609 122.625 78.4237 121.881C77.2881 121.138 76.3971 120.073 75.8678 118.822C75.3385 117.571 75.1923 116.191 75.4492 114.858C75.7062 113.524 76.3541 112.296 77.3096 111.332C78.2652 110.367 79.487 109.708 80.818 109.44C82.1506 109.171 83.5309 109.305 84.7865 109.822C86.0421 110.341 87.1147 111.221 87.8687 112.35C88.6227 113.48 89.0243 114.809 89.0212 116.166C89.0258 117.97 88.3149 119.701 87.047 120.981C85.7775 122.261 84.0525 122.986 82.2506 122.998Z" fill="#DCE9F8"/>
<path fill-rule="evenodd" clip-rule="evenodd" d="M6.92544 150.387C5.5667 150.403 4.23566 150.013 3.09851 149.27C1.9629 148.527 1.07193 147.462 0.542596 146.211C0.0132586 144.96 -0.132929 143.58 0.124046 142.247C0.38102 140.913 1.02887 139.685 1.98444 138.72C2.94002 137.755 4.1618 137.097 5.49284 136.829C6.82542 136.56 8.20566 136.694 9.4613 137.211C10.7169 137.729 11.7895 138.609 12.5435 139.739C13.2975 140.868 13.6991 142.198 13.696 143.555C13.7006 145.358 12.9897 147.09 11.7218 148.37C10.4523 149.65 8.72734 150.375 6.92544 150.387Z" fill="#DCE9F8"/>
<path fill-rule="evenodd" clip-rule="evenodd" d="M32.0338 150.387C30.6751 150.403 29.3441 150.013 28.2069 149.27C27.0713 148.527 26.1803 147.462 25.651 146.211C25.1217 144.96 24.9755 143.58 25.2324 142.247C25.4894 140.913 26.1373 139.685 27.0928 138.72C28.0484 137.755 29.2702 137.097 30.6012 136.829C31.9338 136.56 33.3141 136.694 34.5697 137.211C35.8253 137.729 36.8979 138.609 37.6519 139.739C38.4059 140.868 38.8075 142.198 38.8044 143.555C38.809 145.358 38.0981 147.09 36.8302 148.37C35.5607 149.65 33.8357 150.375 32.0338 150.387Z" fill="#DCE9F8"/>
<path fill-rule="evenodd" clip-rule="evenodd" d="M57.1422 150.387C55.7835 150.403 54.4525 150.013 53.3153 149.27C52.1797 148.527 51.2887 147.462 50.7594 146.211C50.2301 144.96 50.0839 143.58 50.3408 142.247C50.5978 140.913 51.2457 139.685 52.2012 138.72C53.1568 137.755 54.3786 137.097 55.7096 136.829C57.0422 136.56 58.4225 136.694 59.6781 137.211C60.9337 137.729 62.0063 138.609 62.7603 139.739C63.5143 140.868 63.9159 142.198 63.9128 143.555C63.9174 145.358 63.2065 147.09 61.9386 148.37C60.6691 149.65 58.9441 150.375 57.1422 150.387Z" fill="#DCE9F8"/>
<path fill-rule="evenodd" clip-rule="evenodd" d="M82.2506 150.387C80.8919 150.403 79.5609 150.013 78.4237 149.27C77.2881 148.527 76.3971 147.462 75.8678 146.211C75.3385 144.96 75.1923 143.58 75.4492 142.247C75.7062 140.913 76.3541 139.685 77.3096 138.72C78.2652 137.755 79.487 137.097 80.818 136.829C82.1506 136.56 83.5309 136.694 84.7865 137.211C86.0421 137.729 87.1147 138.609 87.8687 139.739C88.6227 140.868 89.0243 142.198 89.0212 143.555C89.0258 145.358 88.3149 147.09 87.047 148.37C85.7775 149.65 84.0525 150.375 82.2506 150.387Z" fill="#DCE9F8"/>
<path fill-rule="evenodd" clip-rule="evenodd" d="M6.92495 13.5141C5.56621 13.5295 4.23518 13.1402 3.09802 12.3969C1.96241 11.6537 1.07144 10.5889 0.542108 9.33784C0.0127703 8.08682 -0.133417 6.70656 0.123558 5.37398C0.380532 4.03986 1.02838 2.81194 1.98396 1.84713C2.93953 0.882318 4.16131 0.223718 5.49235 -0.0440281C6.82493 -0.313313 8.20518 -0.179462 9.46081 0.337566C10.7165 0.856132 11.789 1.73632 12.543 2.86578C13.297 3.99523 13.6986 5.32475 13.6955 6.68195C13.7002 8.48538 12.9893 10.2165 11.7213 11.4968C10.4518 12.777 8.72685 13.5018 6.92495 13.5141Z" fill="#DCE9F8"/>
<path fill-rule="evenodd" clip-rule="evenodd" d="M32.0333 13.5141C30.6746 13.5295 29.3436 13.1402 28.2064 12.3969C27.0708 11.6537 26.1798 10.5889 25.6505 9.33784C25.1212 8.08682 24.975 6.70656 25.232 5.37398C25.4889 4.03986 26.1368 2.81194 27.0924 1.84713C28.0479 0.882318 29.2697 0.223718 30.6008 -0.0440281C31.9333 -0.313313 33.3136 -0.179462 34.5692 0.337566C35.8248 0.856132 36.8974 1.73632 37.6514 2.86578C38.4054 3.99523 38.807 5.32475 38.8039 6.68195C38.8085 8.48538 38.0977 10.2165 36.8297 11.4968C35.5602 12.777 33.8352 13.5018 32.0333 13.5141Z" fill="#DCE9F8"/>
<path fill-rule="evenodd" clip-rule="evenodd" d="M57.1417 13.5141C55.783 13.5295 54.452 13.1402 53.3148 12.3969C52.1792 11.6537 51.2882 10.5889 50.7589 9.33784C50.2296 8.08682 50.0834 6.70656 50.3404 5.37398C50.5973 4.03986 51.2452 2.81194 52.2008 1.84713C53.1563 0.882318 54.3781 0.223718 55.7091 -0.0440281C57.0417 -0.313313 58.422 -0.179462 59.6776 0.337566C60.9332 0.856132 62.0058 1.73632 62.7598 2.86578C63.5138 3.99523 63.9154 5.32475 63.9123 6.68195C63.9169 8.48538 63.2061 10.2165 61.9381 11.4968C60.6686 12.777 58.9436 13.5018 57.1417 13.5141Z" fill="#DCE9F8"/>
<path fill-rule="evenodd" clip-rule="evenodd" d="M82.2501 13.5141C80.8914 13.5295 79.5604 13.1402 78.4232 12.3969C77.2876 11.6537 76.3966 10.5889 75.8673 9.33784C75.338 8.08682 75.1918 6.70656 75.4488 5.37398C75.7057 4.03986 76.3536 2.81194 77.3092 1.84713C78.2647 0.882318 79.4865 0.223718 80.8175 -0.0440281C82.1501 -0.313313 83.5304 -0.179462 84.786 0.337566C86.0416 0.856132 87.1142 1.73632 87.8682 2.86578C88.6222 3.99523 89.0238 5.32475 89.0207 6.68195C89.0253 8.48538 88.3144 10.2165 87.0465 11.4968C85.777 12.777 84.052 13.5018 82.2501 13.5141Z" fill="#DCE9F8"/>
<path fill-rule="evenodd" clip-rule="evenodd" d="M6.92495 40.9028C5.56621 40.9182 4.23518 40.5288 3.09802 39.7856C1.96241 39.0424 1.07144 37.9775 0.542108 36.7265C0.0127703 35.4755 -0.133417 34.0952 0.123558 32.7627C0.380532 31.4285 1.02838 30.2006 1.98396 29.2358C2.93953 28.271 4.16131 27.6124 5.49235 27.3446C6.82493 27.0754 8.20518 27.2092 9.46081 27.7262C10.7165 28.2448 11.789 29.125 12.543 30.2544C13.297 31.3839 13.6986 32.7134 13.6955 34.0706C13.7002 35.8741 12.9893 37.6052 11.7213 38.8854C10.4518 40.1657 8.72685 40.8905 6.92495 40.9028Z" fill="#DCE9F8"/>
<path fill-rule="evenodd" clip-rule="evenodd" d="M32.0333 40.9028C30.6746 40.9182 29.3436 40.5288 28.2064 39.7856C27.0708 39.0424 26.1798 37.9775 25.6505 36.7265C25.1212 35.4755 24.975 34.0952 25.232 32.7627C25.4889 31.4285 26.1368 30.2006 27.0924 29.2358C28.0479 28.271 29.2697 27.6124 30.6008 27.3446C31.9333 27.0754 33.3136 27.2092 34.5692 27.7262C35.8248 28.2448 36.8974 29.125 37.6514 30.2544C38.4054 31.3839 38.807 32.7134 38.8039 34.0706C38.8085 35.8741 38.0977 37.6052 36.8297 38.8854C35.5602 40.1657 33.8352 40.8905 32.0333 40.9028Z" fill="#DCE9F8"/>
<path fill-rule="evenodd" clip-rule="evenodd" d="M57.1417 40.9028C55.783 40.9182 54.452 40.5288 53.3148 39.7856C52.1792 39.0424 51.2882 37.9775 50.7589 36.7265C50.2296 35.4755 50.0834 34.0952 50.3404 32.7627C50.5973 31.4285 51.2452 30.2006 52.2008 29.2358C53.1563 28.271 54.3781 27.6124 55.7091 27.3446C57.0417 27.0754 58.422 27.2092 59.6776 27.7262C60.9332 28.2448 62.0058 29.125 62.7598 30.2544C63.5138 31.3839 63.9154 32.7134 63.9123 34.0706C63.9169 35.8741 63.2061 37.6052 61.9381 38.8854C60.6686 40.1657 58.9436 40.8905 57.1417 40.9028Z" fill="#DCE9F8"/>
<path fill-rule="evenodd" clip-rule="evenodd" d="M82.2501 40.9028C80.8914 40.9182 79.5604 40.5288 78.4232 39.7856C77.2876 39.0424 76.3966 37.9775 75.8673 36.7265C75.338 35.4755 75.1918 34.0952 75.4488 32.7627C75.7057 31.4285 76.3536 30.2006 77.3092 29.2358C78.2647 28.271 79.4865 27.6124 80.8175 27.3446C82.1501 27.0754 83.5304 27.2092 84.786 27.7262C86.0416 28.2448 87.1142 29.125 87.8682 30.2544C88.6222 31.3839 89.0238 32.7134 89.0207 34.0706C89.0253 35.8741 88.3144 37.6052 87.0465 38.8854C85.777 40.1657 84.052 40.8905 82.2501 40.9028Z" fill="#DCE9F8"/>
</g>
<defs>
<clipPath id="clip0_2047_2">
<rect width="95" height="150" fill="white"/>
</clipPath>
</defs>
</svg>
