<svg width="493" height="519" viewBox="0 0 493 519" fill="none" xmlns="http://www.w3.org/2000/svg">
<g clip-path="url(#clip0_2047_5)">
<path fill-rule="evenodd" clip-rule="evenodd" d="M23.862 236.053C19.1803 236.106 14.5939 234.765 10.6757 232.203C6.7627 229.641 3.69272 225.971 1.86879 221.66C0.0448596 217.348 -0.45886 212.591 0.426593 207.998C1.31205 203.4 3.54432 199.168 6.83694 195.843C10.1296 192.518 14.3394 190.248 18.9258 189.325C23.5174 188.397 28.2733 188.858 32.5998 190.64C36.9264 192.427 40.622 195.461 43.2201 199.354C45.8181 203.246 47.2019 207.829 47.1913 212.506C47.2072 218.722 44.7577 224.688 40.3888 229.101C36.0145 233.513 30.0708 236.011 23.862 236.053Z" fill="#DCE9F8"/>
<path fill-rule="evenodd" clip-rule="evenodd" d="M110.378 236.053C105.696 236.106 101.11 234.765 97.1913 232.203C93.2783 229.641 90.2083 225.971 88.3844 221.66C86.5605 217.348 86.0568 212.591 86.9422 207.998C87.8277 203.4 90.0599 199.168 93.3526 195.843C96.6452 192.518 100.855 190.248 105.441 189.325C110.033 188.397 114.789 188.858 119.115 190.64C123.442 192.427 127.138 195.461 129.736 199.354C132.334 203.246 133.718 207.829 133.707 212.506C133.723 218.722 131.273 224.688 126.904 229.101C122.53 233.513 116.586 236.011 110.378 236.053Z" fill="#DCE9F8"/>
<path fill-rule="evenodd" clip-rule="evenodd" d="M196.893 236.053C192.212 236.106 187.625 234.765 183.707 232.203C179.794 229.641 176.724 225.971 174.9 221.66C173.076 217.348 172.572 212.591 173.458 207.998C174.343 203.4 176.576 199.168 179.868 195.843C183.161 192.518 187.371 190.248 191.957 189.325C196.549 188.397 201.305 188.858 205.631 190.64C209.958 192.427 213.653 195.461 216.251 199.354C218.849 203.246 220.233 207.829 220.223 212.506C220.238 218.722 217.789 224.688 213.42 229.101C209.046 233.513 203.102 236.011 196.893 236.053Z" fill="#DCE9F8"/>
<path fill-rule="evenodd" clip-rule="evenodd" d="M283.409 236.053C278.727 236.106 274.141 234.765 270.223 232.203C266.31 229.641 263.24 225.971 261.416 221.66C259.592 217.348 259.088 212.591 259.973 207.998C260.859 203.4 263.091 199.168 266.384 195.843C269.676 192.518 273.886 190.248 278.473 189.325C283.064 188.397 287.82 188.858 292.147 190.64C296.473 192.427 300.169 195.461 302.767 199.354C305.365 203.246 306.749 207.829 306.738 212.506C306.754 218.722 304.305 224.688 299.936 229.101C295.561 233.513 289.618 236.011 283.409 236.053Z" fill="#DCE9F8"/>
<path fill-rule="evenodd" clip-rule="evenodd" d="M369.925 236.053C365.243 236.106 360.656 234.765 356.738 232.203C352.825 229.641 349.755 225.971 347.931 221.66C346.107 217.348 345.604 212.591 346.489 207.998C347.375 203.4 349.607 199.168 352.899 195.843C356.192 192.518 360.402 190.248 364.988 189.325C369.58 188.397 374.336 188.858 378.662 190.64C382.989 192.427 386.685 195.461 389.283 199.354C391.881 203.246 393.264 207.829 393.254 212.506C393.27 218.722 390.82 224.688 386.451 229.101C382.077 233.513 376.133 236.011 369.925 236.053Z" fill="#DCE9F8"/>
<path fill-rule="evenodd" clip-rule="evenodd" d="M456.44 236.053C451.758 236.106 447.172 234.765 443.254 232.203C439.341 229.641 436.271 225.971 434.447 221.66C432.623 217.348 432.119 212.591 433.005 207.998C433.89 203.4 436.122 199.168 439.415 195.843C442.708 192.518 446.918 190.248 451.504 189.325C456.096 188.397 460.851 188.858 465.178 190.64C469.504 192.427 473.2 195.461 475.798 199.354C478.396 203.246 479.78 207.829 479.769 212.506C479.785 218.722 477.336 224.688 472.967 229.101C468.593 233.513 462.649 236.011 456.44 236.053Z" fill="#DCE9F8"/>
<path fill-rule="evenodd" clip-rule="evenodd" d="M23.862 330.454C19.1803 330.507 14.5939 329.165 10.6757 326.603C6.7627 324.042 3.69272 320.372 1.86879 316.06C0.0448596 311.749 -0.45886 306.991 0.426593 302.399C1.31205 297.801 3.54432 293.569 6.83694 290.243C10.1296 286.918 14.3394 284.648 18.9258 283.725C23.5174 282.797 28.2733 283.259 32.5998 285.041C36.9264 286.828 40.622 289.861 43.2201 293.754C45.8181 297.647 47.2019 302.229 47.1913 306.907C47.2072 313.122 44.7577 319.089 40.3888 323.501C36.0145 327.913 30.0708 330.411 23.862 330.454Z" fill="#DCE9F8"/>
<path fill-rule="evenodd" clip-rule="evenodd" d="M110.378 330.454C105.696 330.507 101.11 329.165 97.1913 326.603C93.2783 324.042 90.2083 320.372 88.3844 316.06C86.5605 311.749 86.0568 306.991 86.9422 302.399C87.8277 297.801 90.0599 293.569 93.3526 290.243C96.6452 286.918 100.855 284.648 105.441 283.725C110.033 282.797 114.789 283.259 119.115 285.041C123.442 286.828 127.138 289.861 129.736 293.754C132.334 297.647 133.718 302.229 133.707 306.907C133.723 313.122 131.273 319.089 126.904 323.501C122.53 327.913 116.586 330.411 110.378 330.454Z" fill="#DCE9F8"/>
<path fill-rule="evenodd" clip-rule="evenodd" d="M196.893 330.454C192.212 330.507 187.625 329.165 183.707 326.603C179.794 324.042 176.724 320.372 174.9 316.06C173.076 311.749 172.572 306.991 173.458 302.399C174.343 297.801 176.576 293.569 179.868 290.243C183.161 286.918 187.371 284.648 191.957 283.725C196.549 282.797 201.305 283.259 205.631 285.041C209.958 286.828 213.653 289.861 216.251 293.754C218.849 297.647 220.233 302.229 220.223 306.907C220.238 313.122 217.789 319.089 213.42 323.501C209.046 327.913 203.102 330.411 196.893 330.454Z" fill="#DCE9F8"/>
<path fill-rule="evenodd" clip-rule="evenodd" d="M283.409 330.454C278.727 330.507 274.141 329.165 270.223 326.603C266.31 324.042 263.24 320.372 261.416 316.06C259.592 311.749 259.088 306.991 259.973 302.399C260.859 297.801 263.091 293.569 266.384 290.243C269.676 286.918 273.886 284.648 278.473 283.725C283.064 282.797 287.82 283.259 292.147 285.041C296.473 286.828 300.169 289.861 302.767 293.754C305.365 297.647 306.749 302.229 306.738 306.907C306.754 313.122 304.305 319.089 299.936 323.501C295.561 327.913 289.618 330.411 283.409 330.454Z" fill="#DCE9F8"/>
<path fill-rule="evenodd" clip-rule="evenodd" d="M369.925 330.454C365.243 330.507 360.656 329.165 356.738 326.603C352.825 324.042 349.755 320.372 347.931 316.06C346.107 311.749 345.604 306.991 346.489 302.399C347.375 297.801 349.607 293.569 352.899 290.243C356.192 286.918 360.402 284.648 364.988 283.725C369.58 282.797 374.336 283.259 378.662 285.041C382.989 286.828 386.685 289.861 389.283 293.754C391.881 297.647 393.264 302.229 393.254 306.907C393.27 313.122 390.82 319.089 386.451 323.501C382.077 327.913 376.133 330.411 369.925 330.454Z" fill="#DCE9F8"/>
<path fill-rule="evenodd" clip-rule="evenodd" d="M456.44 330.454C451.758 330.507 447.172 329.165 443.254 326.603C439.341 324.042 436.271 320.372 434.447 316.06C432.623 311.749 432.119 306.991 433.005 302.399C433.89 297.801 436.122 293.569 439.415 290.243C442.708 286.918 446.918 284.648 451.504 283.725C456.096 282.797 460.851 283.259 465.178 285.041C469.504 286.828 473.2 289.861 475.798 293.754C478.396 297.647 479.78 302.229 479.769 306.907C479.785 313.122 477.336 319.089 472.967 323.501C468.593 327.913 462.649 330.411 456.44 330.454Z" fill="#DCE9F8"/>
<path fill-rule="evenodd" clip-rule="evenodd" d="M23.862 424.851C19.1803 424.904 14.5939 423.562 10.6757 421.001C6.7627 418.439 3.69272 414.769 1.86879 410.458C0.0448596 406.146 -0.45886 401.389 0.426593 396.796C1.31205 392.198 3.54432 387.966 6.83694 384.641C10.1296 381.316 14.3394 379.046 18.9258 378.123C23.5174 377.195 28.2733 377.656 32.5998 379.438C36.9264 381.225 40.622 384.259 43.2201 388.152C45.8181 392.044 47.2019 396.626 47.1913 401.304C47.2072 407.52 44.7577 413.486 40.3888 417.898C36.0145 422.311 30.0708 424.809 23.862 424.851Z" fill="#DCE9F8"/>
<path fill-rule="evenodd" clip-rule="evenodd" d="M110.378 424.851C105.696 424.904 101.11 423.562 97.1913 421.001C93.2783 418.439 90.2083 414.769 88.3844 410.458C86.5605 406.146 86.0568 401.389 86.9422 396.796C87.8277 392.198 90.0599 387.966 93.3526 384.641C96.6452 381.316 100.855 379.046 105.441 378.123C110.033 377.195 114.789 377.656 119.115 379.438C123.442 381.225 127.138 384.259 129.736 388.152C132.334 392.044 133.718 396.626 133.707 401.304C133.723 407.52 131.273 413.486 126.904 417.898C122.53 422.311 116.586 424.809 110.378 424.851Z" fill="#DCE9F8"/>
<path fill-rule="evenodd" clip-rule="evenodd" d="M196.893 424.851C192.212 424.904 187.625 423.562 183.707 421.001C179.794 418.439 176.724 414.769 174.9 410.458C173.076 406.146 172.572 401.389 173.458 396.796C174.343 392.198 176.576 387.966 179.868 384.641C183.161 381.316 187.371 379.046 191.957 378.123C196.549 377.195 201.305 377.656 205.631 379.438C209.958 381.225 213.653 384.259 216.251 388.152C218.849 392.044 220.233 396.626 220.223 401.304C220.238 407.52 217.789 413.486 213.42 417.898C209.046 422.311 203.102 424.809 196.893 424.851Z" fill="#DCE9F8"/>
<path fill-rule="evenodd" clip-rule="evenodd" d="M283.409 424.851C278.727 424.904 274.141 423.562 270.223 421.001C266.31 418.439 263.24 414.769 261.416 410.458C259.592 406.146 259.088 401.389 259.973 396.796C260.859 392.198 263.091 387.966 266.384 384.641C269.676 381.316 273.886 379.046 278.473 378.123C283.064 377.195 287.82 377.656 292.147 379.438C296.473 381.225 300.169 384.259 302.767 388.152C305.365 392.044 306.749 396.626 306.738 401.304C306.754 407.52 304.305 413.486 299.936 417.898C295.561 422.311 289.618 424.809 283.409 424.851Z" fill="#DCE9F8"/>
<path fill-rule="evenodd" clip-rule="evenodd" d="M369.925 424.851C365.243 424.904 360.656 423.562 356.738 421.001C352.825 418.439 349.755 414.769 347.931 410.458C346.107 406.146 345.604 401.389 346.489 396.796C347.375 392.198 349.607 387.966 352.899 384.641C356.192 381.316 360.402 379.046 364.988 378.123C369.58 377.195 374.336 377.656 378.662 379.438C382.989 381.225 386.685 384.259 389.283 388.152C391.881 392.044 393.264 396.626 393.254 401.304C393.27 407.52 390.82 413.486 386.451 417.898C382.077 422.311 376.133 424.809 369.925 424.851Z" fill="#DCE9F8"/>
<path fill-rule="evenodd" clip-rule="evenodd" d="M456.44 424.851C451.758 424.904 447.172 423.562 443.254 421.001C439.341 418.439 436.271 414.769 434.447 410.458C432.623 406.146 432.119 401.389 433.005 396.796C433.89 392.198 436.122 387.966 439.415 384.641C442.708 381.316 446.918 379.046 451.504 378.123C456.096 377.195 460.851 377.656 465.178 379.438C469.504 381.225 473.2 384.259 475.798 388.152C478.396 392.044 479.78 396.626 479.769 401.304C479.785 407.52 477.336 413.486 472.967 417.898C468.593 422.311 462.649 424.809 456.44 424.851Z" fill="#DCE9F8"/>
<path fill-rule="evenodd" clip-rule="evenodd" d="M23.862 519.252C19.1803 519.305 14.5939 517.963 10.6757 515.401C6.7627 512.84 3.69272 509.17 1.86879 504.858C0.0448596 500.546 -0.45886 495.789 0.426593 491.197C1.31205 486.598 3.54432 482.366 6.83694 479.041C10.1296 475.716 14.3394 473.446 18.9258 472.523C23.5174 471.595 28.2733 472.056 32.5998 473.838C36.9264 475.626 40.622 478.659 43.2201 482.552C45.8181 486.445 47.2019 491.027 47.1913 495.704C47.2072 501.92 44.7577 507.886 40.3888 512.299C36.0145 516.711 30.0708 519.209 23.862 519.252Z" fill="#DCE9F8"/>
<path fill-rule="evenodd" clip-rule="evenodd" d="M110.378 519.252C105.696 519.305 101.11 517.963 97.1913 515.401C93.2783 512.84 90.2083 509.17 88.3844 504.858C86.5605 500.546 86.0568 495.789 86.9422 491.197C87.8277 486.598 90.0599 482.366 93.3526 479.041C96.6452 475.716 100.855 473.446 105.441 472.523C110.033 471.595 114.789 472.056 119.115 473.838C123.442 475.626 127.138 478.659 129.736 482.552C132.334 486.445 133.718 491.027 133.707 495.704C133.723 501.92 131.273 507.886 126.904 512.299C122.53 516.711 116.586 519.209 110.378 519.252Z" fill="#DCE9F8"/>
<path fill-rule="evenodd" clip-rule="evenodd" d="M196.893 519.252C192.212 519.305 187.625 517.963 183.707 515.401C179.794 512.84 176.724 509.17 174.9 504.858C173.076 500.546 172.572 495.789 173.458 491.197C174.343 486.598 176.576 482.366 179.868 479.041C183.161 475.716 187.371 473.446 191.957 472.523C196.549 471.595 201.305 472.056 205.631 473.838C209.958 475.626 213.653 478.659 216.251 482.552C218.849 486.445 220.233 491.027 220.223 495.704C220.238 501.92 217.789 507.886 213.42 512.299C209.046 516.711 203.102 519.209 196.893 519.252Z" fill="#DCE9F8"/>
<path fill-rule="evenodd" clip-rule="evenodd" d="M283.409 519.252C278.727 519.305 274.141 517.963 270.223 515.401C266.31 512.84 263.24 509.17 261.416 504.858C259.592 500.546 259.088 495.789 259.973 491.197C260.859 486.598 263.091 482.366 266.384 479.041C269.676 475.716 273.886 473.446 278.473 472.523C283.064 471.595 287.82 472.056 292.147 473.838C296.473 475.626 300.169 478.659 302.767 482.552C305.365 486.445 306.749 491.027 306.738 495.704C306.754 501.92 304.305 507.886 299.936 512.299C295.561 516.711 289.618 519.209 283.409 519.252Z" fill="#DCE9F8"/>
<path fill-rule="evenodd" clip-rule="evenodd" d="M369.925 519.252C365.243 519.305 360.656 517.963 356.738 515.401C352.825 512.84 349.755 509.17 347.931 504.858C346.107 500.546 345.604 495.789 346.489 491.197C347.375 486.598 349.607 482.366 352.899 479.041C356.192 475.716 360.402 473.446 364.988 472.523C369.58 471.595 374.336 472.056 378.662 473.838C382.989 475.626 386.685 478.659 389.283 482.552C391.881 486.445 393.264 491.027 393.254 495.704C393.27 501.92 390.82 507.886 386.451 512.299C382.077 516.711 376.133 519.209 369.925 519.252Z" fill="#DCE9F8"/>
<path fill-rule="evenodd" clip-rule="evenodd" d="M456.44 519.252C451.758 519.305 447.172 517.963 443.254 515.401C439.341 512.84 436.271 509.17 434.447 504.858C432.623 500.546 432.119 495.789 433.005 491.197C433.89 486.598 436.122 482.366 439.415 479.041C442.708 475.716 446.918 473.446 451.504 472.523C456.096 471.595 460.851 472.056 465.178 473.838C469.504 475.626 473.2 478.659 475.798 482.552C478.396 486.445 479.78 491.027 479.769 495.704C479.785 501.92 477.336 507.886 472.967 512.299C468.593 516.711 462.649 519.209 456.44 519.252Z" fill="#DCE9F8"/>
<path fill-rule="evenodd" clip-rule="evenodd" d="M23.8611 47.5114C19.1793 47.5644 14.593 46.2226 10.6747 43.661C6.76172 41.0995 3.69174 37.4295 1.86781 33.1178C0.043883 28.8061 -0.459836 24.049 0.425616 19.4563C1.31107 14.8582 3.54334 10.6261 6.83596 7.3009C10.1286 3.97566 14.3385 1.70578 18.9248 0.782983C23.5164 -0.145114 28.2723 0.316208 32.5988 2.09816C36.9254 3.88541 40.6211 6.91899 43.2191 10.8117C45.8171 14.7044 47.201 19.2866 47.1904 23.9642C47.2063 30.1798 44.7567 36.1461 40.3878 40.5586C36.0135 44.971 30.0698 47.469 23.8611 47.5114Z" fill="#DCE9F8"/>
<path fill-rule="evenodd" clip-rule="evenodd" d="M110.376 47.5114C105.694 47.5644 101.108 46.2226 97.1893 43.661C93.2764 41.0995 90.2064 37.4295 88.3825 33.1178C86.5585 28.8061 86.0548 24.049 86.9403 19.4563C87.8257 14.8582 90.058 10.6261 93.3506 7.3009C96.6432 3.97566 100.853 1.70578 105.439 0.782983C110.031 -0.145114 114.787 0.316208 119.113 2.09816C123.44 3.88541 127.136 6.91899 129.734 10.8117C132.332 14.7044 133.716 19.2866 133.705 23.9642C133.721 30.1798 131.271 36.1461 126.902 40.5586C122.528 44.971 116.584 47.469 110.376 47.5114Z" fill="#DCE9F8"/>
<path fill-rule="evenodd" clip-rule="evenodd" d="M196.891 47.5114C192.21 47.5644 187.623 46.2226 183.705 43.661C179.792 41.0995 176.722 37.4295 174.898 33.1178C173.074 28.8061 172.57 24.049 173.456 19.4563C174.341 14.8582 176.574 10.6261 179.866 7.3009C183.159 3.97566 187.369 1.70578 191.955 0.782983C196.547 -0.145114 201.303 0.316208 205.629 2.09816C209.956 3.88541 213.651 6.91899 216.249 10.8117C218.847 14.7044 220.231 19.2866 220.221 23.9642C220.237 30.1798 217.787 36.1461 213.418 40.5586C209.044 44.971 203.1 47.469 196.891 47.5114Z" fill="#DCE9F8"/>
<path fill-rule="evenodd" clip-rule="evenodd" d="M283.407 47.5114C278.725 47.5644 274.139 46.2226 270.221 43.661C266.308 41.0995 263.238 37.4295 261.414 33.1178C259.59 28.8061 259.086 24.049 259.972 19.4563C260.857 14.8582 263.089 10.6261 266.382 7.3009C269.674 3.97566 273.884 1.70578 278.471 0.782983C283.062 -0.145114 287.818 0.316208 292.145 2.09816C296.471 3.88541 300.167 6.91899 302.765 10.8117C305.363 14.7044 306.747 19.2866 306.736 23.9642C306.752 30.1798 304.303 36.1461 299.934 40.5586C295.559 44.971 289.616 47.469 283.407 47.5114Z" fill="#DCE9F8"/>
<path fill-rule="evenodd" clip-rule="evenodd" d="M369.923 47.5114C365.241 47.5644 360.654 46.2226 356.736 43.661C352.823 41.0995 349.753 37.4295 347.929 33.1178C346.105 28.8061 345.602 24.049 346.487 19.4563C347.373 14.8582 349.605 10.6261 352.897 7.3009C356.19 3.97566 360.4 1.70578 364.986 0.782983C369.578 -0.145114 374.334 0.316208 378.66 2.09816C382.987 3.88541 386.683 6.91899 389.281 10.8117C391.879 14.7044 393.262 19.2866 393.252 23.9642C393.268 30.1798 390.818 36.1461 386.449 40.5586C382.075 44.971 376.131 47.469 369.923 47.5114Z" fill="#DCE9F8"/>
<path fill-rule="evenodd" clip-rule="evenodd" d="M456.438 47.5114C451.756 47.5644 447.17 46.2226 443.252 43.661C439.339 41.0995 436.269 37.4295 434.445 33.1178C432.621 28.8061 432.117 24.049 433.003 19.4563C433.888 14.8582 436.12 10.6261 439.413 7.3009C442.706 3.97566 446.916 1.70578 451.502 0.782983C456.094 -0.145114 460.849 0.316208 465.176 2.09816C469.503 3.88541 473.198 6.91899 475.796 10.8117C478.394 14.7044 479.778 19.2866 479.768 23.9642C479.783 30.1798 477.334 36.1461 472.965 40.5586C468.591 44.971 462.647 47.469 456.438 47.5114Z" fill="#DCE9F8"/>
<path fill-rule="evenodd" clip-rule="evenodd" d="M23.8611 141.91C19.1793 141.963 14.593 140.621 10.6747 138.059C6.76172 135.498 3.69174 131.828 1.86781 127.516C0.043883 123.205 -0.459836 118.447 0.425616 113.855C1.31107 109.257 3.54334 105.025 6.83596 101.699C10.1286 98.3741 14.3385 96.1042 18.9248 95.1814C23.5164 94.2533 28.2723 94.7146 32.5988 96.4966C36.9254 98.2838 40.6211 101.317 43.2191 105.21C45.8171 109.103 47.201 113.685 47.1904 118.363C47.2063 124.578 44.7567 130.545 40.3878 134.957C36.0135 139.369 30.0698 141.867 23.8611 141.91Z" fill="#DCE9F8"/>
<path fill-rule="evenodd" clip-rule="evenodd" d="M110.376 141.91C105.694 141.963 101.108 140.621 97.1893 138.059C93.2764 135.498 90.2064 131.828 88.3825 127.516C86.5585 123.205 86.0548 118.447 86.9403 113.855C87.8257 109.257 90.058 105.025 93.3506 101.699C96.6432 98.3741 100.853 96.1042 105.439 95.1814C110.031 94.2533 114.787 94.7146 119.113 96.4966C123.44 98.2838 127.136 101.317 129.734 105.21C132.332 109.103 133.716 113.685 133.705 118.363C133.721 124.578 131.271 130.545 126.902 134.957C122.528 139.369 116.584 141.867 110.376 141.91Z" fill="#DCE9F8"/>
<path fill-rule="evenodd" clip-rule="evenodd" d="M196.891 141.91C192.21 141.963 187.623 140.621 183.705 138.059C179.792 135.498 176.722 131.828 174.898 127.516C173.074 123.205 172.57 118.447 173.456 113.855C174.341 109.257 176.574 105.025 179.866 101.699C183.159 98.3741 187.369 96.1042 191.955 95.1814C196.547 94.2533 201.303 94.7146 205.629 96.4966C209.956 98.2838 213.651 101.317 216.249 105.21C218.847 109.103 220.231 113.685 220.221 118.363C220.237 124.578 217.787 130.545 213.418 134.957C209.044 139.369 203.1 141.867 196.891 141.91Z" fill="#DCE9F8"/>
<path fill-rule="evenodd" clip-rule="evenodd" d="M283.407 141.91C278.725 141.963 274.139 140.621 270.221 138.059C266.308 135.498 263.238 131.828 261.414 127.516C259.59 123.205 259.086 118.447 259.972 113.855C260.857 109.257 263.089 105.025 266.382 101.699C269.674 98.3741 273.884 96.1042 278.471 95.1814C283.062 94.2533 287.818 94.7146 292.145 96.4966C296.471 98.2838 300.167 101.317 302.765 105.21C305.363 109.103 306.747 113.685 306.736 118.363C306.752 124.578 304.303 130.545 299.934 134.957C295.559 139.369 289.616 141.867 283.407 141.91Z" fill="#DCE9F8"/>
<path fill-rule="evenodd" clip-rule="evenodd" d="M369.923 141.91C365.241 141.963 360.654 140.621 356.736 138.059C352.823 135.498 349.753 131.828 347.929 127.516C346.105 123.205 345.602 118.447 346.487 113.855C347.373 109.257 349.605 105.025 352.897 101.699C356.19 98.3741 360.4 96.1042 364.986 95.1814C369.578 94.2533 374.334 94.7146 378.66 96.4966C382.987 98.2838 386.683 101.317 389.281 105.21C391.879 109.103 393.262 113.685 393.252 118.363C393.268 124.578 390.818 130.545 386.449 134.957C382.075 139.369 376.131 141.867 369.923 141.91Z" fill="#DCE9F8"/>
<path fill-rule="evenodd" clip-rule="evenodd" d="M456.438 141.91C451.756 141.963 447.17 140.621 443.252 138.059C439.339 135.498 436.269 131.828 434.445 127.516C432.621 123.205 432.117 118.447 433.003 113.855C433.888 109.257 436.12 105.025 439.413 101.699C442.706 98.3741 446.916 96.1042 451.502 95.1814C456.094 94.2533 460.849 94.7146 465.176 96.4966C469.503 98.2838 473.198 101.317 475.796 105.21C478.394 109.103 479.778 113.685 479.768 118.363C479.783 124.578 477.334 130.545 472.965 134.957C468.591 139.369 462.647 141.867 456.438 141.91Z" fill="#DCE9F8"/>
</g>
<defs>
<clipPath id="clip0_2047_5">
<rect width="493" height="519" fill="white"/>
</clipPath>
</defs>
</svg>
