<svg width="38" height="38" viewBox="0 0 38 38" fill="none" xmlns="http://www.w3.org/2000/svg">
<rect x="0.126953" y="0.810547" width="37.0889" height="36.973" rx="18.4865" fill="white"/>
<path d="M18.5235 15.8526V16.0431H18.714H19.7013C19.9129 16.0431 20.1156 16.1269 20.265 16.2758C20.4144 16.4247 20.4982 16.6265 20.4982 16.8368C20.4982 17.0472 20.4144 17.249 20.265 17.3979C20.1156 17.5468 19.9129 17.6306 19.7013 17.6306H17.233C17.0518 17.6306 16.8778 17.7024 16.7495 17.8303C16.6211 17.9583 16.5489 18.132 16.5489 18.3132C16.5489 18.4944 16.6211 18.6681 16.7495 18.7961C16.8778 18.924 17.0518 18.9958 17.233 18.9958H18.2204L18.2206 18.9958C18.7856 18.9952 19.3306 19.204 19.7498 19.5814C20.169 19.9588 20.4324 20.4779 20.4891 21.0378C20.5459 21.5977 20.3919 22.1588 20.0569 22.612C19.722 23.0653 19.23 23.3785 18.6762 23.4906L18.5235 23.5215V23.6773V24.2186C18.5235 24.4289 18.4397 24.6307 18.2904 24.7796C18.141 24.9286 17.9382 25.0123 17.7267 25.0123C17.5152 25.0123 17.3124 24.9286 17.1631 24.7796C17.0137 24.6307 16.9299 24.4289 16.9299 24.2186V23.7265V23.536H16.7394H15.7521C15.5405 23.536 15.3378 23.4522 15.1884 23.3033C15.039 23.1544 14.9552 22.9526 14.9552 22.7422C14.9552 22.5319 15.039 22.3301 15.1884 22.1812C15.3378 22.0323 15.5405 21.9485 15.7521 21.9485H18.2204C18.4016 21.9485 18.5756 21.8767 18.7039 21.7488C18.8323 21.6208 18.9045 21.4471 18.9045 21.2659C18.9045 21.0847 18.8323 20.911 18.7039 20.783C18.5756 20.6551 18.4016 20.5833 18.2204 20.5833H17.233L17.2329 20.5833C16.6678 20.5838 16.1228 20.3751 15.7036 19.9977C15.2845 19.6203 15.021 19.1012 14.9643 18.5413C14.9075 17.9813 15.0615 17.4203 15.3965 16.967C15.7314 16.5138 16.2234 16.2006 16.7772 16.0885L16.9299 16.0576V15.9018V15.3605C16.9299 15.1502 17.0137 14.9483 17.1631 14.7994C17.3124 14.6505 17.5152 14.5668 17.7267 14.5668C17.9382 14.5668 18.141 14.6505 18.2904 14.7994C18.4397 14.9483 18.5235 15.1502 18.5235 15.3605V15.8526ZM25.4348 19.2974V19.4879H25.6253H28.5872C28.7988 19.4879 29.0015 19.5717 29.1509 19.7206C29.3003 19.8695 29.3841 20.0713 29.3841 20.2817V26.1871C29.3841 26.9195 29.0922 27.622 28.5725 28.14C28.0528 28.6581 27.3478 28.9493 26.6126 28.9493H12.7901C12.0549 28.9493 11.3499 28.6581 10.8302 28.14C10.3105 27.622 10.0186 26.9195 10.0186 26.1871V10.4393H10.0186L10.0186 10.4386C10.0181 10.2988 10.0546 10.1614 10.1245 10.0401C10.1944 9.91889 10.2952 9.81814 10.4168 9.74814L10.4168 9.74814C10.538 9.6784 10.6755 9.64167 10.8155 9.64167C10.9554 9.64167 11.0929 9.6784 11.2141 9.74814L11.2146 9.74842L14.1766 11.4413L14.2711 11.4953L14.3656 11.4413L17.3276 9.74842L17.3281 9.74814C17.4492 9.6784 17.5867 9.64167 17.7267 9.64167C17.8667 9.64167 18.0042 9.6784 18.1253 9.74814L18.1258 9.74842L21.0878 11.4413L21.1823 11.4953L21.2769 11.4413L24.2388 9.74842L24.2393 9.74814C24.3605 9.6784 24.498 9.64167 24.638 9.64167C24.7779 9.64167 24.9154 9.6784 25.0366 9.74814L25.1316 9.58303L25.0366 9.74814C25.1582 9.81814 25.259 9.91889 25.3289 10.0401C25.3988 10.1614 25.4353 10.2988 25.4348 10.4386V10.4393V19.2974ZM25.6253 19.1069V10.4393V19.1069ZM11.8969 11.9764L11.6123 11.8147V12.142V26.1871C11.6123 26.4988 11.7365 26.7977 11.9575 27.0179C12.1784 27.2382 12.4779 27.3618 12.7901 27.3618H23.8283H24.1005L24.0073 27.1061C23.8999 26.8112 23.8437 26.5001 23.8411 26.1864V12.142V11.8147L23.5565 11.9764L21.5851 13.0966C21.4606 13.1608 21.3225 13.1944 21.1823 13.1944C21.0422 13.1944 20.9042 13.1609 20.7798 13.0967L17.8212 11.4058L17.7267 11.3518L17.6322 11.4058L14.6736 13.0967C14.5492 13.1609 14.4112 13.1944 14.2711 13.1944C14.1309 13.1944 13.9928 13.1608 13.8683 13.0966L11.8969 11.9764ZM25.6253 21.0754H25.4348V21.2659V26.1871C25.4348 26.4988 25.559 26.7977 25.78 27.0179C26.0009 27.2382 26.3004 27.3618 26.6126 27.3618C26.9248 27.3618 27.2243 27.2382 27.4452 27.0179C27.6662 26.7977 27.7904 26.4988 27.7904 26.1871V21.2659V21.0754H27.5999H25.6253Z" fill="black" stroke="white" stroke-width="0.380994"/>
</svg>
