<svg width="648" height="120" viewBox="0 0 648 120" fill="none" xmlns="http://www.w3.org/2000/svg">
<g clip-path="url(#clip0_1_8877)">
<path d="M219.5 65.6941H243.898C247.329 65.6941 250.109 68.4993 250.109 71.9246C250.109 75.3794 247.329 78.1551 243.898 78.1551H214.472C213.999 78.1551 213.555 78.3322 213.23 78.6275L204.358 86.2753C202.997 87.4565 203.825 89.6711 205.6 89.6711H242.42C242.42 89.6711 242.449 89.6711 242.449 89.6415C242.449 89.612 242.479 89.612 242.479 89.612C242.952 89.6415 243.396 89.6711 243.869 89.6711C253.628 89.6711 261.554 81.728 261.554 71.9246C261.554 62.6232 254.427 54.9754 245.318 54.2372C245.318 54.2372 245.288 54.2372 245.288 54.2076C245.288 54.1781 245.288 54.1781 245.259 54.1781H218.997C215.566 54.1781 212.786 51.3729 212.786 47.9477C212.786 44.4928 215.566 41.7172 218.997 41.7172H248.364C248.837 41.7172 249.31 41.54 249.665 41.2152L257.916 33.5674C259.218 32.3567 258.36 30.2012 256.615 30.2012H219.5C219.352 30.2012 219.174 30.2012 219.026 30.2012C209.267 30.2012 201.341 38.1443 201.341 47.9477C201.341 57.751 209.267 65.6941 219.026 65.6941C219.174 65.6941 219.322 65.6941 219.5 65.6941Z" fill="white"/>
<path d="M361.516 30.1702C360.452 30.1702 359.594 31.0265 359.594 32.119V87.7503C359.594 88.8133 360.452 89.6991 361.516 89.6991H406.173C406.706 89.6991 407.208 89.4629 407.593 89.079L413.182 83.0848C414.336 81.8446 413.478 79.8071 411.763 79.8071H372.784C371.719 79.8071 370.862 78.9508 370.862 77.8583V32.0895C370.862 31.0265 370.004 30.1406 368.939 30.1406H361.516V30.1702Z" fill="white"/>
<path fill-rule="evenodd" clip-rule="evenodd" d="M290.005 30.1699C290.005 30.1995 290.005 30.1995 290.005 30.1699C284.297 30.4357 279.713 35.0126 279.447 40.7115V78.1238C279.447 78.2715 279.447 78.4486 279.447 78.5963C279.447 84.5314 284.119 89.3741 290.005 89.6103H330.521C336.377 89.3445 341.079 84.5019 341.079 78.5963C341.079 78.4486 341.079 78.2715 341.079 78.1238V40.741C340.843 35.0421 336.259 30.4357 330.551 30.1995H290.005V30.1699ZM297.576 40.741C297.546 40.741 297.546 40.741 297.576 40.741C293.997 40.8887 291.128 43.7824 290.98 47.3849V70.9189C290.98 71.0075 290.98 71.1256 290.98 71.2142C290.98 74.9348 293.908 78.0057 297.576 78.1533H322.98C326.647 78.0057 329.575 74.9348 329.575 71.2142C329.575 71.1256 329.575 71.0075 329.575 70.9189V47.3849C329.427 43.7824 326.558 40.9182 322.98 40.741H297.576Z" fill="white"/>
<path fill-rule="evenodd" clip-rule="evenodd" d="M478.096 87.7515C478.096 88.8145 478.954 89.7004 480.019 89.7004H487.59C488.654 89.7004 489.512 88.8441 489.512 87.7515V41.717C489.512 41.5693 489.512 41.3922 489.512 41.2445C489.512 35.3093 484.869 30.4667 479.072 30.2305H440.182C440.034 30.2305 439.857 30.2305 439.709 30.2305C433.676 30.2305 428.796 35.1617 428.796 41.274C428.796 41.4217 428.796 41.5988 428.796 41.7465V87.781C428.796 88.8441 429.654 89.7299 430.718 89.7299H438.289C439.354 89.7299 440.212 88.8736 440.212 87.781V68.6172C440.212 67.5542 441.069 66.6683 442.134 66.6683H476.263C477.327 66.6683 478.185 67.5247 478.185 68.6172V87.7515H478.096ZM440.153 56.0677V46.5005C440.153 42.78 443.14 39.7681 446.807 39.7681H471.472C475.139 39.7681 478.126 42.78 478.126 46.5005V56.0677C478.126 57.1307 477.268 58.0166 476.204 58.0166H442.075C441.01 58.0166 440.153 57.1602 440.153 56.0677Z" fill="white"/>
<path fill-rule="evenodd" clip-rule="evenodd" d="M637.946 89.7006C636.882 89.7006 636.024 88.8443 636.024 87.7517V68.5879C636.024 67.5249 635.166 66.639 634.102 66.639H599.589C598.524 66.639 597.666 67.4954 597.666 68.5879V87.7517C597.666 88.8148 596.809 89.7006 595.744 89.7006H588.114C587.049 89.7006 586.192 88.8443 586.192 87.7517V41.7172C586.192 41.5695 586.192 41.3924 586.192 41.2447C586.192 35.1619 591.13 30.2012 597.223 30.2012C597.371 30.2012 597.548 30.2012 597.696 30.2012H637C642.856 30.4669 647.558 35.3096 647.558 41.2152C647.558 41.3629 647.558 41.54 647.558 41.6877V87.7222C647.558 88.7852 646.7 89.6711 645.636 89.6711H637.946V89.7006ZM597.666 46.5008V56.0679C597.666 57.1309 598.524 58.0168 599.589 58.0168H634.102C635.166 58.0168 636.024 57.1605 636.024 56.0679V46.5008C636.024 42.7802 633.008 39.7683 629.311 39.7683H604.38C600.653 39.7683 597.666 42.7802 597.666 46.5008Z" fill="white"/>
<path d="M518.022 30.1719C518.583 30.1719 519.116 30.4081 519.471 30.851L553.422 71.2752C554.575 72.6335 556.793 71.8067 556.793 70.0055V32.1207C556.793 31.0577 557.651 30.1719 558.716 30.1719H566.287C567.351 30.1719 568.209 31.0282 568.209 32.1207V87.752C568.209 88.815 567.351 89.7008 566.287 89.7008H556.882C556.853 89.7008 556.823 89.6713 556.823 89.6418C556.823 89.6123 556.823 89.6123 556.793 89.5827L522.251 49.4538C521.097 48.0955 518.879 48.9518 518.879 50.7235V87.7815C518.879 88.8445 518.022 89.7304 516.957 89.7304H509.327C508.262 89.7304 507.404 88.874 507.404 87.7815V32.1207C507.404 31.0577 508.262 30.1719 509.327 30.1719H518.022Z" fill="white"/>
<path d="M25.286 91.7381C26.2324 90.7932 27.5041 90.2617 28.8349 90.2617H152.012C154.259 90.2617 155.383 92.9783 153.786 94.5433L129.447 118.845C128.5 119.79 127.228 120.321 125.898 120.321H2.72086C0.473213 120.321 -0.650608 117.605 0.946401 116.04L25.286 91.7381Z" fill="white"/>
<path d="M25.286 1.02719C26.2324 0.0822898 27.5041 -0.449219 28.8349 -0.449219H152.012C154.259 -0.449219 155.383 2.26738 153.786 3.83238L129.447 28.1046C128.5 29.0495 127.228 29.581 125.898 29.581H2.72086C0.473213 29.581 -0.650608 26.8644 0.946401 25.2994L25.286 1.02719Z" fill="white"/>
<path d="M129.447 46.0858C128.5 45.1409 127.228 44.6094 125.898 44.6094H2.72086C0.473213 44.6094 -0.650608 47.326 0.946401 48.891L25.286 73.1632C26.2324 74.1081 27.5041 74.6396 28.8349 74.6396H152.012C154.259 74.6396 155.383 71.923 153.786 70.358L129.447 46.0858Z" fill="white"/>
</g>
<defs>
<clipPath id="clip0_1_8877">
<rect width="648" height="120" fill="white"/>
</clipPath>
</defs>
</svg>
