<?xml version="1.0" encoding="utf-8"?><svg viewBox="0 0 360 784" xmlns="http://www.w3.org/2000/svg" xmlns:xlink="http://www.w3.org/1999/xlink"><style>:root>svg{display:none}:root>svg:target{display:block}</style><svg viewBox="0 0 85 35" id="header-bottom-border" xmlns="http://www.w3.org/2000/svg"><rect x=".67" y=".67" width="83.66" height="33.66" rx="16.83"/><defs><linearGradient id="aa" x1="0" y1="17.5" x2="85" y2="17.5" gradientUnits="userSpaceOnUse"><stop stop-color="#588CE4"/><stop offset="1" stop-color="#36D1DC"/></linearGradient></defs></svg><svg viewBox="0 0 360 784" id="hero-360-bg" xmlns="http://www.w3.org/2000/svg"><g clip-path="url(#ba)"><path d="M0 0h360v784H0z"/><g filter="url(#bc)" fill-rule="evenodd" clip-rule="evenodd"><path d="M62.702 336.012c72.877 6.92 136.395 35.041 183.955 74.574 43.489 36.149 53.008 82.673 61.755 129.667 10.799 58.024 45.872 123.245-6.201 168.825-53.973 47.242-153.465 45.438-239.51 46.242-87.65.82-191.944 6.966-245.948-41.703-52.53-47.341 6.482-113.266 7.307-173.364.809-58.924-55.738-124.555-2.591-170.04 54.207-46.394 156.73-42.225 241.233-34.201z"/><path d="M553.702 329.012c72.877 6.92 136.395 35.041 183.955 74.574 43.489 36.149 53.008 82.673 61.755 129.667 10.799 58.024 45.872 123.245-6.201 168.825-53.973 47.242-153.465 45.438-239.509 46.242-87.651.82-191.945 6.966-245.949-41.703-52.53-47.341 6.482-113.266 7.307-173.364.809-58.924-55.738-124.555-2.591-170.04 54.207-46.394 156.729-42.225 241.233-34.201zM97.702-210.988c72.877 6.92 136.395 35.041 183.955 74.574 43.489 36.149 53.008 82.673 61.755 129.667 10.799 58.024 45.872 123.245-6.201 168.825-53.973 47.242-153.465 45.438-239.51 46.242-87.65.82-191.944 6.966-245.948-41.703-52.53-47.341 6.482-113.266 7.307-173.364.809-58.924-55.738-124.555-2.591-170.04 54.207-46.394 156.73-42.225 241.233-34.201z" fill-opacity=".75"/></g></g><defs><linearGradient id="bb" x1="325.969" y1="-295.815" x2="-219.947" y2="-26.393" gradientUnits="userSpaceOnUse"><stop stop-color="#003A5A"/><stop offset=".644" stop-color="#000C3D"/></linearGradient><clipPath id="ba"><path d="M0 0h360v784H0z"/></clipPath><filter id="bc" x="-705" y="-716" width="2026" height="1972" filterUnits="userSpaceOnUse" color-interpolation-filters="sRGB"><feFlood flood-opacity="0" result="BackgroundImageFix"/><feBlend in="SourceGraphic" in2="BackgroundImageFix" result="shape"/><feGaussianBlur stdDeviation="250" result="effect1_foregroundBlur_2001_4270"/></filter></defs></svg></svg>