<svg width="449" height="155" viewBox="0 0 449 155" fill="none" xmlns="http://www.w3.org/2000/svg">
<path d="M33.4352 78.8124C19.2161 42.5786 8.11348 12.2524 8.69783 11.4647C9.47696 10.874 32.6561 14.4186 60.1204 19.3417L110.374 28.597L123.425 41.7909L136.28 55.1817L100.051 99.8832C79.9883 124.499 62.6526 144.585 61.4839 144.585C60.3152 144.782 47.8491 115.046 33.4352 78.8124ZM63.8213 92.0063C65.5743 77.6309 66.743 65.6186 66.3535 65.2247C65.9639 65.0278 58.1726 58.5294 49.0178 51.0463C23.1117 29.5817 24.8648 30.5663 27.9813 38.4432C29.5396 42.1847 37.3309 61.877 45.317 82.1601C53.303 102.246 59.9256 118.591 60.1204 118.394C60.3152 118.197 62.0683 106.382 63.8213 92.0063ZM94.4022 90.6278C106.868 75.4647 116.607 62.8617 116.413 62.4678C115.828 61.877 77.8456 68.3755 76.6769 69.1632C75.703 69.754 70.6387 108.745 70.4439 115.046C70.4439 117.606 70.8335 119.379 71.223 118.985C71.6126 118.591 82.1309 105.791 94.4022 90.6278ZM106.089 54.197L119.529 51.637L113.686 45.7293C107.063 39.034 106.479 39.2309 91.87 52.2278C86.8056 56.757 86.0265 58.1355 88.9482 57.3478C91.0909 56.954 98.8822 55.3786 106.089 54.197ZM84.2735 45.9263C90.8961 40.2155 95.5709 35.4893 94.5969 35.0955C88.1691 33.5201 36.5517 24.6586 35.383 25.0524C33.8248 25.6432 68.3013 55.7724 70.8335 55.9693C71.4178 56.1663 77.4561 51.637 84.2735 45.9263Z" fill="white"/>
<path d="M415.989 89.6434L392.81 62.0741L392.226 86.6895C391.836 109.729 391.447 111.305 387.941 111.305C384.24 111.305 384.045 109.729 384.045 74.8741C384.045 54.788 384.434 38.4434 384.824 38.4434C385.408 38.4434 396.121 50.4557 408.782 65.2249L431.767 92.0064L432.351 68.1787C432.741 45.9264 433.13 44.3511 436.636 44.3511C440.337 44.3511 440.532 45.9264 440.532 80.7818C440.532 100.868 440.337 117.213 439.948 117.213C439.558 117.213 428.845 104.806 415.989 89.6434Z" fill="white"/>
<path d="M177.574 87.6737C177.574 65.4214 177.769 64.043 181.47 64.043C185.171 64.043 185.366 65.4214 185.366 87.6737C185.366 109.926 185.171 111.305 181.47 111.305C177.769 111.305 177.574 109.926 177.574 87.6737Z" fill="white"/>
<path d="M189.262 87.6737C189.262 65.4214 189.457 64.043 193.157 64.043C196.858 64.043 197.053 65.4214 197.053 87.6737C197.053 109.926 196.858 111.305 193.157 111.305C189.457 111.305 189.262 109.926 189.262 87.6737Z" fill="white"/>
<path d="M230.166 77.8285V44.3516H252.761C265.032 44.3516 276.914 45.3362 279.056 46.3208C281.004 47.5023 284.121 51.0469 285.679 54.1977C290.354 63.2562 289.38 70.9362 282.757 78.6162L276.719 85.5085L282.757 97.3239C285.874 103.822 288.601 109.73 288.601 110.321C288.601 110.912 286.653 111.305 284.316 111.305C280.809 111.305 278.277 108.352 273.018 98.5054C266.59 86.2962 265.811 85.7054 258.994 85.7054H251.592V98.5054C251.592 109.927 251.203 111.305 247.696 111.305C244.19 111.305 243.801 109.927 243.801 94.7639V78.4193L258.604 77.4346C273.797 76.45 277.303 74.4808 279.836 66.6039C280.615 63.2562 279.641 60.8931 276.135 57.1516C271.655 52.6223 269.707 52.2285 254.514 52.2285H237.957V81.7669C237.957 109.927 237.763 111.305 234.062 111.305C230.361 111.305 230.166 109.927 230.166 77.8285Z" fill="white"/>
<path d="M324.636 108.352C304.378 101.065 296.392 76.0562 308.663 58.1362C314.507 49.2746 324.441 44.3516 336.517 44.3516C360.67 44.3516 375.863 70.1485 365.15 92.9916C358.917 106.579 339.829 113.865 324.636 108.352ZM351.905 95.5516C362.618 85.3116 363.008 69.7546 352.684 59.9085C337.102 45.1393 311.78 55.5762 311.975 76.45C312.17 86.4931 315.286 92.5977 322.883 97.7177C330.479 103.035 345.283 101.853 351.905 95.5516Z" fill="white"/>
<path d="M331.453 77.0399C331.453 72.9045 332.427 71.9199 336.517 71.9199C340.608 71.9199 341.387 72.7076 340.803 76.4492C340.413 79.2061 338.66 80.9784 335.933 81.3722C332.232 81.963 331.453 81.1753 331.453 77.0399Z" fill="white"/>
<path d="M395.73 97.5209C395.73 85.1148 396.12 83.7363 399.626 83.7363C403.132 83.7363 403.522 85.1148 403.522 97.5209C403.522 109.927 403.132 111.306 399.626 111.306C396.12 111.306 395.73 109.927 395.73 97.5209Z" fill="white"/>
<path d="M158.096 48.29C158.096 44.5485 159.459 44.3516 187.313 44.3516C215.167 44.3516 216.53 44.5485 216.53 48.29C216.53 52.0316 215.167 52.2285 187.313 52.2285C159.459 52.2285 158.096 52.0316 158.096 48.29Z" fill="white"/>
</svg>
