<svg width="540" height="185" viewBox="0 0 540 185" fill="none" xmlns="http://www.w3.org/2000/svg">
<mask id="path-1-outside-1_1_8838" maskUnits="userSpaceOnUse" x="133.853" y="55.0723" width="406" height="75" fill="black">
<rect fill="white" x="133.853" y="55.0723" width="406" height="75"/>
<path d="M172.95 107.746C172.95 108.629 172.211 109.348 171.328 109.348H140.097C140.882 117.06 146.684 124.093 154.853 124.093C157.381 124.204 159.895 123.656 162.147 122.502C164.399 121.348 166.312 119.628 167.698 117.511C168.156 116.897 168.83 116.505 169.686 116.877C169.916 116.977 170.117 117.133 170.271 117.331C170.426 117.528 170.528 117.761 170.569 118.008C170.654 118.518 170.504 118.806 170.373 119.093C167.234 124.57 160.974 127.263 154.84 127.263C144.336 127.263 136.853 117.871 136.853 107.825C136.853 97.779 144.342 88.3866 154.84 88.3866C165.337 88.3866 172.937 97.7332 172.957 107.766M169.686 106.25C169.006 98.5371 163.1 91.5043 154.931 91.5043C146.762 91.5043 140.954 98.5371 140.176 106.25H169.686ZM210.93 89.1448C211.833 89.1448 212.487 89.9291 212.487 90.7004C212.487 91.6024 211.807 92.256 210.93 92.256H202.559V125.087C202.559 125.871 201.879 126.642 201.002 126.642C200.126 126.642 199.445 125.858 199.445 125.087V92.256H191.401C190.498 92.256 189.844 91.5762 189.844 90.7004C189.844 89.9161 190.524 89.1448 191.401 89.1448H199.445V77.1053C199.445 76.3472 199.956 75.6478 200.754 75.5236C201.8 75.3602 202.618 76.0792 202.618 77.0596V89.1187L210.93 89.1448ZM261.946 105.014V124.904C261.946 125.806 261.161 126.459 260.389 126.459C259.487 126.459 258.833 125.78 258.833 124.904V105.08C258.833 98.3737 255.039 91.6677 247.544 91.6677C237.943 91.6677 233.796 100.054 234.352 108.648C234.352 108.877 234.457 109.877 234.457 109.982V124.91C234.457 125.668 233.946 126.368 233.148 126.492C232.102 126.655 231.284 125.936 231.284 124.956V59.6279C231.284 58.8435 231.965 58.0723 232.841 58.0723C233.717 58.0723 234.398 58.8566 234.398 59.6279V96.6025C237.014 91.805 241.886 88.5631 247.465 88.5631C256.635 88.5631 261.894 96.6025 261.894 105.099M317.893 107.845C317.893 108.727 317.154 109.446 316.271 109.446H285.021C285.806 117.158 291.607 124.191 299.776 124.191C302.305 124.302 304.819 123.754 307.071 122.6C309.323 121.446 311.236 119.726 312.622 117.609C313.079 116.995 313.753 116.603 314.61 116.975C314.84 117.075 315.041 117.231 315.195 117.429C315.349 117.626 315.451 117.859 315.493 118.106C315.578 118.616 315.427 118.904 315.297 119.191C312.157 124.668 305.898 127.361 299.763 127.361C289.259 127.361 281.777 117.969 281.777 107.923C281.777 97.877 289.266 88.4847 299.763 88.4847C310.26 88.4847 317.88 97.8312 317.9 107.864M314.531 106.348C313.851 98.6352 307.945 91.6024 299.776 91.6024C291.607 91.6024 285.799 98.6352 285.021 106.348H314.531ZM356.299 90.7004C356.299 91.7069 355.743 92.256 354.84 92.3802C345.67 93.7135 341.543 101.204 341.543 109.91V124.838C341.543 125.597 341.033 126.296 340.235 126.42C339.189 126.583 338.371 125.865 338.371 124.884V90.8638C338.371 90.1056 338.881 89.4062 339.679 89.2821C340.726 89.1186 341.543 89.8376 341.543 90.818V97.7463C344.107 93.3998 349.261 89.2494 354.611 89.2494C355.396 89.2298 356.292 89.8049 356.292 90.6873M407.589 107.851C407.589 108.733 406.85 109.452 405.967 109.452H374.736C375.521 117.165 381.322 124.198 389.491 124.198C392.02 124.309 394.534 123.76 396.786 122.606C399.038 121.452 400.951 119.733 402.337 117.616C402.795 117.002 403.468 116.609 404.325 116.982C404.555 117.082 404.756 117.238 404.91 117.435C405.065 117.633 405.167 117.866 405.208 118.113C405.293 118.623 405.143 118.91 405.012 119.198C401.873 124.675 395.613 127.368 389.478 127.368C378.974 127.368 371.492 117.975 371.492 107.929C371.492 97.8835 378.981 88.4912 389.478 88.4912C399.976 88.4912 407.576 97.8378 407.595 107.871M404.325 106.354C403.645 98.6417 397.739 91.6089 389.57 91.6089C381.401 91.6089 375.593 98.6417 374.815 106.354H404.325ZM458.088 91.0991V125.198C458.088 126.1 457.303 126.753 456.531 126.753C455.629 126.753 454.975 126.074 454.975 125.198V118.662C452.411 123.806 447.813 127.485 442.005 127.485C432.73 127.485 427.577 119.446 427.577 110.949V90.9488C427.577 90.1644 428.257 89.3932 429.133 89.3932C430.01 89.3932 430.69 90.1775 430.69 90.9488V110.949C430.69 117.655 434.483 124.361 441.979 124.361C452.483 124.361 454.948 114.537 454.948 103.694V90.8965C454.948 89.9945 455.851 89.0664 456.956 89.3932C457.637 89.6219 458.088 90.2755 458.088 90.9749M537.096 104.877V124.878C537.096 125.78 536.312 126.433 535.54 126.433C534.637 126.433 533.983 125.753 533.983 124.878V104.877C533.983 98.1711 530.19 91.5893 522.694 91.5893C513.296 91.5893 509.725 101.635 509.725 109.452V124.878C509.725 125.78 508.94 126.433 508.168 126.433C507.266 126.433 506.611 125.753 506.611 124.878V104.877C506.611 98.1711 502.818 91.5893 495.323 91.5893C485.819 91.5893 481.902 99.0731 482.255 109.021C482.255 109.25 482.359 109.701 482.255 109.805V124.838C482.255 125.597 481.745 126.296 480.979 126.42C479.933 126.583 479.115 125.865 479.115 124.884V90.7004C479.115 89.9422 479.625 89.2428 480.423 89.1187C481.47 88.9552 482.288 89.6742 482.288 90.6546V96.3541C484.904 91.5566 489.776 88.4193 495.355 88.4193C501.719 88.4193 506.644 92.439 508.652 98.3672C511.216 92.5632 516.239 88.4193 522.727 88.4193C531.897 88.4193 537.155 96.2626 537.155 104.759"/>
</mask>
<path d="M172.95 107.746C172.95 108.629 172.211 109.348 171.328 109.348H140.097C140.882 117.06 146.684 124.093 154.853 124.093C157.381 124.204 159.895 123.656 162.147 122.502C164.399 121.348 166.312 119.628 167.698 117.511C168.156 116.897 168.83 116.505 169.686 116.877C169.916 116.977 170.117 117.133 170.271 117.331C170.426 117.528 170.528 117.761 170.569 118.008C170.654 118.518 170.504 118.806 170.373 119.093C167.234 124.57 160.974 127.263 154.84 127.263C144.336 127.263 136.853 117.871 136.853 107.825C136.853 97.779 144.342 88.3866 154.84 88.3866C165.337 88.3866 172.937 97.7332 172.957 107.766M169.686 106.25C169.006 98.5371 163.1 91.5043 154.931 91.5043C146.762 91.5043 140.954 98.5371 140.176 106.25H169.686ZM210.93 89.1448C211.833 89.1448 212.487 89.9291 212.487 90.7004C212.487 91.6024 211.807 92.256 210.93 92.256H202.559V125.087C202.559 125.871 201.879 126.642 201.002 126.642C200.126 126.642 199.445 125.858 199.445 125.087V92.256H191.401C190.498 92.256 189.844 91.5762 189.844 90.7004C189.844 89.9161 190.524 89.1448 191.401 89.1448H199.445V77.1053C199.445 76.3472 199.956 75.6478 200.754 75.5236C201.8 75.3602 202.618 76.0792 202.618 77.0596V89.1187L210.93 89.1448ZM261.946 105.014V124.904C261.946 125.806 261.161 126.459 260.389 126.459C259.487 126.459 258.833 125.78 258.833 124.904V105.08C258.833 98.3737 255.039 91.6677 247.544 91.6677C237.943 91.6677 233.796 100.054 234.352 108.648C234.352 108.877 234.457 109.877 234.457 109.982V124.91C234.457 125.668 233.946 126.368 233.148 126.492C232.102 126.655 231.284 125.936 231.284 124.956V59.6279C231.284 58.8435 231.965 58.0723 232.841 58.0723C233.717 58.0723 234.398 58.8566 234.398 59.6279V96.6025C237.014 91.805 241.886 88.5631 247.465 88.5631C256.635 88.5631 261.894 96.6025 261.894 105.099M317.893 107.845C317.893 108.727 317.154 109.446 316.271 109.446H285.021C285.806 117.158 291.607 124.191 299.776 124.191C302.305 124.302 304.819 123.754 307.071 122.6C309.323 121.446 311.236 119.726 312.622 117.609C313.079 116.995 313.753 116.603 314.61 116.975C314.84 117.075 315.041 117.231 315.195 117.429C315.349 117.626 315.451 117.859 315.493 118.106C315.578 118.616 315.427 118.904 315.297 119.191C312.157 124.668 305.898 127.361 299.763 127.361C289.259 127.361 281.777 117.969 281.777 107.923C281.777 97.877 289.266 88.4847 299.763 88.4847C310.26 88.4847 317.88 97.8312 317.9 107.864M314.531 106.348C313.851 98.6352 307.945 91.6024 299.776 91.6024C291.607 91.6024 285.799 98.6352 285.021 106.348H314.531ZM356.299 90.7004C356.299 91.7069 355.743 92.256 354.84 92.3802C345.67 93.7135 341.543 101.204 341.543 109.91V124.838C341.543 125.597 341.033 126.296 340.235 126.42C339.189 126.583 338.371 125.865 338.371 124.884V90.8638C338.371 90.1056 338.881 89.4062 339.679 89.2821C340.726 89.1186 341.543 89.8376 341.543 90.818V97.7463C344.107 93.3998 349.261 89.2494 354.611 89.2494C355.396 89.2298 356.292 89.8049 356.292 90.6873M407.589 107.851C407.589 108.733 406.85 109.452 405.967 109.452H374.736C375.521 117.165 381.322 124.198 389.491 124.198C392.02 124.309 394.534 123.76 396.786 122.606C399.038 121.452 400.951 119.733 402.337 117.616C402.795 117.002 403.468 116.609 404.325 116.982C404.555 117.082 404.756 117.238 404.91 117.435C405.065 117.633 405.167 117.866 405.208 118.113C405.293 118.623 405.143 118.91 405.012 119.198C401.873 124.675 395.613 127.368 389.478 127.368C378.974 127.368 371.492 117.975 371.492 107.929C371.492 97.8835 378.981 88.4912 389.478 88.4912C399.976 88.4912 407.576 97.8378 407.595 107.871M404.325 106.354C403.645 98.6417 397.739 91.6089 389.57 91.6089C381.401 91.6089 375.593 98.6417 374.815 106.354H404.325ZM458.088 91.0991V125.198C458.088 126.1 457.303 126.753 456.531 126.753C455.629 126.753 454.975 126.074 454.975 125.198V118.662C452.411 123.806 447.813 127.485 442.005 127.485C432.73 127.485 427.577 119.446 427.577 110.949V90.9488C427.577 90.1644 428.257 89.3932 429.133 89.3932C430.01 89.3932 430.69 90.1775 430.69 90.9488V110.949C430.69 117.655 434.483 124.361 441.979 124.361C452.483 124.361 454.948 114.537 454.948 103.694V90.8965C454.948 89.9945 455.851 89.0664 456.956 89.3932C457.637 89.6219 458.088 90.2755 458.088 90.9749M537.096 104.877V124.878C537.096 125.78 536.312 126.433 535.54 126.433C534.637 126.433 533.983 125.753 533.983 124.878V104.877C533.983 98.1711 530.19 91.5893 522.694 91.5893C513.296 91.5893 509.725 101.635 509.725 109.452V124.878C509.725 125.78 508.94 126.433 508.168 126.433C507.266 126.433 506.611 125.753 506.611 124.878V104.877C506.611 98.1711 502.818 91.5893 495.323 91.5893C485.819 91.5893 481.902 99.0731 482.255 109.021C482.255 109.25 482.359 109.701 482.255 109.805V124.838C482.255 125.597 481.745 126.296 480.979 126.42C479.933 126.583 479.115 125.865 479.115 124.884V90.7004C479.115 89.9422 479.625 89.2428 480.423 89.1187C481.47 88.9552 482.288 89.6742 482.288 90.6546V96.3541C484.904 91.5566 489.776 88.4193 495.355 88.4193C501.719 88.4193 506.644 92.439 508.652 98.3672C511.216 92.5632 516.239 88.4193 522.727 88.4193C531.897 88.4193 537.155 96.2626 537.155 104.759" fill="white"/>
<path d="M140.097 109.348V107.214H137.736L137.975 109.564L140.097 109.348ZM154.853 124.093L154.946 121.962L154.899 121.96H154.853V124.093ZM167.698 117.511L165.987 116.237L165.949 116.289L165.913 116.343L167.698 117.511ZM169.686 116.877L170.538 114.921L170.537 114.921L169.686 116.877ZM170.569 118.008L172.674 117.657L172.674 117.657L170.569 118.008ZM170.373 119.093L172.224 120.154L172.274 120.067L172.315 119.976L170.373 119.093ZM169.686 106.25V108.383H172.016L171.811 106.062L169.686 106.25ZM140.176 106.25L138.053 106.036L137.816 108.383H140.176V106.25ZM210.93 89.1448L210.924 91.2781H210.93V89.1448ZM202.559 92.256V90.1226H200.425V92.256H202.559ZM199.445 92.256H201.579V90.1226H199.445V92.256ZM199.445 89.1448V91.2781H201.579V89.1448H199.445ZM200.754 75.5236L201.082 77.6316L201.083 77.6314L200.754 75.5236ZM202.618 89.1187H200.484V91.2453L202.611 91.252L202.618 89.1187ZM234.352 108.648H236.485V108.58L236.481 108.511L234.352 108.648ZM233.148 126.492L232.82 124.384L232.819 124.384L233.148 126.492ZM234.398 96.6025H232.264L236.271 97.6238L234.398 96.6025ZM285.021 109.446V107.313H282.659L282.898 109.662L285.021 109.446ZM299.776 124.191L299.87 122.06L299.823 122.058H299.776V124.191ZM312.622 117.609L310.911 116.335L310.872 116.387L310.837 116.441L312.622 117.609ZM314.61 116.975L315.461 115.019L315.46 115.019L314.61 116.975ZM315.493 118.106L317.597 117.755L317.597 117.755L315.493 118.106ZM315.297 119.191L317.147 120.252L317.197 120.165L317.238 120.074L315.297 119.191ZM314.531 106.348V108.481H316.861L316.656 106.16L314.531 106.348ZM285.021 106.348L282.898 106.134L282.661 108.481H285.021V106.348ZM354.84 92.3802L354.549 90.2667L354.541 90.2679L354.533 90.269L354.84 92.3802ZM340.235 126.42L339.907 124.312L339.906 124.312L340.235 126.42ZM339.679 89.2821L340.007 91.39L340.008 91.3898L339.679 89.2821ZM341.543 97.7463H339.41V105.562L343.381 98.8302L341.543 97.7463ZM354.611 89.2494V91.3827H354.638L354.665 91.382L354.611 89.2494ZM374.736 109.452V107.319H372.375L372.614 109.668L374.736 109.452ZM389.491 124.198L389.585 122.067L389.538 122.064H389.491V124.198ZM402.337 117.616L400.626 116.341L400.588 116.393L400.552 116.447L402.337 117.616ZM404.325 116.982L405.177 115.026L405.176 115.026L404.325 116.982ZM405.208 118.113L407.312 117.762L407.312 117.761L405.208 118.113ZM405.012 119.198L406.863 120.259L406.913 120.172L406.954 120.081L405.012 119.198ZM404.325 106.354V108.488H406.655L406.45 106.167L404.325 106.354ZM374.815 106.354L372.692 106.14L372.455 108.488H374.815V106.354ZM454.975 118.662H457.108L453.065 117.71L454.975 118.662ZM456.956 89.3932L457.636 87.3711L457.599 87.3586L457.561 87.3474L456.956 89.3932ZM482.255 109.021H484.388V108.983L484.387 108.945L482.255 109.021ZM482.255 109.805L480.747 108.296L480.121 108.921V109.805H482.255ZM480.979 126.42L481.309 128.528L481.321 128.526L480.979 126.42ZM480.423 89.1187L480.751 91.2266L480.753 91.2264L480.423 89.1187ZM482.288 96.3541H480.154L484.16 97.3755L482.288 96.3541ZM508.652 98.3672L506.631 99.0516L508.389 104.242L510.603 99.2292L508.652 98.3672ZM170.817 107.746C170.817 107.578 170.889 107.44 170.975 107.356C171.059 107.274 171.183 107.214 171.328 107.214V111.481C173.354 111.481 175.083 109.842 175.083 107.746H170.817ZM171.328 107.214H140.097V111.481H171.328V107.214ZM137.975 109.564C138.838 118.049 145.298 126.227 154.853 126.227V121.96C148.069 121.96 142.926 116.072 142.22 109.132L137.975 109.564ZM154.759 126.225C157.657 126.352 160.539 125.723 163.12 124.4L161.174 120.603C159.252 121.588 157.105 122.057 154.946 121.962L154.759 126.225ZM163.12 124.4C165.702 123.078 167.894 121.106 169.483 118.68L165.913 116.343C164.73 118.15 163.097 119.618 161.174 120.603L163.12 124.4ZM169.409 118.786C169.483 118.686 169.468 118.754 169.31 118.815C169.223 118.848 169.118 118.869 169.011 118.865C168.906 118.862 168.844 118.837 168.836 118.834L170.537 114.921C169.625 114.524 168.661 114.492 167.775 114.834C166.952 115.151 166.371 115.722 165.987 116.237L169.409 118.786ZM168.835 118.833C168.739 118.792 168.655 118.726 168.59 118.644L171.953 116.018C171.58 115.54 171.094 115.163 170.538 114.921L168.835 118.833ZM168.59 118.644C168.525 118.561 168.482 118.463 168.465 118.36L172.674 117.657C172.574 117.059 172.326 116.495 171.953 116.018L168.59 118.644ZM168.465 118.359C168.464 118.352 168.459 118.319 168.461 118.266C168.464 118.211 168.472 118.158 168.484 118.112C168.495 118.068 168.505 118.046 168.5 118.059C168.496 118.066 168.491 118.079 168.479 118.105C168.473 118.118 168.467 118.132 168.459 118.15C168.451 118.167 168.441 118.188 168.431 118.21L172.315 119.976C172.451 119.678 172.874 118.861 172.674 117.657L168.465 118.359ZM168.522 118.032C165.86 122.677 160.427 125.13 154.84 125.13V129.397C161.522 129.397 168.607 126.464 172.224 120.154L168.522 118.032ZM154.84 125.13C145.755 125.13 138.987 116.949 138.987 107.825H134.72C134.72 118.793 142.916 129.397 154.84 129.397V125.13ZM138.987 107.825C138.987 98.7014 145.761 90.5199 154.84 90.5199V86.2533C142.923 86.2533 134.72 96.8565 134.72 107.825H138.987ZM154.84 90.5199C163.941 90.5199 170.805 98.6819 170.823 107.77L175.09 107.762C175.068 96.7845 166.733 86.2533 154.84 86.2533V90.5199ZM171.811 106.062C171.059 97.5286 164.466 89.371 154.931 89.371V93.6377C161.734 93.6377 166.953 99.5457 167.561 106.437L171.811 106.062ZM154.931 89.371C145.377 89.371 138.91 97.5474 138.053 106.036L142.298 106.464C142.998 99.5269 148.147 93.6377 154.931 93.6377V89.371ZM140.176 108.383H169.686V104.116H140.176V108.383ZM210.93 91.2781C210.735 91.2781 210.58 91.1869 210.497 91.0984C210.429 91.0274 210.354 90.9028 210.354 90.7004H214.62C214.62 88.8668 213.124 87.0115 210.93 87.0115V91.2781ZM210.354 90.7004C210.354 90.5971 210.401 90.4344 210.538 90.2986C210.672 90.1664 210.828 90.1226 210.93 90.1226V94.3893C212.96 94.3893 214.62 92.8055 214.62 90.7004H210.354ZM210.93 90.1226H202.559V94.3893H210.93V90.1226ZM200.425 92.256V125.087H204.692V92.256H200.425ZM200.425 125.087C200.425 124.873 200.509 124.745 200.571 124.68C200.645 124.603 200.793 124.509 201.002 124.509V128.776C203.135 128.776 204.692 126.969 204.692 125.087H200.425ZM201.002 124.509C201.222 124.509 201.37 124.609 201.437 124.68C201.491 124.736 201.579 124.861 201.579 125.087H197.312C197.312 126.945 198.858 128.776 201.002 128.776V124.509ZM201.579 125.087V92.256H197.312V125.087H201.579ZM199.445 90.1226H191.401V94.3893H199.445V90.1226ZM191.401 90.1226C191.503 90.1226 191.665 90.1691 191.801 90.3065C191.933 90.4403 191.977 90.5963 191.977 90.7004H187.711C187.711 92.732 189.298 94.3893 191.401 94.3893V90.1226ZM191.977 90.7004C191.977 90.9145 191.894 91.0419 191.832 91.1069C191.758 91.184 191.609 91.2781 191.401 91.2781V87.0115C189.267 87.0115 187.711 88.818 187.711 90.7004H191.977ZM191.401 91.2781H199.445V87.0115H191.401V91.2781ZM201.579 89.1448V77.1053H197.312V89.1448H201.579ZM201.579 77.1053C201.579 77.1999 201.548 77.3065 201.468 77.4064C201.38 77.5177 201.238 77.6072 201.082 77.6316L200.425 73.4156C198.461 73.7214 197.312 75.4302 197.312 77.1053H201.579ZM201.083 77.6314C201.032 77.6393 200.868 77.6329 200.705 77.4954C200.545 77.3605 200.484 77.1812 200.484 77.0596H204.751C204.751 74.7316 202.727 73.0563 200.424 73.4158L201.083 77.6314ZM200.484 77.0596V89.1187H204.751V77.0596H200.484ZM202.611 91.252L210.924 91.2781L210.937 87.0115L202.624 86.9853L202.611 91.252ZM259.813 105.014V124.904H264.079V105.014H259.813ZM259.813 124.904C259.813 124.707 259.905 124.551 259.993 124.468C260.064 124.401 260.188 124.326 260.389 124.326V128.593C262.221 128.593 264.079 127.099 264.079 124.904H259.813ZM260.389 124.326C260.492 124.326 260.654 124.372 260.789 124.51C260.922 124.644 260.966 124.8 260.966 124.904H256.699C256.699 126.935 258.286 128.593 260.389 128.593V124.326ZM260.966 124.904V105.08H256.699V124.904H260.966ZM260.966 105.08C260.966 101.358 259.919 97.5309 257.706 94.5793C255.449 91.5686 252.013 89.5344 247.544 89.5344V93.8011C250.57 93.8011 252.779 95.1199 254.292 97.1386C255.85 99.2166 256.699 102.096 256.699 105.08H260.966ZM247.544 89.5344C242.028 89.5344 237.937 91.9875 235.378 95.7312C232.877 99.3904 231.923 104.142 232.223 108.786L236.481 108.511C236.225 104.56 237.067 100.821 238.9 98.1388C240.676 95.5409 243.458 93.8011 247.544 93.8011V89.5344ZM232.219 108.648C232.219 108.802 232.232 108.989 232.241 109.102C232.252 109.244 232.266 109.405 232.279 109.552C232.293 109.707 232.305 109.838 232.315 109.948C232.32 110.001 232.323 110.04 232.325 110.065C232.329 110.123 232.323 110.065 232.323 109.982H236.59C236.59 109.872 236.581 109.76 236.579 109.743C236.575 109.692 236.57 109.634 236.565 109.575C236.555 109.461 236.541 109.308 236.529 109.171C236.516 109.027 236.504 108.888 236.495 108.775C236.484 108.633 236.485 108.61 236.485 108.648H232.219ZM232.323 109.982V124.91H236.59V109.982H232.323ZM232.323 124.91C232.323 124.816 232.354 124.709 232.433 124.609C232.522 124.498 232.664 124.408 232.82 124.384L233.476 128.6C235.441 128.294 236.59 126.585 236.59 124.91H232.323ZM232.819 124.384C232.87 124.376 233.033 124.383 233.197 124.52C233.357 124.655 233.418 124.834 233.418 124.956H229.151C229.151 127.284 231.175 128.959 233.478 128.6L232.819 124.384ZM233.418 124.956V59.6279H229.151V124.956H233.418ZM233.418 59.6279C233.418 59.842 233.334 59.9694 233.272 60.0344C233.198 60.1114 233.05 60.2056 232.841 60.2056V55.9389C230.708 55.9389 229.151 57.7454 229.151 59.6279H233.418ZM232.841 60.2056C232.621 60.2056 232.473 60.1055 232.406 60.035C232.352 59.9782 232.264 59.854 232.264 59.6279H236.531C236.531 57.77 234.985 55.9389 232.841 55.9389V60.2056ZM232.264 59.6279V96.6025H236.531V59.6279H232.264ZM236.271 97.6238C238.554 93.436 242.75 90.6964 247.465 90.6964V86.4298C241.023 86.4298 235.473 90.174 232.525 95.5811L236.271 97.6238ZM247.465 90.6964C255.04 90.6964 259.76 97.3147 259.76 105.099H264.027C264.027 95.8902 258.231 86.4298 247.465 86.4298V90.6964ZM315.76 107.845C315.76 107.676 315.832 107.539 315.918 107.455C316.002 107.372 316.126 107.313 316.271 107.313V111.579C318.297 111.579 320.026 109.94 320.026 107.845H315.76ZM316.271 107.313H285.021V111.579H316.271V107.313ZM282.898 109.662C283.762 118.147 290.221 126.325 299.776 126.325V122.058C292.993 122.058 287.849 116.17 287.143 109.23L282.898 109.662ZM299.682 126.323C302.581 126.45 305.462 125.821 308.044 124.498L306.098 120.701C304.175 121.686 302.029 122.155 299.87 122.06L299.682 126.323ZM308.044 124.498C310.625 123.176 312.818 121.204 314.406 118.778L310.837 116.441C309.654 118.248 308.021 119.716 306.098 120.701L308.044 124.498ZM314.332 118.884C314.407 118.784 314.391 118.852 314.233 118.913C314.146 118.947 314.042 118.967 313.935 118.963C313.83 118.96 313.767 118.935 313.759 118.932L315.46 115.019C314.548 114.622 313.584 114.591 312.699 114.932C311.875 115.249 311.294 115.82 310.911 116.335L314.332 118.884ZM313.758 118.931C313.662 118.89 313.578 118.825 313.514 118.742L316.876 116.116C316.503 115.638 316.017 115.261 315.461 115.019L313.758 118.931ZM313.514 118.742C313.449 118.659 313.406 118.561 313.389 118.458L317.597 117.755C317.497 117.157 317.249 116.594 316.876 116.116L313.514 118.742ZM313.388 118.457C313.387 118.45 313.383 118.417 313.385 118.364C313.387 118.31 313.395 118.256 313.407 118.21C313.418 118.166 313.428 118.144 313.423 118.157C313.42 118.164 313.414 118.177 313.402 118.203C313.397 118.216 313.39 118.23 313.382 118.248C313.374 118.265 313.365 118.286 313.355 118.308L317.238 120.074C317.374 119.776 317.798 118.959 317.597 117.755L313.388 118.457ZM313.446 118.13C310.783 122.775 305.351 125.228 299.763 125.228V129.495C306.445 129.495 313.531 126.562 317.147 120.252L313.446 118.13ZM299.763 125.228C290.678 125.228 283.91 117.047 283.91 107.923H279.643C279.643 118.891 287.84 129.495 299.763 129.495V125.228ZM283.91 107.923C283.91 98.7995 290.684 90.618 299.763 90.618V86.3513C287.847 86.3513 279.643 96.9545 279.643 107.923H283.91ZM299.763 90.618C308.867 90.618 315.749 98.7832 315.766 107.868L320.033 107.86C320.012 96.8793 311.653 86.3513 299.763 86.3513V90.618ZM316.656 106.16C315.904 97.6267 309.311 89.469 299.776 89.469V93.7357C306.579 93.7357 311.798 99.6437 312.406 106.535L316.656 106.16ZM299.776 89.469C290.222 89.469 283.755 97.6454 282.898 106.134L287.143 106.562C287.843 99.625 292.992 93.7357 299.776 93.7357V89.469ZM285.021 108.481H314.531V104.214H285.021V108.481ZM354.165 90.7004C354.165 90.7571 354.157 90.7436 354.178 90.6839C354.2 90.6189 354.246 90.5288 354.325 90.4407C354.495 90.2526 354.645 90.2536 354.549 90.2667L355.131 94.4936C355.938 94.3826 356.817 94.0469 357.491 93.3016C358.174 92.5451 358.432 91.604 358.432 90.7004H354.165ZM354.533 90.269C349.378 91.0187 345.525 93.5385 343.002 97.1611C340.514 100.734 339.41 105.242 339.41 109.91H343.677C343.677 105.872 344.636 102.281 346.504 99.5994C348.337 96.9671 351.133 95.075 355.147 94.4913L354.533 90.269ZM339.41 109.91V124.838H343.677V109.91H339.41ZM339.41 124.838C339.41 124.744 339.441 124.637 339.52 124.537C339.609 124.426 339.751 124.336 339.907 124.312L340.563 128.528C342.528 128.222 343.677 126.513 343.677 124.838H339.41ZM339.906 124.312C339.957 124.304 340.12 124.311 340.284 124.448C340.444 124.583 340.505 124.762 340.505 124.884H336.238C336.238 127.212 338.262 128.887 340.564 128.528L339.906 124.312ZM340.505 124.884V90.8638H336.238V124.884H340.505ZM340.505 90.8638C340.505 90.9583 340.474 91.0649 340.394 91.1649C340.306 91.2762 340.164 91.3657 340.007 91.39L339.351 87.1741C337.387 87.4799 336.238 89.1887 336.238 90.8638H340.505ZM340.008 91.3898C339.958 91.3978 339.794 91.3914 339.631 91.2539C339.47 91.119 339.41 90.9396 339.41 90.818H343.677C343.677 88.49 341.652 86.8148 339.35 87.1743L340.008 91.3898ZM339.41 90.818V97.7463H343.677V90.818H339.41ZM343.381 98.8302C345.718 94.8675 350.281 91.3827 354.611 91.3827V87.116C348.241 87.116 342.496 91.932 339.706 96.6624L343.381 98.8302ZM354.665 91.382C354.595 91.3838 354.552 91.3727 354.529 91.3651C354.505 91.3572 354.473 91.3428 354.433 91.3113C354.348 91.2454 354.159 91.032 354.159 90.6873H358.425C358.425 89.4603 357.788 88.5181 357.059 87.9489C356.356 87.3994 355.455 87.0943 354.558 87.1167L354.665 91.382ZM405.456 107.851C405.456 107.683 405.528 107.545 405.614 107.461C405.698 107.379 405.822 107.319 405.967 107.319V111.586C407.993 111.586 409.722 109.946 409.722 107.851H405.456ZM405.967 107.319H374.736V111.586H405.967V107.319ZM372.614 109.668C373.477 118.153 379.937 126.331 389.491 126.331V122.064C382.708 122.064 377.565 116.176 376.859 109.236L372.614 109.668ZM389.398 126.329C392.296 126.456 395.177 125.828 397.759 124.505L395.813 120.708C393.89 121.693 391.744 122.161 389.585 122.067L389.398 126.329ZM397.759 124.505C400.341 123.182 402.533 121.211 404.122 118.784L400.552 116.447C399.369 118.254 397.736 119.722 395.813 120.708L397.759 124.505ZM404.048 118.891C404.122 118.791 404.107 118.859 403.949 118.919C403.862 118.953 403.757 118.973 403.65 118.97C403.545 118.966 403.483 118.942 403.475 118.938L405.176 115.026C404.263 114.629 403.299 114.597 402.414 114.938C401.591 115.256 401.01 115.827 400.626 116.341L404.048 118.891ZM403.474 118.938C403.378 118.896 403.294 118.831 403.229 118.748L406.592 116.122C406.219 115.645 405.732 115.268 405.177 115.026L403.474 118.938ZM403.229 118.748C403.164 118.665 403.121 118.568 403.104 118.464L407.312 117.761C407.213 117.164 406.965 116.6 406.592 116.122L403.229 118.748ZM403.104 118.464C403.103 118.456 403.098 118.423 403.1 118.37C403.102 118.316 403.111 118.263 403.123 118.216C403.134 118.173 403.144 118.15 403.138 118.163C403.135 118.171 403.13 118.184 403.118 118.21C403.112 118.223 403.106 118.237 403.098 118.255C403.09 118.271 403.08 118.293 403.07 118.314L406.954 120.081C407.09 119.782 407.513 118.966 407.312 117.762L403.104 118.464ZM403.161 118.137C400.499 122.782 395.066 125.234 389.478 125.234V129.501C396.161 129.501 403.246 126.568 406.863 120.259L403.161 118.137ZM389.478 125.234C380.394 125.234 373.625 117.054 373.625 107.929H369.359C369.359 118.897 377.555 129.501 389.478 129.501V125.234ZM373.625 107.929C373.625 98.806 380.4 90.6245 389.478 90.6245V86.3579C377.562 86.3579 369.359 96.9611 369.359 107.929H373.625ZM389.478 90.6245C398.58 90.6245 405.444 98.7865 405.462 107.875L409.729 107.866C409.707 96.8891 401.372 86.3579 389.478 86.3579V90.6245ZM406.45 106.167C405.698 97.6332 399.105 89.4756 389.57 89.4756V93.7422C396.373 93.7422 401.592 99.6502 402.2 106.542L406.45 106.167ZM389.57 89.4756C380.016 89.4756 373.549 97.652 372.692 106.14L376.937 106.569C377.637 99.6315 382.786 93.7422 389.57 93.7422V89.4756ZM374.815 108.488H404.325V104.221H374.815V108.488ZM455.954 91.0991V125.198H460.221V91.0991H455.954ZM455.954 125.198C455.954 125.001 456.046 124.846 456.135 124.762C456.206 124.695 456.33 124.62 456.531 124.62V128.887C458.363 128.887 460.221 127.393 460.221 125.198H455.954ZM456.531 124.62C456.633 124.62 456.795 124.667 456.931 124.804C457.064 124.938 457.108 125.094 457.108 125.198H452.841C452.841 127.229 454.428 128.887 456.531 128.887V124.62ZM457.108 125.198V118.662H452.841V125.198H457.108ZM453.065 117.71C450.761 122.332 446.8 125.352 442.005 125.352V129.619C448.826 129.619 454.06 125.279 456.884 119.613L453.065 117.71ZM442.005 125.352C438.053 125.352 435.047 123.667 432.981 121.074C430.879 118.436 429.71 114.791 429.71 110.949H425.443C425.443 115.604 426.851 120.228 429.644 123.733C432.474 127.285 436.682 129.619 442.005 129.619V125.352ZM429.71 110.949V90.9488H425.443V110.949H429.71ZM429.71 90.9488C429.71 91.1629 429.627 91.2903 429.564 91.3553C429.49 91.4324 429.342 91.5265 429.133 91.5265V87.2598C427 87.2598 425.443 89.0663 425.443 90.9488H429.71ZM429.133 91.5265C428.913 91.5265 428.766 91.4264 428.698 91.3559C428.644 91.2991 428.557 91.1749 428.557 90.9488H432.823C432.823 89.0909 431.277 87.2598 429.133 87.2598V91.5265ZM428.557 90.9488V110.949H432.823V90.9488H428.557ZM428.557 110.949C428.557 114.671 429.604 118.498 431.817 121.45C434.074 124.46 437.509 126.495 441.979 126.495V122.228C438.953 122.228 436.744 120.909 435.23 118.89C433.673 116.812 432.823 113.933 432.823 110.949H428.557ZM441.979 126.495C444.949 126.495 447.485 125.795 449.584 124.455C451.677 123.119 453.206 121.231 454.306 119.057C456.469 114.784 457.082 109.201 457.082 103.694H452.815C452.815 109.031 452.195 113.781 450.499 117.13C449.67 118.768 448.612 120.014 447.289 120.859C445.972 121.699 444.26 122.228 441.979 122.228V126.495ZM457.082 103.694V90.8965H452.815V103.694H457.082ZM457.082 90.8965C457.082 91.024 457.051 91.1152 457.024 91.1709C456.996 91.2271 456.958 91.2772 456.906 91.3212C456.851 91.3672 456.767 91.4166 456.654 91.4425C456.534 91.4701 456.425 91.4606 456.351 91.439L457.561 87.3474C454.847 86.5448 452.815 88.8321 452.815 90.8965H457.082ZM456.276 91.4152C456.165 91.3779 456.085 91.3097 456.036 91.2403C455.988 91.1731 455.954 91.0834 455.954 90.9749H460.221C460.221 89.3843 459.208 87.8998 457.636 87.3711L456.276 91.4152ZM534.963 104.877V124.878H539.23V104.877H534.963ZM534.963 124.878C534.963 124.681 535.055 124.525 535.144 124.442C535.215 124.375 535.339 124.3 535.54 124.3V128.566C537.371 128.566 539.23 127.073 539.23 124.878H534.963ZM535.54 124.3C535.642 124.3 535.804 124.346 535.94 124.484C536.072 124.617 536.117 124.774 536.117 124.878H531.85C531.85 126.909 533.437 128.566 535.54 128.566V124.3ZM536.117 124.878V104.877H531.85V124.878H536.117ZM536.117 104.877C536.117 101.154 535.068 97.3527 532.849 94.4286C530.584 91.4455 527.148 89.456 522.694 89.456V93.7226C525.736 93.7226 527.944 95.024 529.45 97.0083C531.001 99.0516 531.85 101.895 531.85 104.877H536.117ZM522.694 89.456C517.076 89.456 513.209 92.5212 510.85 96.5017C508.537 100.404 507.591 105.273 507.591 109.452H511.858C511.858 105.814 512.698 101.752 514.52 98.6771C516.296 95.6804 518.914 93.7226 522.694 93.7226V89.456ZM507.591 109.452V124.878H511.858V109.452H507.591ZM507.591 124.878C507.591 124.681 507.683 124.525 507.772 124.442C507.843 124.375 507.967 124.3 508.168 124.3V128.566C510 128.566 511.858 127.073 511.858 124.878H507.591ZM508.168 124.3C508.27 124.3 508.432 124.346 508.568 124.484C508.7 124.617 508.745 124.773 508.745 124.878H504.478C504.478 126.909 506.065 128.566 508.168 128.566V124.3ZM508.745 124.878V104.877H504.478V124.878H508.745ZM508.745 104.877C508.745 101.154 507.697 97.3527 505.477 94.4286C503.213 91.4455 499.777 89.456 495.323 89.456V93.7226C498.364 93.7226 500.572 95.024 502.079 97.0083C503.63 99.0516 504.478 101.895 504.478 104.877H508.745ZM495.323 89.456C489.927 89.456 485.884 91.6265 483.33 95.373C480.855 99.0039 479.937 103.875 480.123 109.097L484.387 108.945C484.219 104.219 485.084 100.374 486.855 97.7764C488.547 95.294 491.215 93.7226 495.323 93.7226V89.456ZM480.121 109.021C480.121 109.207 480.141 109.383 480.148 109.453C480.161 109.569 480.164 109.594 480.168 109.64C480.172 109.689 480.163 109.619 480.173 109.499C480.178 109.435 480.193 109.292 480.249 109.112C480.303 108.941 480.433 108.61 480.747 108.296L483.763 111.314C484.103 110.975 484.252 110.606 484.32 110.39C484.391 110.164 484.415 109.967 484.425 109.843C484.445 109.601 484.429 109.385 484.42 109.28C484.41 109.171 484.394 109.034 484.391 108.997C484.382 108.916 484.388 108.95 484.388 109.021H480.121ZM480.121 109.805V124.838H484.388V109.805H480.121ZM480.121 124.838C480.121 124.745 480.151 124.645 480.224 124.552C480.304 124.45 480.448 124.345 480.638 124.314L481.321 128.526C483.266 128.21 484.388 126.487 484.388 124.838H480.121ZM480.65 124.312C480.701 124.304 480.864 124.311 481.028 124.448C481.188 124.583 481.249 124.763 481.249 124.884H476.982C476.982 127.212 479.006 128.887 481.308 128.528L480.65 124.312ZM481.249 124.884V90.7004H476.982V124.884H481.249ZM481.249 90.7004C481.249 90.7949 481.218 90.9015 481.138 91.0015C481.05 91.1128 480.908 91.2023 480.751 91.2266L480.095 87.0107C478.131 87.3165 476.982 89.0253 476.982 90.7004H481.249ZM480.753 91.2264C480.702 91.2344 480.538 91.228 480.375 91.0905C480.214 90.9556 480.154 90.7763 480.154 90.6546H484.421C484.421 88.3266 482.396 86.6514 480.094 87.0109L480.753 91.2264ZM480.154 90.6546V96.3541H484.421V90.6546H480.154ZM484.16 97.3755C486.43 93.2129 490.613 90.5526 495.355 90.5526V86.286C488.94 86.286 483.377 89.9004 480.415 95.3327L484.16 97.3755ZM495.355 90.5526C500.696 90.5526 504.88 93.8814 506.631 99.0516L510.673 97.6828C508.408 90.9965 502.743 86.286 495.355 86.286V90.5526ZM510.603 99.2292C512.909 94.009 517.273 90.5526 522.727 90.5526V86.286C515.205 86.286 509.522 91.1173 506.701 97.5052L510.603 99.2292ZM522.727 90.5526C530.329 90.5526 535.022 97.0097 535.022 104.759H539.289C539.289 95.5155 533.464 86.286 522.727 86.286V90.5526Z" fill="white" mask="url(#path-1-outside-1_1_8838)"/>
<g opacity="0.6">
<mask id="mask0_1_8838" style="mask-type:luminance" maskUnits="userSpaceOnUse" x="0" y="68" width="114" height="60">
<path d="M0.0703125 68.6953H113.236V127.83H0.0703125V68.6953Z" fill="white"/>
</mask>
<g mask="url(#mask0_1_8838)">
<path d="M56.6643 68.6953L0.0703125 94.4168L56.6643 127.83L113.236 94.4168L56.6643 68.6953Z" fill="#010101"/>
</g>
</g>
<g opacity="0.45">
<mask id="mask1_1_8838" style="mask-type:luminance" maskUnits="userSpaceOnUse" x="0" y="0" width="57" height="128">
<path d="M0.0703125 0.580078H56.6643V127.831H0.0703125V0.580078Z" fill="white"/>
</mask>
<g mask="url(#mask1_1_8838)">
<g filter="url(#filter0_d_1_8838)">
<path d="M0.0703125 94.4179L56.6643 127.831V0.580078L0.0703125 94.4179Z" fill="white"/>
</g>
</g>
</g>
<g opacity="0.8">
<mask id="mask2_1_8838" style="mask-type:luminance" maskUnits="userSpaceOnUse" x="56" y="0" width="58" height="128">
<path d="M56.666 0.580078H113.26V127.831H56.666V0.580078Z" fill="white"/>
</mask>
<g mask="url(#mask2_1_8838)">
<path d="M56.666 0.580078V127.831L113.238 94.4178L56.666 0.580078Z" fill="white"/>
</g>
</g>
<g opacity="0.45">
<mask id="mask3_1_8838" style="mask-type:luminance" maskUnits="userSpaceOnUse" x="0" y="105" width="57" height="80">
<path d="M0.0703125 105.133H56.6643V184.809H0.0703125V105.133Z" fill="white"/>
</mask>
<g mask="url(#mask3_1_8838)">
<path d="M0.0703125 105.133L56.6643 184.809V138.546L0.0703125 105.133Z" fill="white"/>
</g>
</g>
<g opacity="0.8">
<mask id="mask4_1_8838" style="mask-type:luminance" maskUnits="userSpaceOnUse" x="56" y="105" width="58" height="80">
<path d="M56.666 105.133H113.282V184.809H56.666V105.133Z" fill="white"/>
</mask>
<g mask="url(#mask4_1_8838)">
<path d="M56.666 138.546V184.809L113.282 105.133L56.666 138.546Z" fill="white"/>
</g>
</g>
<defs>
<filter id="filter0_d_1_8838" x="-8.46302" y="0.580078" width="73.6607" height="144.319" filterUnits="userSpaceOnUse" color-interpolation-filters="sRGB">
<feFlood flood-opacity="0" result="BackgroundImageFix"/>
<feColorMatrix in="SourceAlpha" type="matrix" values="0 0 0 0 0 0 0 0 0 0 0 0 0 0 0 0 0 0 127 0" result="hardAlpha"/>
<feOffset dy="8.53333"/>
<feGaussianBlur stdDeviation="4.26667"/>
<feComposite in2="hardAlpha" operator="out"/>
<feColorMatrix type="matrix" values="0 0 0 0 0 0 0 0 0 0 0 0 0 0 0 0 0 0 0.25 0"/>
<feBlend mode="normal" in2="BackgroundImageFix" result="effect1_dropShadow_1_8838"/>
<feBlend mode="normal" in="SourceGraphic" in2="effect1_dropShadow_1_8838" result="shape"/>
</filter>
</defs>
</svg>
