<svg width="88" height="52" viewBox="0 0 88 52" fill="none" xmlns="http://www.w3.org/2000/svg">
<g clip-path="url(#clip0_1_18187)">
<g clip-path="url(#clip1_1_18187)">
<path fill-rule="evenodd" clip-rule="evenodd" d="M8.41111 38.7896C1.55958 31.938 1.55958 20.8183 8.41111 13.9687C15.2626 7.1172 26.3823 7.1172 33.2319 13.9687C40.0834 20.8202 40.0834 31.94 33.2319 38.7896C26.3804 45.6411 15.2607 45.6411 8.41111 38.7896ZM32.6252 38.1809C39.1407 31.6655 39.1407 21.0908 32.6252 14.5754C26.1099 8.06009 15.5351 8.06009 9.01976 14.5754C2.50442 21.0908 2.50442 31.6655 9.01976 38.1809C15.5351 44.6963 26.1099 44.6963 32.6252 38.1809Z" fill="white"/>
<path fill-rule="evenodd" clip-rule="evenodd" d="M8.25022 31.0139C8.19033 30.3917 8.5787 29.8294 9.15065 29.6478C9.15065 28.9735 9.15065 28.2991 9.15065 27.6248C8.66953 27.4702 8.30046 27.0413 8.25022 26.5061C8.19033 25.8839 8.5787 25.3216 9.15065 25.14C9.15065 24.4657 9.15065 23.7913 9.15065 23.117C8.66953 22.9624 8.30046 22.5335 8.25022 21.9983C8.18259 21.2814 8.70813 20.6438 9.42498 20.5762C10.1418 20.5086 10.7794 21.0341 10.8471 21.7509C10.8722 22.0098 10.8181 22.2572 10.708 22.4717C11.6283 23.3901 12.5487 24.3085 13.469 25.227C13.614 25.1516 13.7743 25.1014 13.9443 25.0859C14.2033 25.0608 14.4506 25.113 14.6651 25.2251C15.5816 24.3079 16.4981 23.3907 17.4146 22.4736C17.3412 22.3306 17.2929 22.1702 17.2755 22.0002C17.2078 21.2834 17.7334 20.6457 18.4502 20.5781C19.1671 20.5105 19.8047 21.036 19.8723 21.7529C19.9322 22.375 19.5438 22.9374 18.9719 23.119C18.9719 23.7933 18.9719 24.4676 18.9719 25.1419C19.453 25.2946 19.8221 25.7255 19.8723 26.2607C19.9322 26.8828 19.5438 27.4451 18.9719 27.6267C18.9719 28.301 18.9719 28.9754 18.9719 29.6497C19.4549 29.8043 19.8221 30.2332 19.8742 30.7684C19.9419 31.4853 19.4163 32.1229 18.6995 32.1905C17.9826 32.2582 17.345 31.7326 17.2774 31.0158C17.2175 30.3936 17.6059 29.8314 18.1778 29.6497C18.1778 28.9754 18.1778 28.301 18.1778 27.6267C17.6967 27.4721 17.3276 27.0432 17.2774 26.508C17.2175 25.8858 17.6059 25.3236 18.1778 25.1419C18.1778 24.4676 18.1778 23.7933 18.1778 23.119C18.1082 23.0958 18.0425 23.0687 17.9788 23.0359C17.0623 23.953 16.1458 24.8701 15.2293 25.7873C15.3027 25.9302 15.351 26.0887 15.3684 26.2607C15.436 26.9775 14.9104 27.6151 14.1936 27.6827C13.4768 27.7523 12.8391 27.2248 12.7715 26.508C12.7464 26.251 12.7986 26.0037 12.9087 25.7892C12.9094 25.7892 12.91 25.7892 12.9107 25.7892C11.9897 24.8714 11.0686 23.9537 10.1476 23.0359C10.0839 23.0687 10.0162 23.0977 9.94668 23.119C9.94668 23.7933 9.94668 24.4676 9.94668 25.1419C10.4297 25.2965 10.7969 25.7255 10.849 26.2607C10.907 26.8828 10.5205 27.4451 9.94668 27.6267C9.94668 28.301 9.94668 28.9754 9.94668 29.6497C10.4297 29.8043 10.7969 30.2332 10.849 30.7684C10.9167 31.4853 10.3911 32.1229 9.67423 32.1905C8.95739 32.2582 8.31977 31.7326 8.25214 31.0158C8.2515 31.0151 8.25087 31.0145 8.25022 31.0139ZM21.7794 31.0139C21.7195 30.3917 22.1098 29.8314 22.6836 29.6497C22.6836 28.9735 22.6836 28.2972 22.6836 27.6209C22.2006 27.4683 21.8316 27.0393 21.7794 26.5041C21.7214 25.8819 22.1098 25.3197 22.6836 25.14C22.6836 24.4638 22.6836 23.7875 22.6836 23.1112C22.2006 22.9586 21.8316 22.5297 21.7794 21.9944C21.7118 21.2795 22.2354 20.6438 22.9503 20.5762C23.5705 20.5182 24.1289 20.9027 24.3105 21.4727C24.9919 21.4727 25.6734 21.4727 26.3548 21.4727C26.5094 20.9935 26.9364 20.6264 27.4696 20.5762C28.0899 20.5182 28.6483 20.9027 28.8318 21.4727C29.5081 21.4727 30.1844 21.4727 30.8606 21.4727C31.0152 20.9935 31.4422 20.6264 31.9755 20.5762C32.6904 20.5086 33.3242 21.0322 33.3918 21.7471C33.4594 22.462 32.9358 23.0977 32.2209 23.1653C31.6026 23.2252 31.0423 22.8388 30.8606 22.2688C30.1837 22.2688 29.5068 22.2688 28.8299 22.2688C28.6753 22.748 28.2483 23.1151 27.715 23.1653C27.0967 23.2252 26.5364 22.8388 26.3548 22.2688C25.6734 22.2688 24.9919 22.2688 24.3105 22.2688C24.1849 22.661 23.8777 22.9759 23.4778 23.1073C23.4778 23.7868 23.4778 24.4663 23.4778 25.1458C23.8681 25.2733 24.183 25.5844 24.3105 25.9843C24.9919 25.9843 25.6734 25.9843 26.3548 25.9843C26.5094 25.5051 26.9364 25.1381 27.4696 25.0878C28.1845 25.0202 28.8183 25.5438 28.8879 26.2587C28.9555 26.9736 28.4319 27.6074 27.717 27.677C27.0987 27.735 26.5383 27.3504 26.3567 26.7804C25.6753 26.7804 24.9939 26.7804 24.3125 26.7804C24.1869 27.1726 23.8796 27.4876 23.4797 27.6171C23.4797 28.2966 23.4797 28.976 23.4797 29.6555C23.955 29.812 24.3183 30.2371 24.3685 30.7665C24.4361 31.4814 23.9125 32.1151 23.1976 32.1847C22.4827 32.2523 21.8489 31.7288 21.7794 31.0139Z" fill="white"/>
<path d="M45.6123 30.8241C45.6123 27.9621 45.6123 25.1002 45.6123 22.2383C45.9417 22.2383 46.2712 22.2383 46.6006 22.2383C47.651 23.8001 48.7013 25.3619 49.7517 26.9237C50.802 25.3619 51.8522 23.8001 52.9025 22.2383C53.2319 22.2383 53.5614 22.2383 53.8908 22.2383C53.8908 25.1002 53.8908 27.9621 53.8908 30.8241C53.5655 30.8241 53.2402 30.8241 52.9149 30.8241C52.9149 28.5059 52.9149 26.1878 52.9149 23.8696C51.8646 25.4028 50.8143 26.9359 49.7641 28.4691C49.7476 28.4691 49.7311 28.4691 49.7146 28.4691C48.6643 26.94 47.6141 25.4109 46.5638 23.8818C46.5638 26.1959 46.5638 28.51 46.5638 30.8241C46.2466 30.8241 45.9295 30.8241 45.6123 30.8241Z" fill="white"/>
<path d="M56.3398 30.8241C56.3398 27.9621 56.3398 25.1002 56.3398 22.2383C58.4116 22.2383 60.4833 22.2383 62.555 22.2383C62.555 22.5367 62.555 22.8352 62.555 23.1337C60.8086 23.1337 59.0622 23.1337 57.3158 23.1337C57.3158 24.1558 57.3158 25.178 57.3158 26.2001C58.8768 26.2001 60.4379 26.2001 61.9989 26.2001C61.9989 26.4944 61.9989 26.7888 61.9989 27.0832C60.4379 27.0832 58.8768 27.0832 57.3158 27.0832C57.3158 28.3301 57.3158 29.5771 57.3158 30.8241C56.9905 30.8241 56.6652 30.8241 56.3398 30.8241Z" fill="white"/>
<path d="M64.4482 30.8241C64.4482 27.9621 64.4482 25.1002 64.4482 22.2383C65.5273 22.2383 66.6064 22.2383 67.6854 22.2383C68.674 22.2383 69.4606 22.4836 70.0457 22.9743C70.6305 23.4649 70.9229 24.1354 70.9229 24.9858C70.9229 25.8771 70.5976 26.568 69.9466 27.0586C69.3042 27.5492 68.497 27.7946 67.525 27.7946C66.8247 27.7946 66.1245 27.7946 65.4243 27.7946C65.4243 28.8044 65.4243 29.8142 65.4243 30.8241C65.0989 30.8241 64.7736 30.8241 64.4482 30.8241ZM65.4243 26.9114C66.1368 26.9114 66.8493 26.9114 67.5619 26.9114C68.2787 26.9114 68.8511 26.7397 69.2794 26.3963C69.7162 26.0447 69.9343 25.5786 69.9343 24.998C69.9343 24.4011 69.7243 23.9432 69.3042 23.6243C68.8925 23.2972 68.3279 23.1337 67.6114 23.1337C66.8824 23.1337 66.1533 23.1337 65.4243 23.1337C65.4243 24.3929 65.4243 25.6522 65.4243 26.9114Z" fill="white"/>
<path d="M74.3242 30.959C73.6733 30.959 73.1133 30.7832 72.6436 30.4316C72.1742 30.08 71.9395 29.5893 71.9395 28.9597C71.9395 28.2974 72.1866 27.7864 72.6807 27.4266C73.1749 27.0668 73.8382 26.8868 74.6701 26.8868C75.3292 26.8868 75.9798 26.9768 76.6222 27.1568C76.6222 27.0913 76.6222 27.0259 76.6222 26.9605C76.6222 26.4045 76.4576 25.9793 76.1281 25.6849C75.7985 25.3905 75.3331 25.2433 74.732 25.2433C74.1058 25.2433 73.4591 25.3946 72.7919 25.6971C72.6971 25.4396 72.6024 25.182 72.5077 24.9244C73.2984 24.5646 74.0729 24.3848 74.8308 24.3848C75.7369 24.3848 76.4247 24.6178 76.8941 25.0839C77.3391 25.5254 77.5614 26.1468 77.5614 26.9482C77.5614 28.2402 77.5614 29.5321 77.5614 30.8241C77.2483 30.8241 76.9353 30.8241 76.6222 30.8241C76.6222 30.5093 76.6222 30.1944 76.6222 29.8796C76.0541 30.5992 75.2878 30.959 74.3242 30.959ZM74.5094 30.1986C75.1026 30.1986 75.6049 30.0391 76.0169 29.7202C76.4286 29.4013 76.6346 28.9925 76.6346 28.4937C76.6346 28.2974 76.6346 28.1011 76.6346 27.9049C76.0088 27.725 75.3868 27.6351 74.7688 27.6351C74.184 27.6351 73.7267 27.7537 73.3975 27.9908C73.0679 28.2198 72.903 28.5346 72.903 28.9353C72.903 29.3196 73.0556 29.6262 73.3604 29.8551C73.6733 30.0841 74.0563 30.1986 74.5094 30.1986Z" fill="white"/>
<path d="M80.3235 32.8229C79.8623 32.8229 79.4092 32.7166 78.9643 32.504C79.0714 32.2546 79.1785 32.0052 79.2857 31.7559C79.5904 31.9112 79.9239 31.9889 80.2864 31.9889C80.5745 31.9889 80.8177 31.8989 81.0153 31.7191C81.2131 31.5473 81.4067 31.2407 81.5961 30.7992C80.6282 28.6936 79.6603 26.588 78.6924 24.4824C79.0425 24.4824 79.3926 24.4824 79.7427 24.4824C80.517 26.2446 81.2915 28.0067 82.0658 29.7689C82.7495 28.0067 83.4331 26.2446 84.1167 24.4824C84.4544 24.4824 84.7921 24.4824 85.1299 24.4824C84.2362 26.6657 83.3425 28.849 82.4488 31.0322C82.1769 31.6782 81.8761 32.1361 81.5466 32.4059C81.2174 32.6839 80.8096 32.8229 80.3235 32.8229Z" fill="white"/>
</g>
</g>
<defs>
<clipPath id="clip0_1_18187">
<rect width="87.9661" height="50.7119" fill="white" transform="translate(0 0.421875)"/>
</clipPath>
<clipPath id="clip1_1_18187">
<rect width="87.9661" height="50.7119" fill="white" transform="translate(0 0.421875)"/>
</clipPath>
</defs>
</svg>
