<svg width="153" height="105" viewBox="0 0 153 105" fill="none" xmlns="http://www.w3.org/2000/svg">
<path fill-rule="evenodd" clip-rule="evenodd" d="M7.58449 14.9981C6.09633 15.015 4.63852 14.5886 3.39305 13.7745C2.14927 12.9605 1.17344 11.7943 0.593683 10.4241C0.0139261 9.05389 -0.146187 7.54216 0.135265 6.08266C0.416717 4.62147 1.12627 3.27658 2.17287 2.21987C3.21946 1.16316 4.55762 0.44183 6.01544 0.148581C7.47494 -0.146353 8.98666 0.000247356 10.3619 0.566522C11.7371 1.13448 12.9119 2.0985 13.7377 3.33554C14.5635 4.57258 15.0033 6.02874 15 7.5152C15.005 9.49042 14.2264 11.3864 12.8377 12.7886C11.4473 14.1908 9.55802 14.9846 7.58449 14.9981Z" fill="#DCE9F8"/>
<path fill-rule="evenodd" clip-rule="evenodd" d="M35.0845 14.9981C33.5963 15.015 32.1385 14.5886 30.8931 13.7745C29.6493 12.9605 28.6734 11.7943 28.0937 10.4241C27.5139 9.05389 27.3538 7.54216 27.6353 6.08266C27.9167 4.62147 28.6263 3.27658 29.6729 2.21987C30.7195 1.16316 32.0576 0.44183 33.5154 0.148581C34.9749 -0.146353 36.4867 0.000247356 37.8619 0.566522C39.2371 1.13448 40.4119 2.0985 41.2377 3.33554C42.0635 4.57258 42.5033 6.02874 42.5 7.5152C42.505 9.49042 41.7264 11.3864 40.3377 12.7886C38.9473 14.1908 37.058 14.9846 35.0845 14.9981Z" fill="#DCE9F8"/>
<path fill-rule="evenodd" clip-rule="evenodd" d="M62.5845 14.9981C61.0963 15.015 59.6385 14.5886 58.3931 13.7745C57.1493 12.9605 56.1734 11.7943 55.5937 10.4241C55.0139 9.05389 54.8538 7.54216 55.1353 6.08266C55.4167 4.62147 56.1263 3.27658 57.1729 2.21987C58.2195 1.16316 59.5576 0.44183 61.0154 0.148581C62.4749 -0.146353 63.9867 0.000247356 65.3619 0.566522C66.7371 1.13448 67.9119 2.0985 68.7377 3.33554C69.5635 4.57258 70.0033 6.02874 70 7.5152C70.005 9.49042 69.2264 11.3864 67.8377 12.7886C66.4473 14.1908 64.558 14.9846 62.5845 14.9981Z" fill="#DCE9F8"/>
<path fill-rule="evenodd" clip-rule="evenodd" d="M90.0845 14.9981C88.5963 15.015 87.1385 14.5886 85.8931 13.7745C84.6493 12.9605 83.6734 11.7943 83.0937 10.4241C82.5139 9.05389 82.3538 7.54216 82.6353 6.08266C82.9167 4.62147 83.6263 3.27658 84.6729 2.21987C85.7195 1.16316 87.0576 0.44183 88.5154 0.148581C89.9749 -0.146353 91.4867 0.000247356 92.8619 0.566522C94.2371 1.13448 95.4119 2.0985 96.2377 3.33554C97.0635 4.57258 97.5033 6.02874 97.5 7.5152C97.505 9.49042 96.7264 11.3864 95.3377 12.7886C93.9473 14.1908 92.058 14.9846 90.0845 14.9981Z" fill="#DCE9F8"/>
<path fill-rule="evenodd" clip-rule="evenodd" d="M117.584 14.9981C116.096 15.015 114.639 14.5886 113.393 13.7745C112.149 12.9605 111.173 11.7943 110.594 10.4241C110.014 9.05389 109.854 7.54216 110.135 6.08266C110.417 4.62147 111.126 3.27658 112.173 2.21987C113.219 1.16316 114.558 0.44183 116.015 0.148581C117.475 -0.146353 118.987 0.000247356 120.362 0.566522C121.737 1.13448 122.912 2.0985 123.738 3.33554C124.563 4.57258 125.003 6.02874 125 7.5152C125.005 9.49042 124.226 11.3864 122.838 12.7886C121.447 14.1908 119.558 14.9846 117.584 14.9981Z" fill="#DCE9F8"/>
<path fill-rule="evenodd" clip-rule="evenodd" d="M145.084 14.9981C143.596 15.015 142.139 14.5886 140.893 13.7745C139.649 12.9605 138.673 11.7943 138.094 10.4241C137.514 9.05389 137.354 7.54216 137.635 6.08266C137.917 4.62147 138.626 3.27658 139.673 2.21987C140.719 1.16316 142.058 0.44183 143.515 0.148581C144.975 -0.146353 146.487 0.000247356 147.862 0.566522C149.237 1.13448 150.412 2.0985 151.238 3.33554C152.063 4.57258 152.503 6.02874 152.5 7.5152C152.505 9.49042 151.726 11.3864 150.338 12.7886C148.947 14.1908 147.058 14.9846 145.084 14.9981Z" fill="#DCE9F8"/>
<path fill-rule="evenodd" clip-rule="evenodd" d="M7.58449 44.9962C6.09633 45.013 4.63852 44.5866 3.39305 43.7726C2.14927 42.9586 1.17344 41.7923 0.593683 40.4221C0.0139261 39.0519 -0.146187 37.5402 0.135265 36.0807C0.416717 34.6195 1.12627 33.2746 2.17287 32.2179C3.21946 31.1612 4.55762 30.4399 6.01544 30.1466C7.47494 29.8517 8.98666 29.9983 10.3619 30.5646C11.7371 31.1325 12.9119 32.0966 13.7377 33.3336C14.5635 34.5706 15.0033 36.0268 15 37.5133C15.005 39.4885 14.2264 41.3845 12.8377 42.7867C11.4473 44.1889 9.55802 44.9827 7.58449 44.9962Z" fill="#DCE9F8"/>
<path fill-rule="evenodd" clip-rule="evenodd" d="M35.0845 44.9962C33.5963 45.013 32.1385 44.5866 30.8931 43.7726C29.6493 42.9586 28.6734 41.7923 28.0937 40.4221C27.5139 39.0519 27.3538 37.5402 27.6353 36.0807C27.9167 34.6195 28.6263 33.2746 29.6729 32.2179C30.7195 31.1612 32.0576 30.4399 33.5154 30.1466C34.9749 29.8517 36.4867 29.9983 37.8619 30.5646C39.2371 31.1325 40.4119 32.0966 41.2377 33.3336C42.0635 34.5706 42.5033 36.0268 42.5 37.5133C42.505 39.4885 41.7264 41.3845 40.3377 42.7867C38.9473 44.1889 37.058 44.9827 35.0845 44.9962Z" fill="#DCE9F8"/>
<path fill-rule="evenodd" clip-rule="evenodd" d="M62.5845 44.9962C61.0963 45.013 59.6385 44.5866 58.3931 43.7726C57.1493 42.9586 56.1734 41.7923 55.5937 40.4221C55.0139 39.0519 54.8538 37.5402 55.1353 36.0807C55.4167 34.6195 56.1263 33.2746 57.1729 32.2179C58.2195 31.1612 59.5576 30.4399 61.0154 30.1466C62.4749 29.8517 63.9867 29.9983 65.3619 30.5646C66.7371 31.1325 67.9119 32.0966 68.7377 33.3336C69.5635 34.5706 70.0033 36.0268 70 37.5133C70.005 39.4885 69.2264 41.3845 67.8377 42.7867C66.4473 44.1889 64.558 44.9827 62.5845 44.9962Z" fill="#DCE9F8"/>
<path fill-rule="evenodd" clip-rule="evenodd" d="M90.0845 44.9962C88.5963 45.013 87.1385 44.5866 85.8931 43.7726C84.6493 42.9586 83.6734 41.7923 83.0937 40.4221C82.5139 39.0519 82.3538 37.5402 82.6353 36.0807C82.9167 34.6195 83.6263 33.2746 84.6729 32.2179C85.7195 31.1612 87.0576 30.4399 88.5154 30.1466C89.9749 29.8517 91.4867 29.9983 92.8619 30.5646C94.2371 31.1325 95.4119 32.0966 96.2377 33.3336C97.0635 34.5706 97.5033 36.0268 97.5 37.5133C97.505 39.4885 96.7264 41.3845 95.3377 42.7867C93.9473 44.1889 92.058 44.9827 90.0845 44.9962Z" fill="#DCE9F8"/>
<path fill-rule="evenodd" clip-rule="evenodd" d="M117.584 44.9962C116.096 45.013 114.639 44.5866 113.393 43.7726C112.149 42.9586 111.173 41.7923 110.594 40.4221C110.014 39.0519 109.854 37.5402 110.135 36.0807C110.417 34.6195 111.126 33.2746 112.173 32.2179C113.219 31.1612 114.558 30.4399 116.015 30.1466C117.475 29.8517 118.987 29.9983 120.362 30.5646C121.737 31.1325 122.912 32.0966 123.738 33.3336C124.563 34.5706 125.003 36.0268 125 37.5133C125.005 39.4885 124.226 41.3845 122.838 42.7867C121.447 44.1889 119.558 44.9827 117.584 44.9962Z" fill="#DCE9F8"/>
<path fill-rule="evenodd" clip-rule="evenodd" d="M145.084 44.9962C143.596 45.013 142.139 44.5866 140.893 43.7726C139.649 42.9586 138.673 41.7923 138.094 40.4221C137.514 39.0519 137.354 37.5402 137.635 36.0807C137.917 34.6195 138.626 33.2746 139.673 32.2179C140.719 31.1612 142.058 30.4399 143.515 30.1466C144.975 29.8517 146.487 29.9983 147.862 30.5646C149.237 31.1325 150.412 32.0966 151.238 33.3336C152.063 34.5706 152.503 36.0268 152.5 37.5133C152.505 39.4885 151.726 41.3845 150.338 42.7867C148.947 44.1889 147.058 44.9827 145.084 44.9962Z" fill="#DCE9F8"/>
<path fill-rule="evenodd" clip-rule="evenodd" d="M7.58449 74.9942C6.09633 75.0111 4.63852 74.5847 3.39305 73.7706C2.14927 72.9566 1.17344 71.7903 0.593683 70.4202C0.0139261 69.05 -0.146187 67.5383 0.135265 66.0787C0.416717 64.6176 1.12627 63.2727 2.17287 62.216C3.21946 61.1593 4.55762 60.4379 6.01544 60.1447C7.47494 59.8497 8.98666 59.9963 10.3619 60.5626C11.7371 61.1306 12.9119 62.0946 13.7377 63.3316C14.5635 64.5687 15.0033 66.0248 15 67.5113C15.005 69.4865 14.2264 71.3825 12.8377 72.7847C11.4473 74.1869 9.55802 74.9807 7.58449 74.9942Z" fill="#DCE9F8"/>
<path fill-rule="evenodd" clip-rule="evenodd" d="M35.0845 74.9942C33.5963 75.0111 32.1385 74.5847 30.8931 73.7706C29.6493 72.9566 28.6734 71.7903 28.0937 70.4202C27.5139 69.05 27.3538 67.5383 27.6353 66.0787C27.9167 64.6176 28.6263 63.2727 29.6729 62.216C30.7195 61.1593 32.0576 60.4379 33.5154 60.1447C34.9749 59.8497 36.4867 59.9963 37.8619 60.5626C39.2371 61.1306 40.4119 62.0946 41.2377 63.3316C42.0635 64.5687 42.5033 66.0248 42.5 67.5113C42.505 69.4865 41.7264 71.3825 40.3377 72.7847C38.9473 74.1869 37.058 74.9807 35.0845 74.9942Z" fill="#DCE9F8"/>
<path fill-rule="evenodd" clip-rule="evenodd" d="M62.5845 74.9942C61.0963 75.0111 59.6385 74.5847 58.3931 73.7706C57.1493 72.9566 56.1734 71.7903 55.5937 70.4202C55.0139 69.05 54.8538 67.5383 55.1353 66.0787C55.4167 64.6176 56.1263 63.2727 57.1729 62.216C58.2195 61.1593 59.5576 60.4379 61.0154 60.1447C62.4749 59.8497 63.9867 59.9963 65.3619 60.5626C66.7371 61.1306 67.9119 62.0946 68.7377 63.3316C69.5635 64.5687 70.0033 66.0248 70 67.5113C70.005 69.4865 69.2264 71.3825 67.8377 72.7847C66.4473 74.1869 64.558 74.9807 62.5845 74.9942Z" fill="#DCE9F8"/>
<path fill-rule="evenodd" clip-rule="evenodd" d="M90.0845 74.9942C88.5963 75.0111 87.1385 74.5847 85.8931 73.7706C84.6493 72.9566 83.6734 71.7903 83.0937 70.4202C82.5139 69.05 82.3538 67.5383 82.6353 66.0787C82.9167 64.6176 83.6263 63.2727 84.6729 62.216C85.7195 61.1593 87.0576 60.4379 88.5154 60.1447C89.9749 59.8497 91.4867 59.9963 92.8619 60.5626C94.2371 61.1306 95.4119 62.0946 96.2377 63.3316C97.0635 64.5687 97.5033 66.0248 97.5 67.5113C97.505 69.4865 96.7264 71.3825 95.3377 72.7847C93.9473 74.1869 92.058 74.9807 90.0845 74.9942Z" fill="#DCE9F8"/>
<path fill-rule="evenodd" clip-rule="evenodd" d="M117.584 74.9962C116.096 75.013 114.639 74.5866 113.393 73.7726C112.149 72.9586 111.173 71.7923 110.594 70.4221C110.014 69.0519 109.854 67.5402 110.135 66.0807C110.417 64.6195 111.126 63.2746 112.173 62.2179C113.219 61.1612 114.558 60.4399 116.015 60.1466C117.475 59.8517 118.987 59.9983 120.362 60.5646C121.737 61.1325 122.912 62.0966 123.738 63.3336C124.563 64.5706 125.003 66.0268 125 67.5133C125.005 69.4885 124.226 71.3845 122.838 72.7867C121.447 74.1889 119.558 74.9827 117.584 74.9962Z" fill="#DCE9F8"/>
<path fill-rule="evenodd" clip-rule="evenodd" d="M145.084 74.9962C143.596 75.013 142.139 74.5866 140.893 73.7726C139.649 72.9586 138.673 71.7923 138.094 70.4221C137.514 69.0519 137.354 67.5402 137.635 66.0807C137.917 64.6195 138.626 63.2746 139.673 62.2179C140.719 61.1612 142.058 60.4399 143.515 60.1466C144.975 59.8517 146.487 59.9983 147.862 60.5646C149.237 61.1325 150.412 62.0966 151.238 63.3336C152.063 64.5706 152.503 66.0268 152.5 67.5133C152.505 69.4885 151.726 71.3845 150.338 72.7867C148.947 74.1889 147.058 74.9827 145.084 74.9962Z" fill="#DCE9F8"/>
<path fill-rule="evenodd" clip-rule="evenodd" d="M7.58449 104.992C6.09633 105.009 4.63852 104.583 3.39305 103.769C2.14927 102.955 1.17344 101.788 0.593683 100.418C0.0139261 99.048 -0.146187 97.5363 0.135265 96.0768C0.416717 94.6156 1.12627 93.2707 2.17287 92.214C3.21946 91.1573 4.55762 90.436 6.01544 90.1427C7.47494 89.8478 8.98666 89.9944 10.3619 90.5607C11.7371 91.1286 12.9119 92.0926 13.7377 93.3297C14.5635 94.5667 15.0033 96.0229 15 97.5093C15.005 99.4846 14.2264 101.381 12.8377 102.783C11.4473 104.185 9.55802 104.979 7.58449 104.992Z" fill="#DCE9F8"/>
<path fill-rule="evenodd" clip-rule="evenodd" d="M35.0845 104.994C33.5963 105.011 32.1385 104.585 30.8931 103.771C29.6493 102.957 28.6734 101.79 28.0937 100.42C27.5139 99.05 27.3538 97.5383 27.6353 96.0787C27.9167 94.6176 28.6263 93.2727 29.6729 92.216C30.7195 91.1593 32.0576 90.4379 33.5154 90.1447C34.9749 89.8497 36.4867 89.9963 37.8619 90.5626C39.2371 91.1306 40.4119 92.0946 41.2377 93.3316C42.0635 94.5687 42.5033 96.0248 42.5 97.5113C42.505 99.4865 41.7264 101.383 40.3377 102.785C38.9473 104.187 37.058 104.981 35.0845 104.994Z" fill="#DCE9F8"/>
<path fill-rule="evenodd" clip-rule="evenodd" d="M62.5845 104.994C61.0963 105.011 59.6385 104.585 58.3931 103.771C57.1493 102.957 56.1734 101.79 55.5937 100.42C55.0139 99.05 54.8538 97.5383 55.1353 96.0787C55.4167 94.6176 56.1263 93.2727 57.1729 92.216C58.2195 91.1593 59.5576 90.4379 61.0154 90.1447C62.4749 89.8497 63.9867 89.9963 65.3619 90.5626C66.7371 91.1306 67.9119 92.0946 68.7377 93.3316C69.5635 94.5687 70.0033 96.0248 70 97.5113C70.005 99.4865 69.2264 101.383 67.8377 102.785C66.4473 104.187 64.558 104.981 62.5845 104.994Z" fill="#DCE9F8"/>
<path fill-rule="evenodd" clip-rule="evenodd" d="M90.0845 104.994C88.5963 105.011 87.1385 104.585 85.8931 103.771C84.6493 102.957 83.6734 101.79 83.0937 100.42C82.5139 99.05 82.3538 97.5383 82.6353 96.0787C82.9167 94.6176 83.6263 93.2727 84.6729 92.216C85.7195 91.1593 87.0576 90.4379 88.5154 90.1447C89.9749 89.8497 91.4867 89.9963 92.8619 90.5626C94.2371 91.1306 95.4119 92.0946 96.2377 93.3316C97.0635 94.5687 97.5033 96.0248 97.5 97.5113C97.505 99.4865 96.7264 101.383 95.3377 102.785C93.9473 104.187 92.058 104.981 90.0845 104.994Z" fill="#DCE9F8"/>
<path fill-rule="evenodd" clip-rule="evenodd" d="M117.584 104.992C116.096 105.009 114.639 104.583 113.393 103.769C112.149 102.955 111.173 101.788 110.594 100.418C110.014 99.048 109.854 97.5363 110.135 96.0768C110.417 94.6156 111.126 93.2707 112.173 92.214C113.219 91.1573 114.558 90.436 116.015 90.1427C117.475 89.8478 118.987 89.9944 120.362 90.5607C121.737 91.1286 122.912 92.0926 123.738 93.3297C124.563 94.5667 125.003 96.0229 125 97.5093C125.005 99.4846 124.226 101.381 122.838 102.783C121.447 104.185 119.558 104.979 117.584 104.992Z" fill="#DCE9F8"/>
<path fill-rule="evenodd" clip-rule="evenodd" d="M145.084 104.992C143.596 105.009 142.139 104.583 140.893 103.769C139.649 102.955 138.673 101.788 138.094 100.418C137.514 99.048 137.354 97.5363 137.635 96.0768C137.917 94.6156 138.626 93.2707 139.673 92.214C140.719 91.1573 142.058 90.436 143.515 90.1427C144.975 89.8478 146.487 89.9944 147.862 90.5607C149.237 91.1286 150.412 92.0926 151.238 93.3297C152.063 94.5667 152.503 96.0229 152.5 97.5093C152.505 99.4846 151.726 101.381 150.338 102.783C148.947 104.185 147.058 104.979 145.084 104.992Z" fill="#DCE9F8"/>
</svg>
