<svg width="134" height="113" viewBox="0 0 134 113" fill="none" xmlns="http://www.w3.org/2000/svg">
<path fill-rule="evenodd" clip-rule="evenodd" d="M8.09012 16.2636C6.50276 16.2816 4.94775 15.8268 3.61925 14.9585C2.29255 14.0902 1.25167 12.8462 0.633262 11.3846C0.014855 9.92311 -0.155932 8.31059 0.144283 6.75379C0.444499 5.19519 1.20136 3.76064 2.31772 2.63349C3.43409 1.50633 4.86146 0.73691 6.41647 0.424111C7.97327 0.109515 9.58577 0.265889 11.0527 0.869915C12.5196 1.47574 13.7726 2.50403 14.6535 3.82354C15.5344 5.14305 16.0036 6.69628 16 8.28184C16.0054 10.3887 15.1748 12.4111 13.6935 13.9068C12.2104 15.4025 10.1952 16.2492 8.09012 16.2636Z" fill="#DCE9F8"/>
<path fill-rule="evenodd" clip-rule="evenodd" d="M37.4231 16.2636C35.8358 16.2816 34.2808 15.8268 32.9523 14.9585C31.6256 14.0902 30.5847 12.8462 29.9663 11.3846C29.3479 9.92311 29.1771 8.31059 29.4773 6.75379C29.7775 5.19519 30.5344 3.76064 31.6507 2.63349C32.7671 1.50633 34.1945 0.73691 35.7495 0.424111C37.3063 0.109515 38.9188 0.265889 40.3857 0.869915C41.8526 1.47574 43.1056 2.50403 43.9865 3.82354C44.8674 5.14305 45.3366 6.69628 45.333 8.28184C45.3384 10.3887 44.5079 12.4111 43.0266 13.9068C41.5435 15.4025 39.5282 16.2492 37.4231 16.2636Z" fill="#DCE9F8"/>
<path fill-rule="evenodd" clip-rule="evenodd" d="M66.7561 16.2636C65.1688 16.2816 63.6138 15.8268 62.2853 14.9585C60.9586 14.0902 59.9177 12.8462 59.2993 11.3846C58.6809 9.92311 58.5101 8.31059 58.8103 6.75379C59.1105 5.19519 59.8674 3.76064 60.9837 2.63349C62.1001 1.50633 63.5275 0.73691 65.0825 0.424111C66.6393 0.109515 68.2518 0.265889 69.7187 0.869915C71.1856 1.47574 72.4387 2.50403 73.3195 3.82354C74.2004 5.14305 74.6696 6.69628 74.666 8.28184C74.6714 10.3887 73.8409 12.4111 72.3596 13.9068C70.8765 15.4025 68.8612 16.2492 66.7561 16.2636Z" fill="#DCE9F8"/>
<path fill-rule="evenodd" clip-rule="evenodd" d="M96.0901 16.2636C94.5028 16.2816 92.9478 15.8268 91.6193 14.9585C90.2926 14.0902 89.2517 12.8462 88.6333 11.3846C88.0149 9.92311 87.8441 8.31059 88.1443 6.75379C88.4445 5.19519 89.2014 3.76064 90.3177 2.63349C91.4341 1.50633 92.8615 0.73691 94.4165 0.424111C95.9733 0.109515 97.5858 0.265889 99.0527 0.869915C100.52 1.47574 101.773 2.50403 102.654 3.82354C103.534 5.14305 104.004 6.69628 104 8.28184C104.005 10.3887 103.175 12.4111 101.694 13.9068C100.21 15.4025 98.1952 16.2492 96.0901 16.2636Z" fill="#DCE9F8"/>
<path fill-rule="evenodd" clip-rule="evenodd" d="M125.423 16.2636C123.836 16.2816 122.281 15.8268 120.952 14.9585C119.626 14.0902 118.585 12.8462 117.966 11.3846C117.348 9.92311 117.177 8.31059 117.477 6.75379C117.778 5.19519 118.534 3.76064 119.651 2.63349C120.767 1.50633 122.194 0.73691 123.749 0.424111C125.306 0.109515 126.919 0.265889 128.386 0.869915C129.853 1.47574 131.106 2.50403 131.987 3.82354C132.867 5.14305 133.337 6.69628 133.333 8.28184C133.338 10.3887 132.508 12.4111 131.027 13.9068C129.543 15.4025 127.528 16.2492 125.423 16.2636Z" fill="#DCE9F8"/>
<path fill-rule="evenodd" clip-rule="evenodd" d="M8.09012 48.2617C6.50276 48.2796 4.94775 47.8248 3.61925 46.9565C2.29255 46.0882 1.25167 44.8442 0.633262 43.3827C0.014855 41.9212 -0.155932 40.3086 0.144283 38.7518C0.444499 37.1932 1.20136 35.7587 2.31772 34.6315C3.43409 33.5044 4.86146 32.735 6.41647 32.4222C7.97327 32.1076 9.58577 32.2639 11.0527 32.868C12.5196 33.4738 13.7726 34.5021 14.6535 35.8216C15.5344 37.1411 16.0036 38.6943 16 40.2799C16.0054 42.3868 15.1748 44.4092 13.6935 45.9049C12.2104 47.4006 10.1952 48.2473 8.09012 48.2617Z" fill="#DCE9F8"/>
<path fill-rule="evenodd" clip-rule="evenodd" d="M37.4231 48.2617C35.8358 48.2796 34.2808 47.8248 32.9523 46.9565C31.6256 46.0882 30.5847 44.8442 29.9663 43.3827C29.3479 41.9212 29.1771 40.3086 29.4773 38.7518C29.7775 37.1932 30.5344 35.7587 31.6507 34.6315C32.7671 33.5044 34.1945 32.735 35.7495 32.4222C37.3063 32.1076 38.9188 32.2639 40.3857 32.868C41.8526 33.4738 43.1056 34.5021 43.9865 35.8216C44.8674 37.1411 45.3366 38.6943 45.333 40.2799C45.3384 42.3868 44.5079 44.4092 43.0266 45.9049C41.5435 47.4006 39.5282 48.2473 37.4231 48.2617Z" fill="#DCE9F8"/>
<path fill-rule="evenodd" clip-rule="evenodd" d="M66.7561 48.2617C65.1688 48.2796 63.6138 47.8248 62.2853 46.9565C60.9586 46.0882 59.9177 44.8442 59.2993 43.3827C58.6809 41.9212 58.5101 40.3086 58.8103 38.7518C59.1105 37.1932 59.8674 35.7587 60.9837 34.6315C62.1001 33.5044 63.5275 32.735 65.0825 32.4222C66.6393 32.1076 68.2518 32.2639 69.7187 32.868C71.1856 33.4738 72.4387 34.5021 73.3195 35.8216C74.2004 37.1411 74.6696 38.6943 74.666 40.2799C74.6714 42.3868 73.8409 44.4092 72.3596 45.9049C70.8765 47.4006 68.8612 48.2473 66.7561 48.2617Z" fill="#DCE9F8"/>
<path fill-rule="evenodd" clip-rule="evenodd" d="M96.0901 48.2617C94.5028 48.2796 92.9478 47.8248 91.6193 46.9565C90.2926 46.0882 89.2517 44.8442 88.6333 43.3827C88.0149 41.9212 87.8441 40.3086 88.1443 38.7518C88.4445 37.1932 89.2014 35.7587 90.3177 34.6315C91.4341 33.5044 92.8615 32.735 94.4165 32.4222C95.9733 32.1076 97.5858 32.2639 99.0527 32.868C100.52 33.4738 101.773 34.5021 102.654 35.8216C103.534 37.1411 104.004 38.6943 104 40.2799C104.005 42.3868 103.175 44.4092 101.694 45.9049C100.21 47.4006 98.1952 48.2473 96.0901 48.2617Z" fill="#DCE9F8"/>
<path fill-rule="evenodd" clip-rule="evenodd" d="M125.423 48.2617C123.836 48.2796 122.281 47.8248 120.952 46.9565C119.626 46.0882 118.585 44.8442 117.966 43.3827C117.348 41.9212 117.177 40.3086 117.477 38.7518C117.778 37.1932 118.534 35.7587 119.651 34.6315C120.767 33.5044 122.194 32.735 123.749 32.4222C125.306 32.1076 126.919 32.2639 128.386 32.868C129.853 33.4738 131.106 34.5021 131.987 35.8216C132.867 37.1411 133.337 38.6943 133.333 40.2799C133.338 42.3868 132.508 44.4092 131.027 45.9049C129.543 47.4006 127.528 48.2473 125.423 48.2617Z" fill="#DCE9F8"/>
<path fill-rule="evenodd" clip-rule="evenodd" d="M8.09012 80.2597C6.50276 80.2777 4.94775 79.8228 3.61925 78.9546C2.29255 78.0863 1.25167 76.8423 0.633262 75.3807C0.014855 73.9192 -0.155932 72.3067 0.144283 70.7499C0.444499 69.1913 1.20136 67.7567 2.31772 66.6296C3.43409 65.5024 4.86146 64.733 6.41647 64.4202C7.97327 64.1056 9.58577 64.262 11.0527 64.866C12.5196 65.4718 13.7726 66.5001 14.6535 67.8196C15.5344 69.1391 16.0036 70.6924 16 72.2779C16.0054 74.3848 15.1748 76.4072 13.6935 77.9029C12.2104 79.3986 10.1952 80.2453 8.09012 80.2597Z" fill="#DCE9F8"/>
<path fill-rule="evenodd" clip-rule="evenodd" d="M37.4231 80.2597C35.8358 80.2777 34.2808 79.8228 32.9523 78.9546C31.6256 78.0863 30.5847 76.8423 29.9663 75.3807C29.3479 73.9192 29.1771 72.3067 29.4773 70.7499C29.7775 69.1913 30.5344 67.7567 31.6507 66.6296C32.7671 65.5024 34.1945 64.733 35.7495 64.4202C37.3063 64.1056 38.9188 64.262 40.3857 64.866C41.8526 65.4718 43.1056 66.5001 43.9865 67.8196C44.8674 69.1391 45.3366 70.6924 45.333 72.2779C45.3384 74.3848 44.5079 76.4072 43.0266 77.9029C41.5435 79.3986 39.5282 80.2453 37.4231 80.2597Z" fill="#DCE9F8"/>
<path fill-rule="evenodd" clip-rule="evenodd" d="M66.7561 80.2597C65.1688 80.2777 63.6138 79.8228 62.2853 78.9546C60.9586 78.0863 59.9177 76.8423 59.2993 75.3807C58.6809 73.9192 58.5101 72.3067 58.8103 70.7499C59.1105 69.1913 59.8674 67.7567 60.9837 66.6296C62.1001 65.5024 63.5275 64.733 65.0825 64.4202C66.6393 64.1056 68.2518 64.262 69.7187 64.866C71.1856 65.4718 72.4387 66.5001 73.3195 67.8196C74.2004 69.1391 74.6696 70.6924 74.666 72.2779C74.6714 74.3848 73.8409 76.4072 72.3596 77.9029C70.8765 79.3986 68.8612 80.2453 66.7561 80.2597Z" fill="#DCE9F8"/>
<path fill-rule="evenodd" clip-rule="evenodd" d="M96.0901 80.2597C94.5028 80.2777 92.9478 79.8228 91.6193 78.9546C90.2926 78.0863 89.2517 76.8423 88.6333 75.3807C88.0149 73.9192 87.8441 72.3067 88.1443 70.7499C88.4445 69.1913 89.2014 67.7567 90.3177 66.6296C91.4341 65.5024 92.8615 64.733 94.4165 64.4202C95.9733 64.1056 97.5858 64.262 99.0527 64.866C100.52 65.4718 101.773 66.5001 102.654 67.8196C103.534 69.1391 104.004 70.6924 104 72.2779C104.005 74.3848 103.175 76.4072 101.694 77.9029C100.21 79.3986 98.1952 80.2453 96.0901 80.2597Z" fill="#DCE9F8"/>
<path fill-rule="evenodd" clip-rule="evenodd" d="M125.423 80.2597C123.836 80.2777 122.281 79.8228 120.952 78.9546C119.626 78.0863 118.585 76.8423 117.966 75.3807C117.348 73.9192 117.177 72.3067 117.477 70.7499C117.778 69.1913 118.534 67.7567 119.651 66.6296C120.767 65.5024 122.194 64.733 123.749 64.4202C125.306 64.1056 126.919 64.262 128.386 64.866C129.853 65.4718 131.106 66.5001 131.987 67.8196C132.867 69.1391 133.337 70.6924 133.333 72.2779C133.338 74.3848 132.508 76.4072 131.027 77.9029C129.543 79.3986 127.528 80.2453 125.423 80.2597Z" fill="#DCE9F8"/>
<path fill-rule="evenodd" clip-rule="evenodd" d="M8.09012 112.26C6.50276 112.278 4.94775 111.823 3.61925 110.955C2.29255 110.086 1.25167 108.842 0.633262 107.381C0.014855 105.919 -0.155932 104.307 0.144283 102.75C0.444499 101.191 1.20136 99.7567 2.31772 98.6296C3.43409 97.5024 4.86146 96.733 6.41647 96.4202C7.97327 96.1056 9.58577 96.262 11.0527 96.866C12.5196 97.4718 13.7726 98.5001 14.6535 99.8196C15.5344 101.139 16.0036 102.692 16 104.278C16.0054 106.385 15.1748 108.407 13.6935 109.903C12.2104 111.399 10.1952 112.245 8.09012 112.26Z" fill="#DCE9F8"/>
<path fill-rule="evenodd" clip-rule="evenodd" d="M37.4231 112.26C35.8358 112.278 34.2808 111.823 32.9523 110.955C31.6256 110.086 30.5847 108.842 29.9663 107.381C29.3479 105.919 29.1771 104.307 29.4773 102.75C29.7775 101.191 30.5344 99.7567 31.6507 98.6296C32.7671 97.5024 34.1945 96.733 35.7495 96.4202C37.3063 96.1056 38.9188 96.262 40.3857 96.866C41.8526 97.4718 43.1056 98.5001 43.9865 99.8196C44.8674 101.139 45.3366 102.692 45.333 104.278C45.3384 106.385 44.5079 108.407 43.0266 109.903C41.5435 111.399 39.5282 112.245 37.4231 112.26Z" fill="#DCE9F8"/>
<path fill-rule="evenodd" clip-rule="evenodd" d="M66.7561 112.26C65.1688 112.278 63.6138 111.823 62.2853 110.955C60.9586 110.086 59.9177 108.842 59.2993 107.381C58.6809 105.919 58.5101 104.307 58.8103 102.75C59.1105 101.191 59.8674 99.7567 60.9837 98.6296C62.1001 97.5024 63.5275 96.733 65.0825 96.4202C66.6393 96.1056 68.2518 96.262 69.7187 96.866C71.1856 97.4718 72.4387 98.5001 73.3195 99.8196C74.2004 101.139 74.6696 102.692 74.666 104.278C74.6714 106.385 73.8409 108.407 72.3596 109.903C70.8765 111.399 68.8612 112.245 66.7561 112.26Z" fill="#DCE9F8"/>
<path fill-rule="evenodd" clip-rule="evenodd" d="M96.0901 112.26C94.5028 112.278 92.9478 111.823 91.6193 110.955C90.2926 110.086 89.2517 108.842 88.6333 107.381C88.0149 105.919 87.8441 104.307 88.1443 102.75C88.4445 101.191 89.2014 99.7567 90.3177 98.6296C91.4341 97.5024 92.8615 96.733 94.4165 96.4202C95.9733 96.1056 97.5858 96.262 99.0527 96.866C100.52 97.4718 101.773 98.5001 102.654 99.8196C103.534 101.139 104.004 102.692 104 104.278C104.005 106.385 103.175 108.407 101.694 109.903C100.21 111.399 98.1952 112.245 96.0901 112.26Z" fill="#DCE9F8"/>
<path fill-rule="evenodd" clip-rule="evenodd" d="M125.423 112.26C123.836 112.278 122.281 111.823 120.952 110.955C119.626 110.086 118.585 108.842 117.966 107.381C117.348 105.919 117.177 104.307 117.477 102.75C117.778 101.191 118.534 99.7567 119.651 98.6296C120.767 97.5024 122.194 96.733 123.749 96.4202C125.306 96.1056 126.919 96.262 128.386 96.866C129.853 97.4718 131.106 98.5001 131.987 99.8196C132.867 101.139 133.337 102.692 133.333 104.278C133.338 106.385 132.508 108.407 131.027 109.903C129.543 111.399 127.528 112.245 125.423 112.26Z" fill="#DCE9F8"/>
</svg>
