<svg width="250" height="210" viewBox="0 0 250 210" fill="none" xmlns="http://www.w3.org/2000/svg">
<path fill-rule="evenodd" clip-rule="evenodd" d="M15.169 29.9962C12.1927 30.0299 9.27703 29.1771 6.7861 27.5491C4.29854 25.921 2.34688 23.5885 1.18737 20.8481C0.0278522 18.1078 -0.292374 15.0843 0.27053 12.1653C0.833435 9.24293 2.25254 6.55316 4.34573 4.43974C6.43892 2.32632 9.11524 0.88366 12.0309 0.297162C14.9499 -0.292707 17.9733 0.000494713 20.7238 1.13304C23.4743 2.26896 25.8237 4.19701 27.4753 6.67109C29.127 9.14517 30.0067 12.0575 30 15.0304C30.0101 18.9808 28.4528 22.7729 25.6754 25.5773C22.8946 28.3817 19.116 29.9693 15.169 29.9962Z" fill="#DCE9F8"/>
<path fill-rule="evenodd" clip-rule="evenodd" d="M70.169 29.9962C67.1927 30.0299 64.277 29.1771 61.7861 27.5491C59.2985 25.921 57.3469 23.5885 56.1874 20.8481C55.0279 18.1078 54.7076 15.0843 55.2705 12.1653C55.8334 9.24293 57.2525 6.55316 59.3457 4.43974C61.4389 2.32632 64.1152 0.88366 67.0309 0.297162C69.9499 -0.292707 72.9733 0.000494713 75.7238 1.13304C78.4743 2.26896 80.8237 4.19701 82.4753 6.67109C84.127 9.14517 85.0067 12.0575 85 15.0304C85.0101 18.9808 83.4528 22.7729 80.6754 25.5773C77.8946 28.3817 74.116 29.9693 70.169 29.9962Z" fill="#DCE9F8"/>
<path fill-rule="evenodd" clip-rule="evenodd" d="M125.169 29.9962C122.193 30.0299 119.277 29.1771 116.786 27.5491C114.299 25.921 112.347 23.5885 111.187 20.8481C110.028 18.1078 109.708 15.0843 110.271 12.1653C110.833 9.24293 112.253 6.55316 114.346 4.43974C116.439 2.32632 119.115 0.88366 122.031 0.297162C124.95 -0.292707 127.973 0.000494713 130.724 1.13304C133.474 2.26896 135.824 4.19701 137.475 6.67109C139.127 9.14517 140.007 12.0575 140 15.0304C140.01 18.9808 138.453 22.7729 135.675 25.5773C132.895 28.3817 129.116 29.9693 125.169 29.9962Z" fill="#DCE9F8"/>
<path fill-rule="evenodd" clip-rule="evenodd" d="M180.169 29.9962C177.193 30.0299 174.277 29.1771 171.786 27.5491C169.299 25.921 167.347 23.5885 166.187 20.8481C165.028 18.1078 164.708 15.0843 165.271 12.1653C165.833 9.24293 167.253 6.55316 169.346 4.43974C171.439 2.32632 174.115 0.88366 177.031 0.297162C179.95 -0.292707 182.973 0.000494713 185.724 1.13304C188.474 2.26896 190.824 4.19701 192.475 6.67109C194.127 9.14517 195.007 12.0575 195 15.0304C195.01 18.9808 193.453 22.7729 190.675 25.5773C187.895 28.3817 184.116 29.9693 180.169 29.9962Z" fill="#DCE9F8"/>
<path fill-rule="evenodd" clip-rule="evenodd" d="M235.169 29.9962C232.193 30.0299 229.277 29.1771 226.786 27.5491C224.299 25.921 222.347 23.5885 221.187 20.8481C220.028 18.1078 219.708 15.0843 220.271 12.1653C220.833 9.24293 222.253 6.55316 224.346 4.43974C226.439 2.32632 229.115 0.88366 232.031 0.297162C234.95 -0.292707 237.973 0.000494713 240.724 1.13304C243.474 2.26896 245.824 4.19701 247.475 6.67109C249.127 9.14517 250.007 12.0575 250 15.0304C250.01 18.9808 248.453 22.7729 245.675 25.5773C242.895 28.3817 239.116 29.9693 235.169 29.9962Z" fill="#DCE9F8"/>
<path fill-rule="evenodd" clip-rule="evenodd" d="M15.169 89.9923C12.1927 90.026 9.27703 89.1732 6.7861 87.5452C4.29854 85.9171 2.34688 83.5846 1.18737 80.8442C0.0278522 78.1039 -0.292374 75.0804 0.27053 72.1614C0.833435 69.239 2.25254 66.5492 4.34573 64.4358C6.43892 62.3224 9.11524 60.8798 12.0309 60.2933C14.9499 59.7034 17.9733 59.9966 20.7238 61.1291C23.4743 62.2651 25.8237 64.1931 27.4753 66.6672C29.127 69.1413 30.0067 72.0536 30 75.0265C30.0101 78.9769 28.4528 82.7689 25.6754 85.5734C22.8946 88.3778 19.116 89.9654 15.169 89.9923Z" fill="#DCE9F8"/>
<path fill-rule="evenodd" clip-rule="evenodd" d="M70.169 89.9923C67.1927 90.026 64.277 89.1732 61.7861 87.5452C59.2985 85.9171 57.3469 83.5846 56.1874 80.8442C55.0279 78.1039 54.7076 75.0804 55.2705 72.1614C55.8334 69.239 57.2525 66.5492 59.3457 64.4358C61.4389 62.3224 64.1152 60.8798 67.0309 60.2933C69.9499 59.7034 72.9733 59.9966 75.7238 61.1291C78.4743 62.2651 80.8237 64.1931 82.4753 66.6672C84.127 69.1413 85.0067 72.0536 85 75.0265C85.0101 78.9769 83.4528 82.7689 80.6754 85.5734C77.8946 88.3778 74.116 89.9654 70.169 89.9923Z" fill="#DCE9F8"/>
<path fill-rule="evenodd" clip-rule="evenodd" d="M125.169 89.9923C122.193 90.026 119.277 89.1732 116.786 87.5452C114.299 85.9171 112.347 83.5846 111.187 80.8442C110.028 78.1039 109.708 75.0804 110.271 72.1614C110.833 69.239 112.253 66.5492 114.346 64.4358C116.439 62.3224 119.115 60.8798 122.031 60.2933C124.95 59.7034 127.973 59.9966 130.724 61.1291C133.474 62.2651 135.824 64.1931 137.475 66.6672C139.127 69.1413 140.007 72.0536 140 75.0265C140.01 78.9769 138.453 82.7689 135.675 85.5734C132.895 88.3778 129.116 89.9654 125.169 89.9923Z" fill="#DCE9F8"/>
<path fill-rule="evenodd" clip-rule="evenodd" d="M180.169 89.9923C177.193 90.026 174.277 89.1732 171.786 87.5452C169.299 85.9171 167.347 83.5846 166.187 80.8442C165.028 78.1039 164.708 75.0804 165.271 72.1614C165.833 69.239 167.253 66.5492 169.346 64.4358C171.439 62.3224 174.115 60.8798 177.031 60.2933C179.95 59.7034 182.973 59.9966 185.724 61.1291C188.474 62.2651 190.824 64.1931 192.475 66.6672C194.127 69.1413 195.007 72.0536 195 75.0265C195.01 78.9769 193.453 82.7689 190.675 85.5734C187.895 88.3778 184.116 89.9654 180.169 89.9923Z" fill="#DCE9F8"/>
<path fill-rule="evenodd" clip-rule="evenodd" d="M235.169 89.9923C232.193 90.026 229.277 89.1732 226.786 87.5452C224.299 85.9171 222.347 83.5846 221.187 80.8442C220.028 78.1039 219.708 75.0804 220.27 72.1614C220.833 69.239 222.253 66.5492 224.346 64.4358C226.439 62.3224 229.115 60.8798 232.031 60.2933C234.95 59.7034 237.973 59.9966 240.724 61.1291C243.474 62.2651 245.824 64.1931 247.475 66.6672C249.127 69.1413 250.007 72.0536 250 75.0265C250.01 78.9769 248.453 82.7689 245.675 85.5734C242.895 88.3778 239.116 89.9654 235.169 89.9923Z" fill="#DCE9F8"/>
<path fill-rule="evenodd" clip-rule="evenodd" d="M15.169 149.99C12.1927 150.024 9.27703 149.171 6.7861 147.543C4.29854 145.915 2.34688 143.583 1.18737 140.842C0.0278522 138.102 -0.292374 135.078 0.27053 132.159C0.833435 129.237 2.25254 126.547 4.34573 124.434C6.43892 122.32 9.11524 120.878 12.0309 120.291C14.9499 119.701 17.9733 119.995 20.7238 121.127C23.4743 122.263 25.8237 124.191 27.4753 126.665C29.127 129.139 30.0067 132.052 30 135.025C30.0101 138.975 28.4528 142.767 25.6754 145.571C22.8946 148.376 19.116 149.963 15.169 149.99Z" fill="#DCE9F8"/>
<path fill-rule="evenodd" clip-rule="evenodd" d="M70.169 149.99C67.1927 150.024 64.277 149.171 61.7861 147.543C59.2985 145.915 57.3469 143.583 56.1874 140.842C55.0279 138.102 54.7076 135.078 55.2705 132.159C55.8334 129.237 57.2525 126.547 59.3457 124.434C61.4389 122.32 64.1152 120.878 67.0309 120.291C69.9499 119.701 72.9733 119.995 75.7238 121.127C78.4743 122.263 80.8237 124.191 82.4753 126.665C84.127 129.139 85.0067 132.052 85 135.025C85.0101 138.975 83.4528 142.767 80.6754 145.571C77.8946 148.376 74.116 149.963 70.169 149.99Z" fill="#DCE9F8"/>
<path fill-rule="evenodd" clip-rule="evenodd" d="M125.169 149.99C122.193 150.024 119.277 149.171 116.786 147.543C114.299 145.915 112.347 143.583 111.187 140.842C110.028 138.102 109.708 135.078 110.271 132.159C110.833 129.237 112.253 126.547 114.346 124.434C116.439 122.32 119.115 120.878 122.031 120.291C124.95 119.701 127.973 119.995 130.724 121.127C133.474 122.263 135.824 124.191 137.475 126.665C139.127 129.139 140.007 132.052 140 135.025C140.01 138.975 138.453 142.767 135.675 145.571C132.895 148.376 129.116 149.963 125.169 149.99Z" fill="#DCE9F8"/>
<path fill-rule="evenodd" clip-rule="evenodd" d="M180.169 149.99C177.193 150.024 174.277 149.171 171.786 147.543C169.299 145.915 167.347 143.583 166.187 140.842C165.028 138.102 164.708 135.078 165.271 132.159C165.833 129.237 167.253 126.547 169.346 124.434C171.439 122.32 174.115 120.878 177.031 120.291C179.95 119.701 182.973 119.995 185.724 121.127C188.474 122.263 190.824 124.191 192.475 126.665C194.127 129.139 195.007 132.052 195 135.025C195.01 138.975 193.453 142.767 190.675 145.571C187.895 148.376 184.116 149.963 180.169 149.99Z" fill="#DCE9F8"/>
<path fill-rule="evenodd" clip-rule="evenodd" d="M235.169 149.99C232.193 150.024 229.277 149.171 226.786 147.543C224.299 145.915 222.347 143.583 221.187 140.842C220.028 138.102 219.708 135.078 220.27 132.159C220.833 129.237 222.253 126.547 224.346 124.434C226.439 122.32 229.115 120.878 232.031 120.291C234.95 119.701 237.973 119.995 240.724 121.127C243.474 122.263 245.824 124.191 247.475 126.665C249.127 129.139 250.007 132.052 250 135.025C250.01 138.975 248.453 142.767 245.675 145.571C242.895 148.376 239.116 149.963 235.169 149.99Z" fill="#DCE9F8"/>
<path fill-rule="evenodd" clip-rule="evenodd" d="M15.169 209.986C12.1927 210.02 9.27703 209.167 6.7861 207.539C4.29854 205.911 2.34688 203.579 1.18737 200.838C0.0278522 198.098 -0.292374 195.075 0.27053 192.156C0.833435 189.233 2.25254 186.543 4.34573 184.43C6.43892 182.317 9.11524 180.874 12.0309 180.287C14.9499 179.698 17.9733 179.991 20.7238 181.123C23.4743 182.259 25.8237 184.187 27.4753 186.661C29.127 189.135 30.0067 192.048 30 195.021C30.0101 198.971 28.4528 202.763 25.6754 205.567C22.8946 208.372 19.116 209.96 15.169 209.986Z" fill="#DCE9F8"/>
<path fill-rule="evenodd" clip-rule="evenodd" d="M70.169 209.986C67.1927 210.02 64.277 209.167 61.7861 207.539C59.2985 205.911 57.3469 203.579 56.1874 200.838C55.0279 198.098 54.7076 195.075 55.2705 192.156C55.8334 189.233 57.2525 186.543 59.3457 184.43C61.4389 182.317 64.1152 180.874 67.0309 180.287C69.9499 179.698 72.9733 179.991 75.7238 181.123C78.4743 182.259 80.8237 184.187 82.4753 186.661C84.127 189.135 85.0067 192.048 85 195.021C85.0101 198.971 83.4528 202.763 80.6754 205.567C77.8946 208.372 74.116 209.96 70.169 209.986Z" fill="#DCE9F8"/>
<path fill-rule="evenodd" clip-rule="evenodd" d="M125.169 209.986C122.193 210.02 119.277 209.167 116.786 207.539C114.299 205.911 112.347 203.579 111.187 200.838C110.028 198.098 109.708 195.075 110.271 192.156C110.833 189.233 112.253 186.543 114.346 184.43C116.439 182.317 119.115 180.874 122.031 180.287C124.95 179.698 127.973 179.991 130.724 181.123C133.474 182.259 135.824 184.187 137.475 186.661C139.127 189.135 140.007 192.048 140 195.021C140.01 198.971 138.453 202.763 135.675 205.567C132.895 208.372 129.116 209.96 125.169 209.986Z" fill="#DCE9F8"/>
<path fill-rule="evenodd" clip-rule="evenodd" d="M180.169 209.986C177.193 210.02 174.277 209.167 171.786 207.539C169.299 205.911 167.347 203.579 166.187 200.838C165.028 198.098 164.708 195.075 165.271 192.156C165.833 189.233 167.253 186.543 169.346 184.43C171.439 182.317 174.115 180.874 177.031 180.287C179.95 179.698 182.973 179.991 185.724 181.123C188.474 182.259 190.824 184.187 192.475 186.661C194.127 189.135 195.007 192.048 195 195.021C195.01 198.971 193.453 202.763 190.675 205.567C187.895 208.372 184.116 209.96 180.169 209.986Z" fill="#DCE9F8"/>
<path fill-rule="evenodd" clip-rule="evenodd" d="M235.169 209.986C232.193 210.02 229.277 209.167 226.786 207.539C224.299 205.911 222.347 203.579 221.187 200.838C220.028 198.098 219.708 195.075 220.271 192.156C220.833 189.233 222.253 186.543 224.346 184.43C226.439 182.317 229.115 180.874 232.031 180.287C234.95 179.698 237.973 179.991 240.724 181.123C243.474 182.259 245.824 184.187 247.475 186.661C249.127 189.135 250.007 192.048 250 195.021C250.01 198.971 248.453 202.763 245.675 205.567C242.895 208.372 239.116 209.96 235.169 209.986Z" fill="#DCE9F8"/>
</svg>
