<svg width="534" height="449" viewBox="0 0 534 449" fill="none" xmlns="http://www.w3.org/2000/svg">
<path fill-rule="evenodd" clip-rule="evenodd" d="M32.3595 64.5926C26.0101 64.6645 19.79 62.8451 14.476 59.3719C9.16924 55.8988 5.0057 50.9227 2.53207 45.0766C0.0584433 39.2305 -0.624704 32.7805 0.576155 26.5532C1.77702 20.3188 4.80445 14.5807 9.26992 10.072C13.7354 5.56341 19.4449 2.48573 25.6649 1.23453C31.8921 -0.0238552 38.3421 0.601641 44.2098 3.01774C50.0775 5.44104 55.0896 9.5542 58.6131 14.8322C62.1366 20.1103 64.0133 26.3232 63.9989 32.6655C64.0205 41.0931 60.6984 49.1827 54.7732 55.1654C48.8408 61.1481 40.7799 64.535 32.3595 64.5926Z" fill="#DCE9F8"/>
<path fill-rule="evenodd" clip-rule="evenodd" d="M149.693 64.5926C143.343 64.6645 137.123 62.8451 131.809 59.3719C126.502 55.8988 122.339 50.9227 119.865 45.0766C117.391 39.2305 116.708 32.7805 117.909 26.5532C119.11 20.3188 122.137 14.5807 126.603 10.072C131.068 5.56341 136.778 2.48573 142.998 1.23453C149.225 -0.0238552 155.675 0.601641 161.543 3.01774C167.41 5.44104 172.423 9.5542 175.946 14.8322C179.47 20.1103 181.346 26.3232 181.332 32.6655C181.353 41.0931 178.031 49.1827 172.106 55.1654C166.174 61.1481 158.113 64.535 149.693 64.5926Z" fill="#DCE9F8"/>
<path fill-rule="evenodd" clip-rule="evenodd" d="M267.025 64.5926C260.675 64.6645 254.455 62.8451 249.141 59.3719C243.834 55.8988 239.671 50.9227 237.197 45.0766C234.723 39.2305 234.04 32.7805 235.241 26.5532C236.442 20.3188 239.469 14.5807 243.935 10.072C248.4 5.56341 254.11 2.48573 260.33 1.23453C266.557 -0.0238552 273.007 0.601641 278.875 3.01774C284.742 5.44104 289.755 9.5542 293.278 14.8322C296.802 20.1103 298.678 26.3232 298.664 32.6655C298.686 41.0931 295.363 49.1827 289.438 55.1654C283.506 61.1481 275.445 64.535 267.025 64.5926Z" fill="#DCE9F8"/>
<path fill-rule="evenodd" clip-rule="evenodd" d="M384.36 64.5926C378.011 64.6645 371.791 62.8451 366.477 59.3719C361.17 55.8988 357.007 50.9227 354.533 45.0766C352.059 39.2305 351.376 32.7805 352.577 26.5532C353.778 20.3188 356.805 14.5807 361.271 10.072C365.736 5.56341 371.446 2.48573 377.666 1.23453C383.893 -0.0238552 390.343 0.601641 396.211 3.01774C402.078 5.44104 407.091 9.5542 410.614 14.8322C414.138 20.1103 416.014 26.3232 416 32.6655C416.021 41.0931 412.699 49.1827 406.774 55.1654C400.842 61.1481 392.781 64.535 384.36 64.5926Z" fill="#DCE9F8"/>
<path fill-rule="evenodd" clip-rule="evenodd" d="M501.693 64.5926C495.343 64.6645 489.123 62.8451 483.809 59.3719C478.502 55.8988 474.339 50.9227 471.865 45.0766C469.391 39.2305 468.708 32.7805 469.909 26.5532C471.11 20.3188 474.137 14.5807 478.603 10.072C483.068 5.56341 488.778 2.48573 494.998 1.23453C501.225 -0.0238552 507.675 0.601641 513.543 3.01774C519.41 5.44104 524.423 9.5542 527.946 14.8322C531.47 20.1103 533.346 26.3232 533.332 32.6655C533.353 41.0931 530.031 49.1827 524.106 55.1654C518.174 61.1481 510.113 64.535 501.693 64.5926Z" fill="#DCE9F8"/>
<path fill-rule="evenodd" clip-rule="evenodd" d="M32.3595 192.587C26.0101 192.659 19.79 190.839 14.476 187.366C9.16924 183.893 5.0057 178.917 2.53207 173.071C0.0584433 167.225 -0.624704 160.775 0.576155 154.547C1.77702 148.313 4.80445 142.575 9.26992 138.066C13.7354 133.558 19.4449 130.48 25.6649 129.229C31.8921 127.97 38.3421 128.596 44.2098 131.012C50.0775 133.435 55.0896 137.548 58.6131 142.826C62.1366 148.104 64.0133 154.317 63.9989 160.66C64.0205 169.087 60.6984 177.177 54.7732 183.16C48.8408 189.142 40.7799 192.529 32.3595 192.587Z" fill="#DCE9F8"/>
<path fill-rule="evenodd" clip-rule="evenodd" d="M149.693 192.587C143.343 192.659 137.123 190.839 131.809 187.366C126.502 183.893 122.339 178.917 119.865 173.071C117.391 167.225 116.708 160.775 117.909 154.547C119.11 148.313 122.137 142.575 126.603 138.066C131.068 133.558 136.778 130.48 142.998 129.229C149.225 127.97 155.675 128.596 161.543 131.012C167.41 133.435 172.423 137.548 175.946 142.826C179.47 148.104 181.346 154.317 181.332 160.66C181.353 169.087 178.031 177.177 172.106 183.16C166.174 189.142 158.113 192.529 149.693 192.587Z" fill="#DCE9F8"/>
<path fill-rule="evenodd" clip-rule="evenodd" d="M267.025 192.586C260.675 192.658 254.455 190.838 249.141 187.365C243.834 183.892 239.671 178.916 237.197 173.07C234.723 167.224 234.04 160.774 235.241 154.546C236.442 148.312 239.469 142.574 243.935 138.065C248.4 133.557 254.11 130.479 260.33 129.228C266.557 127.969 273.007 128.595 278.875 131.011C284.742 133.434 289.755 137.547 293.278 142.825C296.802 148.103 298.678 154.316 298.664 160.659C298.686 169.086 295.363 177.176 289.438 183.159C283.506 189.141 275.445 192.528 267.025 192.586Z" fill="#DCE9F8"/>
<path fill-rule="evenodd" clip-rule="evenodd" d="M384.359 192.587C378.009 192.659 371.789 190.839 366.475 187.366C361.168 183.893 357.005 178.917 354.531 173.071C352.057 167.225 351.374 160.775 352.575 154.547C353.776 148.313 356.803 142.575 361.269 138.066C365.734 133.558 371.444 130.48 377.664 129.229C383.891 127.97 390.341 128.596 396.209 131.012C402.076 133.435 407.089 137.548 410.612 142.826C414.136 148.104 416.012 154.317 415.998 160.66C416.02 169.087 412.697 177.177 406.772 183.16C400.84 189.142 392.779 192.529 384.359 192.587Z" fill="#DCE9F8"/>
<path fill-rule="evenodd" clip-rule="evenodd" d="M501.693 192.587C495.343 192.659 489.123 190.839 483.809 187.366C478.502 183.893 474.339 178.917 471.865 173.071C469.391 167.225 468.708 160.775 469.909 154.547C471.11 148.313 474.137 142.575 478.603 138.066C483.068 133.558 488.778 130.48 494.998 129.229C501.225 127.97 507.675 128.596 513.543 131.012C519.41 133.435 524.423 137.548 527.946 142.826C531.47 148.104 533.346 154.317 533.332 160.66C533.353 169.087 530.031 177.177 524.106 183.16C518.174 189.142 510.113 192.529 501.693 192.587Z" fill="#DCE9F8"/>
<path fill-rule="evenodd" clip-rule="evenodd" d="M32.3595 320.58C26.0101 320.652 19.79 318.832 14.476 315.359C9.16924 311.886 5.0057 306.91 2.53207 301.064C0.0584433 295.218 -0.624704 288.768 0.576155 282.541C1.77702 276.306 4.80445 270.568 9.26992 266.059C13.7354 261.551 19.4449 258.473 25.6649 257.222C31.8921 255.963 38.3421 256.589 44.2098 259.005C50.0775 261.428 55.0896 265.542 58.6131 270.82C62.1366 276.098 64.0133 282.31 63.9989 288.653C64.0205 297.08 60.6984 305.17 54.7732 311.153C48.8408 317.135 40.7799 320.522 32.3595 320.58Z" fill="#DCE9F8"/>
<path fill-rule="evenodd" clip-rule="evenodd" d="M149.693 320.58C143.343 320.652 137.123 318.832 131.809 315.359C126.502 311.886 122.339 306.91 119.865 301.064C117.391 295.218 116.708 288.768 117.909 282.541C119.11 276.306 122.137 270.568 126.603 266.059C131.068 261.551 136.778 258.473 142.998 257.222C149.225 255.963 155.675 256.589 161.543 259.005C167.41 261.428 172.423 265.542 175.946 270.82C179.47 276.098 181.346 282.31 181.332 288.653C181.353 297.08 178.031 305.17 172.106 311.153C166.174 317.135 158.113 320.522 149.693 320.58Z" fill="#DCE9F8"/>
<path fill-rule="evenodd" clip-rule="evenodd" d="M267.025 320.58C260.675 320.652 254.455 318.832 249.141 315.359C243.834 311.886 239.671 306.91 237.197 301.064C234.723 295.218 234.04 288.768 235.241 282.541C236.442 276.306 239.469 270.568 243.935 266.059C248.4 261.551 254.11 258.473 260.33 257.222C266.557 255.963 273.007 256.589 278.875 259.005C284.742 261.428 289.755 265.542 293.278 270.82C296.802 276.098 298.678 282.31 298.664 288.653C298.686 297.08 295.363 305.17 289.438 311.153C283.506 317.135 275.445 320.522 267.025 320.58Z" fill="#DCE9F8"/>
<path fill-rule="evenodd" clip-rule="evenodd" d="M384.359 320.58C378.009 320.652 371.789 318.832 366.475 315.359C361.168 311.886 357.005 306.91 354.531 301.064C352.057 295.218 351.374 288.768 352.575 282.541C353.776 276.306 356.803 270.568 361.269 266.059C365.734 261.551 371.444 258.473 377.664 257.222C383.891 255.963 390.341 256.589 396.209 259.005C402.076 261.428 407.089 265.542 410.612 270.82C414.136 276.098 416.012 282.31 415.998 288.653C416.02 297.08 412.697 305.17 406.772 311.153C400.84 317.135 392.779 320.522 384.359 320.58Z" fill="#DCE9F8"/>
<path fill-rule="evenodd" clip-rule="evenodd" d="M501.693 320.58C495.343 320.652 489.123 318.832 483.809 315.359C478.502 311.886 474.339 306.91 471.865 301.064C469.391 295.218 468.708 288.768 469.909 282.541C471.11 276.306 474.137 270.568 478.603 266.059C483.068 261.551 488.778 258.473 494.998 257.222C501.225 255.963 507.675 256.589 513.543 259.005C519.41 261.428 524.423 265.542 527.946 270.82C531.47 276.098 533.346 282.31 533.332 288.653C533.353 297.08 530.031 305.17 524.106 311.153C518.174 317.135 510.113 320.522 501.693 320.58Z" fill="#DCE9F8"/>
<path fill-rule="evenodd" clip-rule="evenodd" d="M32.3595 448.574C26.0101 448.646 19.79 446.827 14.476 443.353C9.16924 439.88 5.0057 434.904 2.53207 429.058C0.0584433 423.212 -0.624704 416.762 0.576155 410.535C1.77702 404.3 4.80445 398.562 9.26992 394.053C13.7354 389.545 19.4449 386.467 25.6649 385.216C31.8921 383.958 38.3421 384.583 44.2098 386.999C50.0775 389.422 55.0896 393.536 58.6131 398.814C62.1366 404.092 64.0133 410.305 63.9989 416.647C64.0205 425.075 60.6984 433.164 54.7732 439.147C48.8408 445.13 40.7799 448.516 32.3595 448.574Z" fill="#DCE9F8"/>
<path fill-rule="evenodd" clip-rule="evenodd" d="M149.693 448.574C143.343 448.646 137.123 446.827 131.809 443.353C126.502 439.88 122.339 434.904 119.865 429.058C117.391 423.212 116.708 416.762 117.909 410.535C119.11 404.3 122.137 398.562 126.603 394.053C131.068 389.545 136.778 386.467 142.998 385.216C149.225 383.958 155.675 384.583 161.543 386.999C167.41 389.422 172.423 393.536 175.946 398.814C179.47 404.092 181.346 410.305 181.332 416.647C181.353 425.075 178.031 433.164 172.106 439.147C166.174 445.13 158.113 448.516 149.693 448.574Z" fill="#DCE9F8"/>
<path fill-rule="evenodd" clip-rule="evenodd" d="M267.025 448.574C260.675 448.646 254.455 446.827 249.141 443.353C243.834 439.88 239.671 434.904 237.197 429.058C234.723 423.212 234.04 416.762 235.241 410.535C236.442 404.3 239.469 398.562 243.935 394.053C248.4 389.545 254.11 386.467 260.33 385.216C266.557 383.958 273.007 384.583 278.875 386.999C284.742 389.422 289.755 393.536 293.278 398.814C296.802 404.092 298.678 410.305 298.664 416.647C298.686 425.075 295.363 433.164 289.438 439.147C283.506 445.13 275.445 448.516 267.025 448.574Z" fill="#DCE9F8"/>
<path fill-rule="evenodd" clip-rule="evenodd" d="M384.36 448.574C378.011 448.646 371.791 446.827 366.477 443.353C361.17 439.88 357.007 434.904 354.533 429.058C352.059 423.212 351.376 416.762 352.577 410.535C353.778 404.3 356.805 398.562 361.271 394.053C365.736 389.545 371.446 386.467 377.666 385.216C383.893 383.958 390.343 384.583 396.211 386.999C402.078 389.422 407.091 393.536 410.614 398.814C414.138 404.092 416.014 410.305 416 416.647C416.021 425.075 412.699 433.164 406.774 439.147C400.842 445.13 392.781 448.516 384.36 448.574Z" fill="#DCE9F8"/>
<path fill-rule="evenodd" clip-rule="evenodd" d="M501.693 448.574C495.343 448.646 489.123 446.827 483.809 443.353C478.502 439.88 474.339 434.904 471.865 429.058C469.391 423.212 468.708 416.762 469.909 410.535C471.11 404.3 474.137 398.562 478.603 394.053C483.068 389.545 488.778 386.467 494.998 385.216C501.225 383.958 507.675 384.583 513.543 386.999C519.41 389.422 524.423 393.536 527.946 398.814C531.47 404.092 533.346 410.305 533.332 416.647C533.353 425.075 530.031 433.164 524.106 439.147C518.174 445.13 510.113 448.516 501.693 448.574Z" fill="#DCE9F8"/>
</svg>
