<svg width="227" height="243" viewBox="0 0 227 243" fill="none" xmlns="http://www.w3.org/2000/svg">
<g clip-path="url(#clip0_2047_4)">
<path fill-rule="evenodd" clip-rule="evenodd" d="M11.1845 110.475C8.98989 110.5 6.84005 109.871 5.00336 108.671C3.16916 107.47 1.73011 105.75 0.875139 103.73C0.0201715 101.709 -0.215947 99.4798 0.199112 97.3275C0.614168 95.1727 1.66055 93.1894 3.20396 91.6311C4.74737 90.0727 6.72075 89.009 8.8706 88.5765C11.0229 88.1416 13.2523 88.3578 15.2803 89.1929C17.3084 90.0304 19.0407 91.4521 20.2586 93.2763C21.4764 95.1006 22.1251 97.248 22.1201 99.4401C22.1275 102.353 20.9793 105.149 18.9314 107.217C16.8809 109.285 14.0948 110.455 11.1845 110.475Z" fill="#DCE9F8"/>
<path fill-rule="evenodd" clip-rule="evenodd" d="M51.739 110.475C49.5445 110.5 47.3946 109.871 45.5579 108.671C43.7237 107.47 42.2847 105.75 41.4297 103.73C40.5747 101.709 40.3386 99.4798 40.7537 97.3275C41.1687 95.1727 42.2151 93.1894 43.7585 91.6311C45.3019 90.0727 47.2753 89.009 49.4252 88.5765C51.5775 88.1416 53.8068 88.3578 55.8349 89.1929C57.8629 90.0304 59.5953 91.4521 60.8131 93.2763C62.031 95.1006 62.6796 97.248 62.6746 99.4401C62.6821 102.353 61.5339 105.149 59.4859 107.217C57.4355 109.285 54.6494 110.455 51.739 110.475Z" fill="#DCE9F8"/>
<path fill-rule="evenodd" clip-rule="evenodd" d="M92.2929 110.475C90.0983 110.5 87.9484 109.871 86.1118 108.671C84.2776 107.47 82.8385 105.75 81.9835 103.73C81.1286 101.709 80.8925 99.4798 81.3075 97.3275C81.7226 95.1727 82.7689 93.1894 84.3124 91.6311C85.8558 90.0727 87.8292 89.009 89.979 88.5765C92.1313 88.1416 94.3606 88.3578 96.3887 89.1929C98.4168 90.0304 100.149 91.4521 101.367 93.2763C102.585 95.1006 103.233 97.248 103.228 99.4401C103.236 102.353 102.088 105.149 100.04 107.217C97.9893 109.285 95.2032 110.455 92.2929 110.475Z" fill="#DCE9F8"/>
<path fill-rule="evenodd" clip-rule="evenodd" d="M132.847 110.475C130.653 110.5 128.503 109.871 126.666 108.671C124.832 107.47 123.393 105.75 122.538 103.73C121.683 101.709 121.447 99.4798 121.862 97.3275C122.277 95.1727 123.324 93.1894 124.867 91.6311C126.41 90.0727 128.384 89.009 130.534 88.5765C132.686 88.1416 134.915 88.3578 136.943 89.1929C138.971 90.0304 140.704 91.4521 141.922 93.2763C143.139 95.1006 143.788 97.248 143.783 99.4401C143.791 102.353 142.642 105.149 140.594 107.217C138.544 109.285 135.758 110.455 132.847 110.475Z" fill="#DCE9F8"/>
<path fill-rule="evenodd" clip-rule="evenodd" d="M173.401 110.475C171.207 110.5 169.057 109.871 167.22 108.671C165.386 107.47 163.947 105.75 163.092 103.73C162.237 101.709 162.001 99.4798 162.416 97.3275C162.831 95.1727 163.877 93.1894 165.421 91.6311C166.964 90.0727 168.938 89.009 171.087 88.5765C173.24 88.1416 175.469 88.3578 177.497 89.1929C179.525 90.0304 181.258 91.4521 182.475 93.2763C183.693 95.1006 184.342 97.248 184.337 99.4401C184.344 102.353 183.196 105.149 181.148 107.217C179.098 109.285 176.312 110.455 173.401 110.475Z" fill="#DCE9F8"/>
<path fill-rule="evenodd" clip-rule="evenodd" d="M213.956 110.475C211.761 110.5 209.611 109.871 207.775 108.671C205.941 107.47 204.502 105.75 203.647 103.73C202.792 101.709 202.555 99.4798 202.971 97.3275C203.386 95.1727 204.432 93.1894 205.975 91.6311C207.519 90.0727 209.492 89.009 211.642 88.5765C213.794 88.1416 216.024 88.3578 218.052 89.1929C220.08 90.0304 221.812 91.4521 223.03 93.2763C224.248 95.1006 224.896 97.248 224.892 99.4401C224.899 102.353 223.751 105.149 221.703 107.217C219.652 109.285 216.866 110.455 213.956 110.475Z" fill="#DCE9F8"/>
<path fill-rule="evenodd" clip-rule="evenodd" d="M11.1845 154.713C8.98989 154.738 6.84005 154.109 5.00336 152.909C3.16916 151.709 1.73011 149.989 0.875139 147.968C0.0201715 145.947 -0.215947 143.718 0.199112 141.566C0.614168 139.411 1.66055 137.428 3.20396 135.869C4.74737 134.311 6.72075 133.247 8.8706 132.815C11.0229 132.38 13.2523 132.596 15.2803 133.431C17.3084 134.269 19.0407 135.69 20.2586 137.515C21.4764 139.339 22.1251 141.486 22.1201 143.678C22.1275 146.591 20.9793 149.387 18.9314 151.455C16.8809 153.523 14.0948 154.694 11.1845 154.713Z" fill="#DCE9F8"/>
<path fill-rule="evenodd" clip-rule="evenodd" d="M51.739 154.713C49.5445 154.738 47.3946 154.109 45.5579 152.909C43.7237 151.709 42.2847 149.989 41.4297 147.968C40.5747 145.947 40.3386 143.718 40.7537 141.566C41.1687 139.411 42.2151 137.428 43.7585 135.869C45.3019 134.311 47.2753 133.247 49.4252 132.815C51.5775 132.38 53.8068 132.596 55.8349 133.431C57.8629 134.269 59.5953 135.69 60.8131 137.515C62.031 139.339 62.6796 141.486 62.6746 143.678C62.6821 146.591 61.5339 149.387 59.4859 151.455C57.4355 153.523 54.6494 154.694 51.739 154.713Z" fill="#DCE9F8"/>
<path fill-rule="evenodd" clip-rule="evenodd" d="M92.2929 154.713C90.0983 154.738 87.9484 154.109 86.1118 152.909C84.2776 151.709 82.8385 149.989 81.9835 147.968C81.1286 145.947 80.8925 143.718 81.3075 141.566C81.7226 139.411 82.7689 137.428 84.3124 135.869C85.8558 134.311 87.8292 133.247 89.979 132.815C92.1313 132.38 94.3606 132.596 96.3887 133.431C98.4168 134.269 100.149 135.69 101.367 137.515C102.585 139.339 103.233 141.486 103.228 143.678C103.236 146.591 102.088 149.387 100.04 151.455C97.9893 153.523 95.2032 154.694 92.2929 154.713Z" fill="#DCE9F8"/>
<path fill-rule="evenodd" clip-rule="evenodd" d="M132.847 154.713C130.653 154.738 128.503 154.109 126.666 152.909C124.832 151.709 123.393 149.989 122.538 147.968C121.683 145.947 121.447 143.718 121.862 141.566C122.277 139.411 123.324 137.428 124.867 135.869C126.41 134.311 128.384 133.247 130.534 132.815C132.686 132.38 134.915 132.596 136.943 133.431C138.971 134.269 140.704 135.69 141.922 137.515C143.139 139.339 143.788 141.486 143.783 143.678C143.791 146.591 142.642 149.387 140.594 151.455C138.544 153.523 135.758 154.694 132.847 154.713Z" fill="#DCE9F8"/>
<path fill-rule="evenodd" clip-rule="evenodd" d="M173.401 154.713C171.207 154.738 169.057 154.109 167.22 152.909C165.386 151.709 163.947 149.989 163.092 147.968C162.237 145.947 162.001 143.718 162.416 141.566C162.831 139.411 163.877 137.428 165.421 135.869C166.964 134.311 168.938 133.247 171.087 132.815C173.24 132.38 175.469 132.596 177.497 133.431C179.525 134.269 181.258 135.69 182.475 137.515C183.693 139.339 184.342 141.486 184.337 143.678C184.344 146.591 183.196 149.387 181.148 151.455C179.098 153.523 176.312 154.694 173.401 154.713Z" fill="#DCE9F8"/>
<path fill-rule="evenodd" clip-rule="evenodd" d="M213.956 154.713C211.761 154.738 209.612 154.109 207.775 152.909C205.941 151.709 204.502 149.989 203.647 147.968C202.792 145.947 202.556 143.718 202.971 141.566C203.386 139.411 204.432 137.428 205.975 135.869C207.519 134.311 209.492 133.247 211.642 132.815C213.794 132.38 216.024 132.596 218.052 133.431C220.08 134.269 221.812 135.69 223.03 137.515C224.248 139.339 224.897 141.486 224.892 143.678C224.899 146.591 223.751 149.387 221.703 151.455C219.652 153.523 216.866 154.694 213.956 154.713Z" fill="#DCE9F8"/>
<path fill-rule="evenodd" clip-rule="evenodd" d="M11.1845 198.954C8.98989 198.978 6.84005 198.35 5.00336 197.149C3.16916 195.949 1.73011 194.229 0.875139 192.208C0.0201715 190.188 -0.215947 187.958 0.199112 185.806C0.614168 183.651 1.66055 181.668 3.20396 180.11C4.74737 178.551 6.72075 177.488 8.8706 177.055C11.0229 176.62 13.2523 176.836 15.2803 177.671C17.3084 178.509 19.0407 179.931 20.2586 181.755C21.4764 183.579 22.1251 185.727 22.1201 187.919C22.1275 190.831 20.9793 193.627 18.9314 195.695C16.8809 197.763 14.0948 198.934 11.1845 198.954Z" fill="#DCE9F8"/>
<path fill-rule="evenodd" clip-rule="evenodd" d="M51.739 198.954C49.5445 198.978 47.3946 198.35 45.5579 197.149C43.7237 195.949 42.2847 194.229 41.4297 192.208C40.5747 190.188 40.3386 187.958 40.7537 185.806C41.1687 183.651 42.2151 181.668 43.7585 180.11C45.3019 178.551 47.2753 177.488 49.4252 177.055C51.5775 176.62 53.8068 176.836 55.8349 177.671C57.8629 178.509 59.5953 179.931 60.8131 181.755C62.031 183.579 62.6796 185.727 62.6746 187.919C62.6821 190.831 61.5339 193.627 59.4859 195.695C57.4355 197.763 54.6494 198.934 51.739 198.954Z" fill="#DCE9F8"/>
<path fill-rule="evenodd" clip-rule="evenodd" d="M92.2929 198.952C90.0983 198.977 87.9484 198.348 86.1118 197.147C84.2776 195.947 82.8385 194.227 81.9835 192.206C81.1286 190.186 80.8925 187.956 81.3075 185.804C81.7226 183.649 82.7689 181.666 84.3124 180.108C85.8558 178.549 87.8292 177.486 89.979 177.053C92.1313 176.618 94.3606 176.834 96.3887 177.669C98.4168 178.507 100.149 179.929 101.367 181.753C102.585 183.577 103.233 185.725 103.228 187.917C103.236 190.829 102.088 193.626 100.04 195.693C97.9893 197.761 95.2032 198.932 92.2929 198.952Z" fill="#DCE9F8"/>
<path fill-rule="evenodd" clip-rule="evenodd" d="M132.847 198.954C130.653 198.978 128.503 198.35 126.666 197.149C124.832 195.949 123.393 194.229 122.538 192.208C121.683 190.188 121.447 187.958 121.862 185.806C122.277 183.651 123.324 181.668 124.867 180.11C126.41 178.551 128.384 177.488 130.534 177.055C132.686 176.62 134.915 176.836 136.943 177.671C138.971 178.509 140.704 179.931 141.922 181.755C143.139 183.579 143.788 185.727 143.783 187.919C143.791 190.831 142.642 193.627 140.594 195.695C138.544 197.763 135.758 198.934 132.847 198.954Z" fill="#DCE9F8"/>
<path fill-rule="evenodd" clip-rule="evenodd" d="M173.401 198.954C171.207 198.978 169.057 198.35 167.22 197.149C165.386 195.949 163.947 194.229 163.092 192.208C162.237 190.188 162.001 187.958 162.416 185.806C162.831 183.651 163.877 181.668 165.421 180.11C166.964 178.551 168.938 177.488 171.087 177.055C173.24 176.62 175.469 176.836 177.497 177.671C179.525 178.509 181.258 179.931 182.475 181.755C183.693 183.579 184.342 185.727 184.337 187.919C184.344 190.831 183.196 193.627 181.148 195.695C179.098 197.763 176.312 198.934 173.401 198.954Z" fill="#DCE9F8"/>
<path fill-rule="evenodd" clip-rule="evenodd" d="M213.956 198.954C211.761 198.978 209.612 198.35 207.775 197.149C205.941 195.949 204.502 194.229 203.647 192.208C202.792 190.188 202.556 187.958 202.971 185.806C203.386 183.651 204.432 181.668 205.975 180.11C207.519 178.551 209.492 177.488 211.642 177.055C213.794 176.62 216.024 176.836 218.052 177.671C220.08 178.509 221.812 179.931 223.03 181.755C224.248 183.579 224.897 185.727 224.892 187.919C224.899 190.831 223.751 193.627 221.703 195.695C219.652 197.763 216.866 198.934 213.956 198.954Z" fill="#DCE9F8"/>
<path fill-rule="evenodd" clip-rule="evenodd" d="M11.1845 243.192C8.98989 243.217 6.84005 242.588 5.00336 241.388C3.16916 240.187 1.73011 238.467 0.875139 236.447C0.0201715 234.426 -0.215947 232.197 0.199112 230.044C0.614168 227.889 1.66055 225.906 3.20396 224.348C4.74737 222.79 6.72075 221.726 8.8706 221.293C11.0229 220.858 13.2523 221.075 15.2803 221.91C17.3084 222.747 19.0407 224.169 20.2586 225.993C21.4764 227.817 22.1251 229.965 22.1201 232.157C22.1275 235.07 20.9793 237.866 18.9314 239.934C16.8809 242.001 14.0948 243.172 11.1845 243.192Z" fill="#DCE9F8"/>
<path fill-rule="evenodd" clip-rule="evenodd" d="M51.739 243.192C49.5445 243.217 47.3946 242.588 45.5579 241.388C43.7237 240.187 42.2847 238.467 41.4297 236.447C40.5747 234.426 40.3386 232.197 40.7537 230.044C41.1687 227.889 42.2151 225.906 43.7585 224.348C45.3019 222.79 47.2753 221.726 49.4252 221.293C51.5775 220.858 53.8068 221.075 55.8349 221.91C57.8629 222.747 59.5953 224.169 60.8131 225.993C62.031 227.817 62.6796 229.965 62.6746 232.157C62.6821 235.07 61.5339 237.866 59.4859 239.934C57.4355 242.001 54.6494 243.172 51.739 243.192Z" fill="#DCE9F8"/>
<path fill-rule="evenodd" clip-rule="evenodd" d="M92.2929 243.192C90.0983 243.217 87.9484 242.588 86.1118 241.388C84.2776 240.187 82.8385 238.467 81.9835 236.447C81.1286 234.426 80.8925 232.197 81.3075 230.044C81.7226 227.889 82.7689 225.906 84.3124 224.348C85.8558 222.79 87.8292 221.726 89.979 221.293C92.1313 220.858 94.3606 221.075 96.3887 221.91C98.4168 222.747 100.149 224.169 101.367 225.993C102.585 227.817 103.233 229.965 103.228 232.157C103.236 235.07 102.088 237.866 100.04 239.934C97.9893 242.001 95.2032 243.172 92.2929 243.192Z" fill="#DCE9F8"/>
<path fill-rule="evenodd" clip-rule="evenodd" d="M132.847 243.192C130.653 243.217 128.503 242.588 126.666 241.388C124.832 240.187 123.393 238.467 122.538 236.447C121.683 234.426 121.447 232.197 121.862 230.044C122.277 227.889 123.324 225.906 124.867 224.348C126.41 222.79 128.384 221.726 130.534 221.293C132.686 220.858 134.915 221.075 136.943 221.91C138.971 222.747 140.704 224.169 141.922 225.993C143.139 227.817 143.788 229.965 143.783 232.157C143.791 235.07 142.642 237.866 140.594 239.934C138.544 242.001 135.758 243.172 132.847 243.192Z" fill="#DCE9F8"/>
<path fill-rule="evenodd" clip-rule="evenodd" d="M173.401 243.192C171.207 243.217 169.057 242.588 167.22 241.388C165.386 240.187 163.947 238.467 163.092 236.447C162.237 234.426 162.001 232.197 162.416 230.044C162.831 227.889 163.877 225.906 165.421 224.348C166.964 222.79 168.938 221.726 171.087 221.293C173.24 220.858 175.469 221.075 177.497 221.91C179.525 222.747 181.258 224.169 182.475 225.993C183.693 227.817 184.342 229.965 184.337 232.157C184.344 235.07 183.196 237.866 181.148 239.934C179.098 242.001 176.312 243.172 173.401 243.192Z" fill="#DCE9F8"/>
<path fill-rule="evenodd" clip-rule="evenodd" d="M213.956 243.192C211.761 243.217 209.612 242.588 207.775 241.388C205.941 240.187 204.502 238.467 203.647 236.447C202.792 234.426 202.556 232.197 202.971 230.044C203.386 227.889 204.432 225.906 205.975 224.348C207.519 222.79 209.492 221.726 211.642 221.293C213.794 220.858 216.024 221.075 218.052 221.91C220.08 222.747 221.812 224.169 223.03 225.993C224.248 227.817 224.897 229.965 224.892 232.157C224.899 235.07 223.751 237.866 221.703 239.934C219.652 242.001 216.866 243.172 213.956 243.192Z" fill="#DCE9F8"/>
<path fill-rule="evenodd" clip-rule="evenodd" d="M11.1845 22.1177C8.98989 22.1426 6.84005 21.5137 5.00336 20.3133C3.16916 19.1129 1.73011 17.393 0.875139 15.3724C0.0201715 13.3518 -0.215947 11.1224 0.199112 8.97008C0.614168 6.81527 1.66055 4.83197 3.20396 3.27364C4.74737 1.71531 6.72075 0.651566 8.8706 0.219112C11.0229 -0.215827 13.2523 0.000364776 15.2803 0.835449C17.3084 1.67302 19.0407 3.09466 20.2586 4.91892C21.4764 6.74318 22.1251 8.89057 22.1201 11.0827C22.1275 13.9955 20.9793 16.7915 18.9314 18.8594C16.8809 20.9272 14.0948 22.0978 11.1845 22.1177Z" fill="#DCE9F8"/>
<path fill-rule="evenodd" clip-rule="evenodd" d="M51.7392 22.1177C49.5446 22.1426 47.3947 21.5137 45.558 20.3133C43.7238 19.1129 42.2848 17.393 41.4298 15.3724C40.5749 13.3518 40.3387 11.1224 40.7538 8.97008C41.1689 6.81527 42.2152 4.83197 43.7586 3.27364C45.3021 1.71531 47.2754 0.651566 49.4253 0.219112C51.5776 -0.215827 53.8069 0.000364776 55.835 0.835449C57.8631 1.67302 59.5954 3.09466 60.8132 4.91892C62.0311 6.74318 62.6797 8.89057 62.6748 11.0827C62.6822 13.9955 61.534 16.7915 59.4861 18.8594C57.4356 20.9272 54.6495 22.0978 51.7392 22.1177Z" fill="#DCE9F8"/>
<path fill-rule="evenodd" clip-rule="evenodd" d="M92.2929 22.1177C90.0983 22.1426 87.9484 21.5137 86.1118 20.3133C84.2776 19.1129 82.8385 17.393 81.9835 15.3724C81.1286 13.3518 80.8925 11.1224 81.3075 8.97008C81.7226 6.81527 82.7689 4.83197 84.3124 3.27364C85.8558 1.71531 87.8292 0.651566 89.979 0.219112C92.1313 -0.215827 94.3606 0.000364776 96.3887 0.835449C98.4168 1.67302 100.149 3.09466 101.367 4.91892C102.585 6.74318 103.233 8.89057 103.228 11.0827C103.236 13.9955 102.088 16.7915 100.04 18.8594C97.9893 20.9272 95.2032 22.0978 92.2929 22.1177Z" fill="#DCE9F8"/>
<path fill-rule="evenodd" clip-rule="evenodd" d="M132.848 22.1177C130.653 22.1426 128.503 21.5137 126.666 20.3133C124.832 19.1129 123.393 17.393 122.538 15.3724C121.683 13.3518 121.447 11.1224 121.862 8.97008C122.277 6.81527 123.324 4.83197 124.867 3.27364C126.41 1.71531 128.384 0.651566 130.534 0.219112C132.686 -0.215827 134.915 0.000364776 136.943 0.835449C138.971 1.67302 140.704 3.09466 141.922 4.91892C143.139 6.74318 143.788 8.89057 143.783 11.0827C143.791 13.9955 142.642 16.7915 140.594 18.8594C138.544 20.9272 135.758 22.0978 132.848 22.1177Z" fill="#DCE9F8"/>
<path fill-rule="evenodd" clip-rule="evenodd" d="M173.401 22.1177C171.207 22.1426 169.057 21.5137 167.22 20.3133C165.386 19.1129 163.947 17.393 163.092 15.3724C162.237 13.3518 162.001 11.1224 162.416 8.97008C162.831 6.81527 163.877 4.83197 165.421 3.27364C166.964 1.71531 168.938 0.651566 171.087 0.219112C173.24 -0.215827 175.469 0.000364776 177.497 0.835449C179.525 1.67302 181.258 3.09466 182.475 4.91892C183.693 6.74318 184.342 8.89057 184.337 11.0827C184.344 13.9955 183.196 16.7915 181.148 18.8594C179.098 20.9272 176.312 22.0978 173.401 22.1177Z" fill="#DCE9F8"/>
<path fill-rule="evenodd" clip-rule="evenodd" d="M213.956 22.1177C211.761 22.1426 209.612 21.5137 207.775 20.3133C205.941 19.1129 204.502 17.393 203.647 15.3724C202.792 13.3518 202.556 11.1224 202.971 8.97008C203.386 6.81527 204.432 4.83197 205.975 3.27364C207.519 1.71531 209.492 0.651566 211.642 0.219112C213.794 -0.215827 216.024 0.000364776 218.052 0.835449C220.08 1.67302 221.812 3.09466 223.03 4.91892C224.248 6.74318 224.897 8.89057 224.892 11.0827C224.899 13.9955 223.751 16.7915 221.703 18.8594C219.652 20.9272 216.866 22.0978 213.956 22.1177Z" fill="#DCE9F8"/>
<path fill-rule="evenodd" clip-rule="evenodd" d="M11.1845 66.356C8.98989 66.3808 6.84005 65.752 5.00336 64.5516C3.16916 63.3511 1.73011 61.6312 0.875139 59.6106C0.0201715 57.59 -0.215947 55.3607 0.199112 53.2084C0.614168 51.0536 1.66055 49.0702 3.20396 47.5119C4.74737 45.9536 6.72075 44.8898 8.8706 44.4574C11.0229 44.0225 13.2523 44.2386 15.2803 45.0737C17.3084 45.9113 19.0407 47.3329 20.2586 49.1572C21.4764 50.9815 22.1251 53.1288 22.1201 55.3209C22.1275 58.2338 20.9793 61.0298 18.9314 63.0977C16.8809 65.1655 14.0948 66.3361 11.1845 66.356Z" fill="#DCE9F8"/>
<path fill-rule="evenodd" clip-rule="evenodd" d="M51.7392 66.356C49.5446 66.3808 47.3947 65.752 45.558 64.5516C43.7238 63.3511 42.2848 61.6312 41.4298 59.6106C40.5749 57.59 40.3387 55.3607 40.7538 53.2084C41.1689 51.0536 42.2152 49.0702 43.7586 47.5119C45.3021 45.9536 47.2754 44.8898 49.4253 44.4574C51.5776 44.0225 53.8069 44.2386 55.835 45.0737C57.8631 45.9113 59.5954 47.3329 60.8132 49.1572C62.0311 50.9815 62.6797 53.1288 62.6748 55.3209C62.6822 58.2338 61.534 61.0298 59.4861 63.0977C57.4356 65.1655 54.6495 66.3361 51.7392 66.356Z" fill="#DCE9F8"/>
<path fill-rule="evenodd" clip-rule="evenodd" d="M92.2929 66.356C90.0983 66.3808 87.9484 65.752 86.1118 64.5516C84.2776 63.3511 82.8385 61.6312 81.9835 59.6106C81.1286 57.59 80.8925 55.3607 81.3075 53.2084C81.7226 51.0536 82.7689 49.0702 84.3124 47.5119C85.8558 45.9536 87.8292 44.8898 89.979 44.4574C92.1313 44.0225 94.3606 44.2386 96.3887 45.0737C98.4168 45.9113 100.149 47.3329 101.367 49.1572C102.585 50.9815 103.233 53.1288 103.228 55.3209C103.236 58.2338 102.088 61.0298 100.04 63.0977C97.9893 65.1655 95.2032 66.3361 92.2929 66.356Z" fill="#DCE9F8"/>
<path fill-rule="evenodd" clip-rule="evenodd" d="M132.848 66.356C130.653 66.3808 128.503 65.752 126.666 64.5516C124.832 63.3511 123.393 61.6312 122.538 59.6106C121.683 57.59 121.447 55.3607 121.862 53.2084C122.277 51.0536 123.324 49.0702 124.867 47.5119C126.41 45.9536 128.384 44.8898 130.534 44.4574C132.686 44.0225 134.915 44.2386 136.943 45.0737C138.971 45.9113 140.704 47.3329 141.922 49.1572C143.139 50.9815 143.788 53.1288 143.783 55.3209C143.791 58.2338 142.642 61.0298 140.594 63.0977C138.544 65.1655 135.758 66.3361 132.848 66.356Z" fill="#DCE9F8"/>
<path fill-rule="evenodd" clip-rule="evenodd" d="M173.401 66.356C171.207 66.3808 169.057 65.752 167.22 64.5516C165.386 63.3511 163.947 61.6312 163.092 59.6106C162.237 57.59 162.001 55.3607 162.416 53.2084C162.831 51.0536 163.877 49.0702 165.421 47.5119C166.964 45.9536 168.938 44.8898 171.087 44.4574C173.24 44.0225 175.469 44.2386 177.497 45.0737C179.525 45.9113 181.258 47.3329 182.475 49.1572C183.693 50.9815 184.342 53.1288 184.337 55.3209C184.344 58.2338 183.196 61.0298 181.148 63.0977C179.098 65.1655 176.312 66.3361 173.401 66.356Z" fill="#DCE9F8"/>
<path fill-rule="evenodd" clip-rule="evenodd" d="M213.956 66.356C211.761 66.3808 209.612 65.752 207.775 64.5516C205.941 63.3511 204.502 61.6312 203.647 59.6106C202.792 57.59 202.556 55.3607 202.971 53.2084C203.386 51.0536 204.432 49.0702 205.975 47.5119C207.519 45.9536 209.492 44.8898 211.642 44.4574C213.794 44.0225 216.024 44.2386 218.052 45.0737C220.08 45.9113 221.812 47.3329 223.03 49.1572C224.248 50.9815 224.897 53.1288 224.892 55.3209C224.899 58.2338 223.751 61.0298 221.703 63.0977C219.652 65.1655 216.866 66.3361 213.956 66.356Z" fill="#DCE9F8"/>
</g>
<defs>
<clipPath id="clip0_2047_4">
<rect width="227" height="243" fill="white"/>
</clipPath>
</defs>
</svg>
