<svg width="114" height="122" viewBox="0 0 114 122" fill="none" xmlns="http://www.w3.org/2000/svg">
<g clip-path="url(#clip0_2047_3)">
<path fill-rule="evenodd" clip-rule="evenodd" d="M5.70497 55.7385C4.60424 55.751 3.52595 55.4366 2.60472 54.8363C1.68474 54.2361 0.96296 53.3762 0.534135 52.3659C0.105312 51.3556 -0.0131171 50.2409 0.195061 49.1647C0.403241 48.0873 0.928071 47.0957 1.7022 46.3165C2.47632 45.5373 3.46611 45.0055 4.5444 44.7892C5.62394 44.5718 6.7421 44.6799 7.75931 45.0974C8.77652 45.5162 9.64542 46.227 10.2562 47.1391C10.8671 48.0513 11.1924 49.125 11.1899 50.221C11.1937 51.6774 10.6178 53.0755 9.59057 54.1094C8.56214 55.1433 7.16472 55.7286 5.70497 55.7385Z" fill="#DCE9F8"/>
<path fill-rule="evenodd" clip-rule="evenodd" d="M26.0458 55.7385C24.9451 55.751 23.8668 55.4366 22.9455 54.8363C22.0256 54.2361 21.3038 53.3762 20.875 52.3659C20.4461 51.3556 20.3277 50.2409 20.5359 49.1647C20.7441 48.0873 21.2689 47.0957 22.043 46.3165C22.8171 45.5373 23.8069 45.0055 24.8852 44.7892C25.9648 44.5718 27.0829 44.6799 28.1001 45.0974C29.1173 45.5162 29.9862 46.227 30.5971 47.1391C31.2079 48.0513 31.5332 49.125 31.5307 50.221C31.5345 51.6774 30.9586 53.0755 29.9314 54.1094C28.903 55.1433 27.5055 55.7286 26.0458 55.7385Z" fill="#DCE9F8"/>
<path fill-rule="evenodd" clip-rule="evenodd" d="M46.3866 55.7385C45.2859 55.751 44.2076 55.4366 43.2864 54.8363C42.3664 54.2361 41.6446 53.3762 41.2158 52.3659C40.787 51.3556 40.6685 50.2409 40.8767 49.1647C41.0849 48.0873 41.6097 47.0957 42.3838 46.3165C43.158 45.5373 44.1478 45.0055 45.226 44.7892C46.3056 44.5718 47.4237 44.6799 48.441 45.0974C49.4582 45.5162 50.3271 46.227 50.9379 47.1391C51.5487 48.0513 51.8741 49.125 51.8716 50.221C51.8753 51.6774 51.2994 53.0755 50.2722 54.1094C49.2438 55.1433 47.8464 55.7286 46.3866 55.7385Z" fill="#DCE9F8"/>
<path fill-rule="evenodd" clip-rule="evenodd" d="M66.7272 55.7385C65.6265 55.751 64.5482 55.4366 63.6269 54.8363C62.707 54.2361 61.9852 53.3762 61.5564 52.3659C61.1275 51.3556 61.0091 50.2409 61.2173 49.1647C61.4255 48.0873 61.9503 47.0957 62.7244 46.3165C63.4985 45.5373 64.4883 45.0055 65.5666 44.7892C66.6462 44.5718 67.7643 44.6799 68.7815 45.0974C69.7987 45.5162 70.6676 46.227 71.2785 47.1391C71.8893 48.0513 72.2146 49.125 72.2121 50.221C72.2159 51.6774 71.64 53.0755 70.6128 54.1094C69.5844 55.1433 68.1869 55.7286 66.7272 55.7385Z" fill="#DCE9F8"/>
<path fill-rule="evenodd" clip-rule="evenodd" d="M87.068 55.7385C85.9673 55.751 84.889 55.4366 83.9678 54.8363C83.0478 54.2361 82.326 53.3762 81.8972 52.3659C81.4683 51.3556 81.3499 50.2409 81.5581 49.1647C81.7663 48.0873 82.2911 47.0957 83.0652 46.3165C83.8394 45.5373 84.8291 45.0055 85.9074 44.7892C86.987 44.5718 88.1051 44.6799 89.1223 45.0974C90.1396 45.5162 91.0085 46.227 91.6193 47.1391C92.2301 48.0513 92.5555 49.125 92.553 50.221C92.5567 51.6774 91.9808 53.0755 90.9536 54.1094C89.9252 55.1433 88.5278 55.7286 87.068 55.7385Z" fill="#DCE9F8"/>
<path fill-rule="evenodd" clip-rule="evenodd" d="M107.409 55.7385C106.308 55.751 105.23 55.4366 104.308 54.8363C103.388 54.2361 102.667 53.3762 102.238 52.3659C101.809 51.3556 101.69 50.2409 101.899 49.1647C102.107 48.0873 102.632 47.0957 103.406 46.3165C104.18 45.5373 105.17 45.0055 106.248 44.7892C107.328 44.5718 108.446 44.6799 109.463 45.0974C110.48 45.5162 111.349 46.227 111.96 47.1391C112.571 48.0513 112.896 49.125 112.894 50.221C112.897 51.6774 112.321 53.0755 111.294 54.1094C110.266 55.1433 108.868 55.7286 107.409 55.7385Z" fill="#DCE9F8"/>
<path fill-rule="evenodd" clip-rule="evenodd" d="M5.70497 77.8577C4.60424 77.8701 3.52595 77.5557 2.60472 76.9555C1.68474 76.3553 0.96296 75.4953 0.534135 74.485C0.105312 73.4747 -0.0131171 72.36 0.195061 71.2839C0.403241 70.2065 0.928071 69.2148 1.7022 68.4356C2.47632 67.6565 3.46611 67.1246 4.5444 66.9084C5.62394 66.6909 6.7421 66.799 7.75931 67.2166C8.77652 67.6353 9.64542 68.3462 10.2562 69.2583C10.8671 70.1704 11.1924 71.2441 11.1899 72.3402C11.1937 73.7966 10.6178 75.1946 9.59057 76.2285C8.56214 77.2624 7.16472 77.8477 5.70497 77.8577Z" fill="#DCE9F8"/>
<path fill-rule="evenodd" clip-rule="evenodd" d="M26.0458 77.8577C24.9451 77.8701 23.8668 77.5557 22.9455 76.9555C22.0256 76.3553 21.3038 75.4953 20.875 74.485C20.4461 73.4747 20.3277 72.36 20.5359 71.2839C20.7441 70.2065 21.2689 69.2148 22.043 68.4356C22.8171 67.6565 23.8069 67.1246 24.8852 66.9084C25.9648 66.6909 27.0829 66.799 28.1001 67.2166C29.1173 67.6353 29.9862 68.3462 30.5971 69.2583C31.2079 70.1704 31.5332 71.2441 31.5307 72.3402C31.5345 73.7966 30.9586 75.1946 29.9314 76.2285C28.903 77.2624 27.5055 77.8477 26.0458 77.8577Z" fill="#DCE9F8"/>
<path fill-rule="evenodd" clip-rule="evenodd" d="M46.3866 77.8577C45.2859 77.8701 44.2076 77.5557 43.2864 76.9555C42.3664 76.3553 41.6446 75.4953 41.2158 74.485C40.787 73.4747 40.6685 72.36 40.8767 71.2839C41.0849 70.2065 41.6097 69.2148 42.3838 68.4356C43.158 67.6565 44.1478 67.1246 45.226 66.9084C46.3056 66.6909 47.4237 66.799 48.441 67.2166C49.4582 67.6353 50.3271 68.3462 50.9379 69.2583C51.5487 70.1704 51.8741 71.2441 51.8716 72.3402C51.8753 73.7966 51.2994 75.1946 50.2722 76.2285C49.2438 77.2624 47.8464 77.8477 46.3866 77.8577Z" fill="#DCE9F8"/>
<path fill-rule="evenodd" clip-rule="evenodd" d="M66.7272 77.8577C65.6265 77.8701 64.5482 77.5557 63.6269 76.9555C62.707 76.3553 61.9852 75.4953 61.5564 74.485C61.1275 73.4747 61.0091 72.36 61.2173 71.2839C61.4255 70.2065 61.9503 69.2148 62.7244 68.4356C63.4985 67.6565 64.4883 67.1246 65.5666 66.9084C66.6462 66.6909 67.7643 66.799 68.7815 67.2166C69.7987 67.6353 70.6676 68.3462 71.2785 69.2583C71.8893 70.1704 72.2146 71.2441 72.2121 72.3402C72.2159 73.7966 71.64 75.1946 70.6128 76.2285C69.5844 77.2624 68.1869 77.8477 66.7272 77.8577Z" fill="#DCE9F8"/>
<path fill-rule="evenodd" clip-rule="evenodd" d="M87.068 77.8577C85.9673 77.8701 84.889 77.5557 83.9678 76.9555C83.0478 76.3553 82.326 75.4953 81.8972 74.485C81.4683 73.4747 81.3499 72.36 81.5581 71.2839C81.7663 70.2065 82.2911 69.2148 83.0652 68.4356C83.8394 67.6565 84.8291 67.1246 85.9074 66.9084C86.987 66.6909 88.1051 66.799 89.1223 67.2166C90.1396 67.6353 91.0085 68.3462 91.6193 69.2583C92.2301 70.1704 92.5555 71.2441 92.553 72.3402C92.5567 73.7966 91.9808 75.1946 90.9536 76.2285C89.9252 77.2624 88.5278 77.8477 87.068 77.8577Z" fill="#DCE9F8"/>
<path fill-rule="evenodd" clip-rule="evenodd" d="M107.409 77.8577C106.308 77.8701 105.23 77.5557 104.308 76.9555C103.388 76.3553 102.667 75.4953 102.238 74.485C101.809 73.4747 101.69 72.36 101.899 71.2839C102.107 70.2065 102.632 69.2148 103.406 68.4356C104.18 67.6565 105.17 67.1246 106.248 66.9084C107.328 66.6909 108.446 66.799 109.463 67.2166C110.48 67.6353 111.349 68.3462 111.96 69.2583C112.571 70.1704 112.896 71.2441 112.894 72.3402C112.897 73.7966 112.321 75.1946 111.294 76.2285C110.266 77.2624 108.868 77.8477 107.409 77.8577Z" fill="#DCE9F8"/>
<path fill-rule="evenodd" clip-rule="evenodd" d="M5.70497 99.9768C4.60424 99.9892 3.52595 99.6748 2.60472 99.0746C1.68474 98.4744 0.96296 97.6145 0.534135 96.6042C0.105312 95.5938 -0.0131171 94.4792 0.195061 93.403C0.403241 92.3256 0.928071 91.334 1.7022 90.5548C2.47632 89.7756 3.46611 89.2438 4.5444 89.0275C5.62394 88.8101 6.7421 88.9182 7.75931 89.3357C8.77652 89.7545 9.64542 90.4653 10.2562 91.3774C10.8671 92.2896 11.1924 93.3633 11.1899 94.4593C11.1937 95.9157 10.6178 97.3137 9.59057 98.3477C8.56214 99.3816 7.16472 99.9669 5.70497 99.9768Z" fill="#DCE9F8"/>
<path fill-rule="evenodd" clip-rule="evenodd" d="M26.0458 99.9768C24.9451 99.9892 23.8668 99.6748 22.9455 99.0746C22.0256 98.4744 21.3038 97.6145 20.875 96.6042C20.4461 95.5938 20.3277 94.4792 20.5359 93.403C20.7441 92.3256 21.2689 91.334 22.043 90.5548C22.8171 89.7756 23.8069 89.2438 24.8852 89.0275C25.9648 88.8101 27.0829 88.9182 28.1001 89.3357C29.1173 89.7545 29.9862 90.4653 30.5971 91.3774C31.2079 92.2896 31.5332 93.3633 31.5307 94.4593C31.5345 95.9157 30.9586 97.3137 29.9314 98.3477C28.903 99.3816 27.5055 99.9669 26.0458 99.9768Z" fill="#DCE9F8"/>
<path fill-rule="evenodd" clip-rule="evenodd" d="M46.3866 99.9768C45.2859 99.9892 44.2076 99.6748 43.2864 99.0746C42.3664 98.4744 41.6446 97.6145 41.2158 96.6042C40.787 95.5938 40.6685 94.4792 40.8767 93.403C41.0849 92.3256 41.6097 91.334 42.3838 90.5548C43.158 89.7756 44.1478 89.2438 45.226 89.0275C46.3056 88.8101 47.4237 88.9182 48.441 89.3357C49.4582 89.7545 50.3271 90.4653 50.9379 91.3774C51.5487 92.2896 51.8741 93.3633 51.8716 94.4593C51.8753 95.9157 51.2994 97.3137 50.2722 98.3477C49.2438 99.3816 47.8464 99.9669 46.3866 99.9768Z" fill="#DCE9F8"/>
<path fill-rule="evenodd" clip-rule="evenodd" d="M66.7272 99.9768C65.6265 99.9892 64.5482 99.6748 63.6269 99.0746C62.707 98.4744 61.9852 97.6145 61.5564 96.6042C61.1275 95.5938 61.0091 94.4792 61.2173 93.403C61.4255 92.3256 61.9503 91.334 62.7244 90.5548C63.4985 89.7756 64.4883 89.2438 65.5666 89.0275C66.6462 88.8101 67.7643 88.9182 68.7815 89.3357C69.7987 89.7545 70.6676 90.4653 71.2785 91.3774C71.8893 92.2896 72.2146 93.3633 72.2121 94.4593C72.2159 95.9157 71.64 97.3137 70.6128 98.3477C69.5844 99.3816 68.1869 99.9669 66.7272 99.9768Z" fill="#DCE9F8"/>
<path fill-rule="evenodd" clip-rule="evenodd" d="M87.068 99.9768C85.9673 99.9892 84.889 99.6748 83.9678 99.0746C83.0478 98.4744 82.326 97.6145 81.8972 96.6042C81.4683 95.5938 81.3499 94.4792 81.5581 93.403C81.7663 92.3256 82.2911 91.334 83.0652 90.5548C83.8394 89.7756 84.8291 89.2438 85.9074 89.0275C86.987 88.8101 88.1051 88.9182 89.1223 89.3357C90.1396 89.7545 91.0085 90.4653 91.6193 91.3774C92.2301 92.2896 92.5555 93.3633 92.553 94.4593C92.5567 95.9157 91.9808 97.3137 90.9536 98.3477C89.9252 99.3816 88.5278 99.9669 87.068 99.9768Z" fill="#DCE9F8"/>
<path fill-rule="evenodd" clip-rule="evenodd" d="M107.409 99.9768C106.308 99.9892 105.23 99.6748 104.308 99.0746C103.388 98.4744 102.667 97.6145 102.238 96.6042C101.809 95.5938 101.69 94.4792 101.899 93.403C102.107 92.3256 102.632 91.334 103.406 90.5548C104.18 89.7756 105.17 89.2438 106.248 89.0275C107.328 88.8101 108.446 88.9182 109.463 89.3357C110.48 89.7545 111.349 90.4653 111.96 91.3774C112.571 92.2896 112.896 93.3633 112.894 94.4593C112.897 95.9157 112.321 97.3137 111.294 98.3477C110.266 99.3816 108.868 99.9669 107.409 99.9768Z" fill="#DCE9F8"/>
<path fill-rule="evenodd" clip-rule="evenodd" d="M5.70497 122.096C4.60424 122.108 3.52595 121.794 2.60472 121.194C1.68474 120.594 0.96296 119.734 0.534135 118.723C0.105312 117.713 -0.0131171 116.598 0.195061 115.522C0.403241 114.445 0.928071 113.453 1.7022 112.674C2.47632 111.895 3.46611 111.363 4.5444 111.147C5.62394 110.929 6.7421 111.037 7.75931 111.455C8.77652 111.874 9.64542 112.584 10.2562 113.497C10.8671 114.409 11.1924 115.482 11.1899 116.578C11.1937 118.035 10.6178 119.433 9.59057 120.467C8.56214 121.501 7.16472 122.086 5.70497 122.096Z" fill="#DCE9F8"/>
<path fill-rule="evenodd" clip-rule="evenodd" d="M26.0458 122.096C24.9451 122.108 23.8668 121.794 22.9455 121.194C22.0256 120.594 21.3038 119.734 20.875 118.723C20.4461 117.713 20.3277 116.598 20.5359 115.522C20.7441 114.445 21.2689 113.453 22.043 112.674C22.8171 111.895 23.8069 111.363 24.8852 111.147C25.9648 110.929 27.0829 111.037 28.1001 111.455C29.1173 111.874 29.9862 112.584 30.5971 113.497C31.2079 114.409 31.5332 115.482 31.5307 116.578C31.5345 118.035 30.9586 119.433 29.9314 120.467C28.903 121.501 27.5055 122.086 26.0458 122.096Z" fill="#DCE9F8"/>
<path fill-rule="evenodd" clip-rule="evenodd" d="M46.3866 122.096C45.2859 122.108 44.2076 121.794 43.2864 121.194C42.3664 120.594 41.6446 119.734 41.2158 118.723C40.787 117.713 40.6685 116.598 40.8767 115.522C41.0849 114.445 41.6097 113.453 42.3838 112.674C43.158 111.895 44.1478 111.363 45.226 111.147C46.3056 110.929 47.4237 111.037 48.441 111.455C49.4582 111.874 50.3271 112.584 50.9379 113.497C51.5487 114.409 51.8741 115.482 51.8716 116.578C51.8753 118.035 51.2994 119.433 50.2722 120.467C49.2438 121.501 47.8464 122.086 46.3866 122.096Z" fill="#DCE9F8"/>
<path fill-rule="evenodd" clip-rule="evenodd" d="M66.7272 122.096C65.6265 122.108 64.5482 121.794 63.6269 121.194C62.707 120.594 61.9852 119.734 61.5564 118.723C61.1275 117.713 61.0091 116.598 61.2173 115.522C61.4255 114.445 61.9503 113.453 62.7244 112.674C63.4985 111.895 64.4883 111.363 65.5666 111.147C66.6462 110.929 67.7643 111.037 68.7815 111.455C69.7987 111.874 70.6676 112.584 71.2785 113.497C71.8893 114.409 72.2146 115.482 72.2121 116.578C72.2159 118.035 71.64 119.433 70.6128 120.467C69.5844 121.501 68.1869 122.086 66.7272 122.096Z" fill="#DCE9F8"/>
<path fill-rule="evenodd" clip-rule="evenodd" d="M87.068 122.096C85.9673 122.108 84.889 121.794 83.9678 121.194C83.0478 120.594 82.326 119.734 81.8972 118.723C81.4683 117.713 81.3499 116.598 81.5581 115.522C81.7663 114.445 82.2911 113.453 83.0652 112.674C83.8394 111.895 84.8291 111.363 85.9074 111.147C86.987 110.929 88.1051 111.037 89.1223 111.455C90.1396 111.874 91.0085 112.584 91.6193 113.497C92.2301 114.409 92.5555 115.482 92.553 116.578C92.5567 118.035 91.9808 119.433 90.9536 120.467C89.9252 121.501 88.5278 122.086 87.068 122.096Z" fill="#DCE9F8"/>
<path fill-rule="evenodd" clip-rule="evenodd" d="M107.409 122.096C106.308 122.108 105.23 121.794 104.308 121.194C103.388 120.594 102.667 119.734 102.238 118.723C101.809 117.713 101.69 116.598 101.899 115.522C102.107 114.445 102.632 113.453 103.406 112.674C104.18 111.895 105.17 111.363 106.248 111.147C107.328 110.929 108.446 111.037 109.463 111.455C110.48 111.874 111.349 112.584 111.96 113.497C112.571 114.409 112.896 115.482 112.894 116.578C112.897 118.035 112.321 119.433 111.294 120.467C110.266 121.501 108.868 122.086 107.409 122.096Z" fill="#DCE9F8"/>
<path fill-rule="evenodd" clip-rule="evenodd" d="M5.70497 11.5589C4.60424 11.5713 3.52595 11.2569 2.60472 10.6566C1.68474 10.0564 0.96296 9.19648 0.534135 8.18618C0.105312 7.17588 -0.0131171 6.06121 0.195061 4.98504C0.403241 3.90763 0.928071 2.91598 1.7022 2.13682C2.47632 1.35766 3.46611 0.825783 4.5444 0.609556C5.62394 0.392086 6.7421 0.500182 7.75931 0.917724C8.77652 1.33651 9.64542 2.04733 10.2562 2.95946C10.8671 3.87159 11.1924 4.94528 11.1899 6.04133C11.1937 7.49776 10.6178 8.89577 9.59057 9.92969C8.56214 10.9636 7.16472 11.5489 5.70497 11.5589Z" fill="#DCE9F8"/>
<path fill-rule="evenodd" clip-rule="evenodd" d="M26.0455 11.5589C24.9448 11.5713 23.8665 11.2569 22.9453 10.6566C22.0253 10.0564 21.3035 9.19648 20.8747 8.18618C20.4459 7.17588 20.3275 6.06121 20.5356 4.98504C20.7438 3.90763 21.2686 2.91598 22.0428 2.13682C22.8169 1.35766 23.8067 0.825783 24.885 0.609556C25.9645 0.392086 27.0827 0.500182 28.0999 0.917724C29.1171 1.33651 29.986 2.04733 30.5968 2.95946C31.2076 3.87159 31.533 4.94528 31.5305 6.04133C31.5342 7.49776 30.9583 8.89577 29.9311 9.92969C28.9027 10.9636 27.5053 11.5489 26.0455 11.5589Z" fill="#DCE9F8"/>
<path fill-rule="evenodd" clip-rule="evenodd" d="M46.3864 11.5589C45.2856 11.5713 44.2073 11.2569 43.2861 10.6566C42.3661 10.0564 41.6444 9.19648 41.2155 8.18618C40.7867 7.17588 40.6683 6.06121 40.8765 4.98504C41.0846 3.90763 41.6095 2.91598 42.3836 2.13682C43.1577 1.35766 44.1475 0.825783 45.2258 0.609556C46.3053 0.392086 47.4235 0.500182 48.4407 0.917724C49.4579 1.33651 50.3268 2.04733 50.9376 2.95946C51.5485 3.87159 51.8738 4.94528 51.8713 6.04133C51.8751 7.49776 51.2992 8.89577 50.272 9.92969C49.2435 10.9636 47.8461 11.5489 46.3864 11.5589Z" fill="#DCE9F8"/>
<path fill-rule="evenodd" clip-rule="evenodd" d="M66.7269 11.5589C65.6262 11.5713 64.5479 11.2569 63.6267 10.6566C62.7067 10.0564 61.9849 9.19648 61.5561 8.18618C61.1273 7.17588 61.0089 6.06121 61.217 4.98504C61.4252 3.90763 61.95 2.91598 62.7242 2.13682C63.4983 1.35766 64.4881 0.825783 65.5664 0.609556C66.6459 0.392086 67.7641 0.500182 68.7813 0.917724C69.7985 1.33651 70.6674 2.04733 71.2782 2.95946C71.889 3.87159 72.2144 4.94528 72.2119 6.04133C72.2156 7.49776 71.6397 8.89577 70.6125 9.92969C69.5841 10.9636 68.1867 11.5489 66.7269 11.5589Z" fill="#DCE9F8"/>
<path fill-rule="evenodd" clip-rule="evenodd" d="M87.0678 11.5589C85.967 11.5713 84.8887 11.2569 83.9675 10.6566C83.0475 10.0564 82.3258 9.19648 81.8969 8.18618C81.4681 7.17588 81.3497 6.06121 81.5579 4.98504C81.766 3.90763 82.2909 2.91598 83.065 2.13682C83.8391 1.35766 84.8289 0.825783 85.9072 0.609556C86.9867 0.392086 88.1049 0.500182 89.1221 0.917724C90.1393 1.33651 91.0082 2.04733 91.619 2.95946C92.2299 3.87159 92.5552 4.94528 92.5527 6.04133C92.5565 7.49776 91.9805 8.89577 90.9534 9.92969C89.9249 10.9636 88.5275 11.5489 87.0678 11.5589Z" fill="#DCE9F8"/>
<path fill-rule="evenodd" clip-rule="evenodd" d="M107.408 11.5589C106.308 11.5713 105.229 11.2569 104.308 10.6566C103.388 10.0564 102.666 9.19648 102.238 8.18618C101.809 7.17588 101.69 6.06121 101.898 4.98504C102.107 3.90763 102.631 2.91598 103.406 2.13682C104.18 1.35766 105.169 0.825783 106.248 0.609556C107.327 0.392086 108.445 0.500182 109.463 0.917724C110.48 1.33651 111.349 2.04733 111.96 2.95946C112.57 3.87159 112.896 4.94528 112.893 6.04133C112.897 7.49776 112.321 8.89577 111.294 9.92969C110.266 10.9636 108.868 11.5489 107.408 11.5589Z" fill="#DCE9F8"/>
<path fill-rule="evenodd" clip-rule="evenodd" d="M5.70497 33.678C4.60424 33.6904 3.52595 33.376 2.60472 32.7758C1.68474 32.1756 0.96296 31.3156 0.534135 30.3053C0.105312 29.295 -0.0131171 28.1803 0.195061 27.1042C0.403241 26.0268 0.928071 25.0351 1.7022 24.256C2.47632 23.4768 3.46611 22.9449 4.5444 22.7287C5.62394 22.5112 6.7421 22.6193 7.75931 23.0369C8.77652 23.4556 9.64542 24.1665 10.2562 25.0786C10.8671 25.9907 11.1924 27.0644 11.1899 28.1605C11.1937 29.6169 10.6178 31.0149 9.59057 32.0488C8.56214 33.0827 7.16472 33.6681 5.70497 33.678Z" fill="#DCE9F8"/>
<path fill-rule="evenodd" clip-rule="evenodd" d="M26.0455 33.678C24.9448 33.6904 23.8665 33.376 22.9453 32.7758C22.0253 32.1756 21.3035 31.3156 20.8747 30.3053C20.4459 29.295 20.3275 28.1803 20.5356 27.1042C20.7438 26.0268 21.2686 25.0351 22.0428 24.256C22.8169 23.4768 23.8067 22.9449 24.885 22.7287C25.9645 22.5112 27.0827 22.6193 28.0999 23.0369C29.1171 23.4556 29.986 24.1665 30.5968 25.0786C31.2076 25.9907 31.533 27.0644 31.5305 28.1605C31.5342 29.6169 30.9583 31.0149 29.9311 32.0488C28.9027 33.0827 27.5053 33.6681 26.0455 33.678Z" fill="#DCE9F8"/>
<path fill-rule="evenodd" clip-rule="evenodd" d="M46.3864 33.678C45.2856 33.6904 44.2073 33.376 43.2861 32.7758C42.3661 32.1756 41.6444 31.3156 41.2155 30.3053C40.7867 29.295 40.6683 28.1803 40.8765 27.1042C41.0846 26.0268 41.6095 25.0351 42.3836 24.256C43.1577 23.4768 44.1475 22.9449 45.2258 22.7287C46.3053 22.5112 47.4235 22.6193 48.4407 23.0369C49.4579 23.4556 50.3268 24.1665 50.9376 25.0786C51.5485 25.9907 51.8738 27.0644 51.8713 28.1605C51.8751 29.6169 51.2992 31.0149 50.272 32.0488C49.2435 33.0827 47.8461 33.6681 46.3864 33.678Z" fill="#DCE9F8"/>
<path fill-rule="evenodd" clip-rule="evenodd" d="M66.7269 33.678C65.6262 33.6904 64.5479 33.376 63.6267 32.7758C62.7067 32.1756 61.9849 31.3156 61.5561 30.3053C61.1273 29.295 61.0089 28.1803 61.217 27.1042C61.4252 26.0268 61.95 25.0351 62.7242 24.256C63.4983 23.4768 64.4881 22.9449 65.5664 22.7287C66.6459 22.5112 67.7641 22.6193 68.7813 23.0369C69.7985 23.4556 70.6674 24.1665 71.2782 25.0786C71.889 25.9907 72.2144 27.0644 72.2119 28.1605C72.2156 29.6169 71.6397 31.0149 70.6125 32.0488C69.5841 33.0827 68.1867 33.6681 66.7269 33.678Z" fill="#DCE9F8"/>
<path fill-rule="evenodd" clip-rule="evenodd" d="M87.0678 33.678C85.967 33.6904 84.8887 33.376 83.9675 32.7758C83.0475 32.1756 82.3258 31.3156 81.8969 30.3053C81.4681 29.295 81.3497 28.1803 81.5579 27.1042C81.766 26.0268 82.2909 25.0351 83.065 24.256C83.8391 23.4768 84.8289 22.9449 85.9072 22.7287C86.9867 22.5112 88.1049 22.6193 89.1221 23.0369C90.1393 23.4556 91.0082 24.1665 91.619 25.0786C92.2299 25.9907 92.5552 27.0644 92.5527 28.1605C92.5565 29.6169 91.9805 31.0149 90.9534 32.0488C89.9249 33.0827 88.5275 33.6681 87.0678 33.678Z" fill="#DCE9F8"/>
<path fill-rule="evenodd" clip-rule="evenodd" d="M107.408 33.678C106.308 33.6904 105.229 33.376 104.308 32.7758C103.388 32.1756 102.666 31.3156 102.238 30.3053C101.809 29.295 101.69 28.1803 101.898 27.1042C102.107 26.0268 102.631 25.0351 103.406 24.256C104.18 23.4768 105.169 22.9449 106.248 22.7287C107.327 22.5112 108.445 22.6193 109.463 23.0369C110.48 23.4556 111.349 24.1665 111.96 25.0786C112.57 25.9907 112.896 27.0644 112.893 28.1605C112.897 29.6169 112.321 31.0149 111.294 32.0488C110.266 33.0827 108.868 33.6681 107.408 33.678Z" fill="#DCE9F8"/>
</g>
<defs>
<clipPath id="clip0_2047_3">
<rect width="114" height="122" fill="white"/>
</clipPath>
</defs>
</svg>
